<svg xmlns="http://www.w3.org/2000/svg" viewBox="0 0 800 800" fill="none" stroke="black" stroke-width="1.5" stroke-linecap="round" stroke-linejoin="round">
<path d="M150,400 Q150,340 200,360 Q250,340 250,400" />
<line x1="153" y1="400" x2="247" y2="400" />
<circle cx="175" cy="376" r="4" />
<circle cx="200" cy="368" r="4" />
<circle cx="225" cy="376" r="4" />
<rect x="190" y="400" width="20" height="50" rx="6" />
<path d="M440,350 Q440,282.5 500,305 Q560,282.5 560,350" />
<line x1="443" y1="350" x2="557" y2="350" />
<circle cx="470" cy="323" r="4.8" />
<circle cx="500" cy="314" r="4.8" />
<circle cx="530" cy="323" r="4.8" />
<rect x="489" y="350" width="22" height="55" rx="6.6" />
<path d="M310,500 Q310,447.5 350,465 Q390,447.5 390,500" />
<line x1="313" y1="500" x2="387" y2="500" />
<circle cx="330" cy="479" r="3.2" />
<circle cx="350" cy="472" r="3.2" />
<circle cx="370" cy="479" r="3.2" />
<rect x="342" y="500" width="16" height="40" rx="4.8" />
<path d="M585,480 Q585,435 620,450 Q655,435 655,480" />
<line x1="588" y1="480" x2="652" y2="480" />
<circle cx="602.5" cy="462" r="2.8000000000000003" />
<circle cx="620" cy="456" r="2.8000000000000003" />
<circle cx="637.5" cy="462" r="2.8000000000000003" />
<rect x="613" y="480" width="14" height="35" rx="4.2" />
<path d="M105,560 Q105,503 150,522 Q195,503 195,560" />
<line x1="108" y1="560" x2="192" y2="560" />
<circle cx="127.5" cy="537.2" r="3.6" />
<circle cx="150" cy="529.6" r="3.6" />
<circle cx="172.5" cy="537.2" r="3.6" />
<rect x="141" y="560" width="18" height="45" rx="5.3999999999999995" />
<path d="M60.46832962005244,653.5585641521575 Q45.65929001187734,646.9212346504468 31.464002645603667,654.7860686359603 Q46.27304225377876,661.4233981376711 60.46832962005244,653.5585641521575 M60.46832962005244,653.5585641521575 L31.464002645603667,654.7860686359603" />
<path d="M660.7914867073218,598.3135113756298 Q665.6557275032848,619.2801393207368 685.347574336948,627.9687234510308 Q680.4833335409852,607.0020955059236 660.7914867073218,598.3135113756298 M660.7914867073218,598.3135113756298 L685.347574336948,627.9687234510308" />
<path d="M589.0969251926028,595.5354716400947 Q598.3100051048184,576.5710364861184 588.6663049289665,557.8219114639601 Q579.453225016751,576.7863466179365 589.0969251926028,595.5354716400947 M589.0969251926028,595.5354716400947 L588.6663049289665,557.8219114639601" />
<path d="M144.96631108686915,557.6222306747196 Q148.47484042874223,538.180375273208 135.0264737126568,523.7084385588026 Q131.51794437078374,543.1502939603142 144.96631108686915,557.6222306747196 M144.96631108686915,557.6222306747196 L135.0264737126568,523.7084385588026" />
<path d="M101.57914288489067,671.9392695575386 Q110.82981345274325,650.3275786020755 99.09086302908433,629.9600275745156 Q89.84019246123174,651.5717185299787 101.57914288489067,671.9392695575386 M101.57914288489067,671.9392695575386 L99.09086302908433,629.9600275745156" />
<path d="M562.3607114724449,628.4797637429831 Q581.655849196745,615.1416333076158 582.5624274830311,591.7026448669554 Q563.2672897587312,605.0407753023228 562.3607114724449,628.4797637429831 M562.3607114724449,628.4797637429831 L582.5624274830311,591.7026448669554" />
<path d="M374.62672786286726,616.5518369121029 Q384.0206496854866,632.8309781139852 402.6803157405641,635.083325377019 Q393.28639391794474,618.8041841751368 374.62672786286726,616.5518369121029 M374.62672786286726,616.5518369121029 L402.6803157405641,635.083325377019" />
<path d="M473.4015138385832,676.8590159778101 Q478.45786025106827,687.9690339065372 490.37968244154087,690.5899675337853 Q485.3233360290558,679.4799496050583 473.4015138385832,676.8590159778101 M473.4015138385832,676.8590159778101 L490.37968244154087,690.5899675337853" />
<path d="M125.18714057764704,581.837897060288 Q138.90523761278249,562.7043002491268 131.8292183849348,540.2496645343217 Q118.11112134979932,559.3832613454829 125.18714057764704,581.837897060288 M125.18714057764704,581.837897060288 L131.8292183849348,540.2496645343217" />
<path d="M517.0919022868312,651.5420974339751 Q514.1896381681447,664.4948309312057 522.8104664947173,674.5882823244931 Q525.7127306134037,661.6355488272626 517.0919022868312,651.5420974339751 M517.0919022868312,651.5420974339751 L522.8104664947173,674.5882823244931" />
<path d="M562.8069142464612,633.5965335868267 Q555.2567288294413,620.2806267419855 540.0738921033565,618.3312309686969 Q547.6240775203764,631.6471378135379 562.8069142464612,633.5965335868267 M562.8069142464612,633.5965335868267 L540.0738921033565,618.3312309686969" />
<path d="M286.8715130415479,621.3443858561519 Q274.19676534082845,602.0100335632366 251.12443488606448,600.5492203480629 Q263.79918258678396,619.8835726409783 286.8715130415479,621.3443858561519 M286.8715130415479,621.3443858561519 L251.12443488606448,600.5492203480629" />
<path d="M738.9644111683261,622.7566654633328 Q727.367989450418,620.8951477419556 718.9209222425715,629.0553744834559 Q730.5173439604796,630.9168922048331 738.9644111683261,622.7566654633328 M738.9644111683261,622.7566654633328 L718.9209222425715,629.0553744834559" />
<path d="M688.4221113179085,584.5243503381724 Q680.8433145525306,565.6908845484637 661.229263861537,560.4538424869409 Q668.8080606269149,579.2873082766495 688.4221113179085,584.5243503381724 M688.4221113179085,584.5243503381724 L661.229263861537,560.4538424869409" />
<path d="M613.2001993928106,728.8755790040601 Q626.8341455398705,736.8355005939252 641.3824504999985,730.7042966301963 Q627.7485043529385,722.7443750403313 613.2001993928106,728.8755790040601 M613.2001993928106,728.8755790040601 L641.3824504999985,730.7042966301963" />
<path d="M462.06216025917064,639.7022105797214 A8,6 0 0,1 478.06216025917064,639.7022105797214" />
<path d="M462.06216025917064,639.7022105797214 Q460.06216025917064,653.7022105797214 470.06216025917064,657.7022105797214 Q480.06216025917064,653.7022105797214 478.06216025917064,639.7022105797214" />
<line x1="466.06216025917064" y1="637.7022105797214" x2="466.06216025917064" y2="640.7022105797214" />
<line x1="470.06216025917064" y1="636.7022105797214" x2="470.06216025917064" y2="639.7022105797214" />
<line x1="474.06216025917064" y1="637.7022105797214" x2="474.06216025917064" y2="640.7022105797214" />
<path d="M349.5633921824055,591.2348232755762 A8,6 0 0,1 365.5633921824055,591.2348232755762" />
<path d="M349.5633921824055,591.2348232755762 Q347.5633921824055,605.2348232755762 357.5633921824055,609.2348232755762 Q367.5633921824055,605.2348232755762 365.5633921824055,591.2348232755762" />
<line x1="353.5633921824055" y1="589.2348232755762" x2="353.5633921824055" y2="592.2348232755762" />
<line x1="357.5633921824055" y1="588.2348232755762" x2="357.5633921824055" y2="591.2348232755762" />
<line x1="361.5633921824055" y1="589.2348232755762" x2="361.5633921824055" y2="592.2348232755762" />
<path d="M599.6837487962877,650.4922417369598 A8,6 0 0,1 615.6837487962877,650.4922417369598" />
<path d="M599.6837487962877,650.4922417369598 Q597.6837487962877,664.4922417369598 607.6837487962877,668.4922417369598 Q617.6837487962877,664.4922417369598 615.6837487962877,650.4922417369598" />
<line x1="603.6837487962877" y1="648.4922417369598" x2="603.6837487962877" y2="651.4922417369598" />
<line x1="607.6837487962877" y1="647.4922417369598" x2="607.6837487962877" y2="650.4922417369598" />
<line x1="611.6837487962877" y1="648.4922417369598" x2="611.6837487962877" y2="651.4922417369598" />
<path d="M341.2586466197471,727.6742124163305 A8,6 0 0,1 357.2586466197471,727.6742124163305" />
<path d="M341.2586466197471,727.6742124163305 Q339.2586466197471,741.6742124163305 349.2586466197471,745.6742124163305 Q359.2586466197471,741.6742124163305 357.2586466197471,727.6742124163305" />
<line x1="345.2586466197471" y1="725.6742124163305" x2="345.2586466197471" y2="728.6742124163305" />
<line x1="349.2586466197471" y1="724.6742124163305" x2="349.2586466197471" y2="727.6742124163305" />
<line x1="353.2586466197471" y1="725.6742124163305" x2="353.2586466197471" y2="728.6742124163305" />
<path d="M330.08255756095286,653.4877927680386 A8,6 0 0,1 346.08255756095286,653.4877927680386" />
<path d="M330.08255756095286,653.4877927680386 Q328.08255756095286,667.4877927680386 338.08255756095286,671.4877927680386 Q348.08255756095286,667.4877927680386 346.08255756095286,653.4877927680386" />
<line x1="334.08255756095286" y1="651.4877927680386" x2="334.08255756095286" y2="654.4877927680386" />
<line x1="338.08255756095286" y1="650.4877927680386" x2="338.08255756095286" y2="653.4877927680386" />
<line x1="342.08255756095286" y1="651.4877927680386" x2="342.08255756095286" y2="654.4877927680386" />
<path d="M111.82357833518049,700.6763538724523 A8,6 0 0,1 127.82357833518049,700.6763538724523" />
<path d="M111.82357833518049,700.6763538724523 Q109.82357833518049,714.6763538724523 119.82357833518049,718.6763538724523 Q129.82357833518049,714.6763538724523 127.82357833518049,700.6763538724523" />
<line x1="115.82357833518049" y1="698.6763538724523" x2="115.82357833518049" y2="701.6763538724523" />
<line x1="119.82357833518049" y1="697.6763538724523" x2="119.82357833518049" y2="700.6763538724523" />
<line x1="123.82357833518049" y1="698.6763538724523" x2="123.82357833518049" y2="701.6763538724523" />
<path d="M317.2469920415869,642.3902341233476 A8,6 0 0,1 333.2469920415869,642.3902341233476" />
<path d="M317.2469920415869,642.3902341233476 Q315.2469920415869,656.3902341233476 325.2469920415869,660.3902341233476 Q335.2469920415869,656.3902341233476 333.2469920415869,642.3902341233476" />
<line x1="321.2469920415869" y1="640.3902341233476" x2="321.2469920415869" y2="643.3902341233476" />
<line x1="325.2469920415869" y1="639.3902341233476" x2="325.2469920415869" y2="642.3902341233476" />
<line x1="329.2469920415869" y1="640.3902341233476" x2="329.2469920415869" y2="643.3902341233476" />
<path d="M467.37321276531856,710.6848893460677 A8,6 0 0,1 483.37321276531856,710.6848893460677" />
<path d="M467.37321276531856,710.6848893460677 Q465.37321276531856,724.6848893460677 475.37321276531856,728.6848893460677 Q485.37321276531856,724.6848893460677 483.37321276531856,710.6848893460677" />
<line x1="471.37321276531856" y1="708.6848893460677" x2="471.37321276531856" y2="711.6848893460677" />
<line x1="475.37321276531856" y1="707.6848893460677" x2="475.37321276531856" y2="710.6848893460677" />
<line x1="479.37321276531856" y1="708.6848893460677" x2="479.37321276531856" y2="711.6848893460677" />
<line x1="620.4898744639846" y1="690.7390566456495" x2="665.1116109807506" y2="665.7960115712567" />
<line x1="650.5041440674142" y1="653.2153052307808" x2="693.6116570691819" y2="648.5182187560949" />
<line x1="332.13826784131885" y1="689.9820774234664" x2="383.180035931159" y2="705.8460454382722" />
<line x1="725.6512128986896" y1="669.4354801154094" x2="783.889772094323" y2="670.7255293759944" />
<line x1="680.3261153775511" y1="666.8085796915075" x2="713.460426318391" y2="648.5021492147995" />
<line x1="229.43762182205697" y1="655.2936271347977" x2="270.7054718373854" y2="664.0617641345156" />
<line x1="243.57989173715922" y1="667.6728427574717" x2="289.97144763769546" y2="656.5192189001872" />
<line x1="419.69774773316243" y1="680.5623353277914" x2="475.66187770036703" y2="687.1388263713721" />
<line x1="62.741934603771135" y1="736.6250475744018" x2="111.39316763876818" y2="713.2158230827907" />
<line x1="618.4326248415118" y1="688.4898359780105" x2="639.3639344423567" y2="700.189991140579" />
<path d="M30,0 Q50,200 40,400 Q30,500 45,800" />
<path d="M60,0 Q75,250 65,500 Q55,600 70,800" />
<path d="M740,0 Q720,300 735,600 Q745,700 730,800" />
<path d="M770,0 Q755,250 765,500 Q775,650 760,800" />
<circle cx="135.72519043062366" cy="706.6559967274368" r="13.155817265767434" />
<circle cx="386.5594268651301" cy="620.8579550132695" r="7.310056028245069" />
<circle cx="258.3789302579862" cy="674.936860422545" r="8.920908725746823" />
<circle cx="378.4745031767287" cy="684.195481505427" r="6.897206560612848" />
<circle cx="651.3039856695607" cy="733.2175058808341" r="6.441426147186594" />
<circle cx="328.6986189230332" cy="647.5382290291956" r="13.667734488535425" />
</svg>