<svg xmlns="http://www.w3.org/2000/svg" viewBox="0 0 800 800" fill="none" stroke="black" stroke-width="1.5" stroke-linecap="round" stroke-linejoin="round">
<circle cx="400" cy="400" r="375" />
<circle cx="400" cy="400" r="365" />
<path d="M750,400 L616.5063509461097,525 L600,400 L616.5063509461097,275 Z" />
<path d="M700,400 L618.7429987478853,471.0739087062379 L618.7429987478853,328.9260912937621 Z" />
<path d="M517.4038105676658,496.65063509461095 Q571.8653347947321,522.3205080756888 633.8268590217984,535 Q591.8653347947321,487.67949192431126 542.4038105676658,453.34936490538905 Z" />
<path d="M533.0640646055102,489.52627944162884 Q568.8050807568878,507.6210235533031 607.8460969082653,520 Q577.6050807568878,492.3789764466969 544.0640646055102,470.47372055837116 Z" />
<path d="M575,703.1088913245535 L400,650 L500,573.2050807568877 L616.5063509461097,525 Z" />
<path d="M550,659.8076211353316 L447.81968888808467,624.9739481687752 L570.9233098598006,553.9000394625374 Z" />
<path d="M375,550 Q380,610 400,670 Q420,610 425,550 Z" />
<path d="M389,560 Q391.2,600 400,640 Q408.8,600 411,560 Z" />
<path d="M225.00000000000009,703.1088913245535 L183.49364905389032,525 L300.00000000000006,573.2050807568878 L400,650 Z" />
<path d="M250.00000000000006,659.8076211353316 L229.07669014019936,553.9000394625375 L352.1803111119154,624.9739481687753 Z" />
<path d="M257.5961894323342,453.34936490538905 Q208.13466520526788,487.6794919243112 166.17314097820156,535 Q228.13466520526788,522.3205080756888 282.5961894323342,496.65063509461095 Z" />
<path d="M255.93593539448977,470.47372055837116 Q222.39491924311224,492.3789764466969 192.15390309173472,520 Q231.19491924311225,507.6210235533031 266.9359353944898,489.52627944162884 Z" />
<path d="M50,400.00000000000006 L183.49364905389035,275 L200,400 L183.49364905389032,525 Z" />
<path d="M100,400.00000000000006 L181.2570012521147,328.92609129376206 L181.2570012521147,471.07390870623794 Z" />
<path d="M282.5961894323342,303.34936490538905 Q228.13466520526788,277.67949192431126 166.1731409782016,265 Q208.13466520526788,312.32050807568874 257.5961894323342,346.65063509461095 Z" />
<path d="M266.93593539448983,310.47372055837116 Q231.1949192431123,292.3789764466969 192.15390309173475,280 Q222.3949192431123,307.6210235533031 255.93593539448983,329.52627944162884 Z" />
<path d="M224.99999999999986,96.8911086754465 L399.99999999999994,150 L299.9999999999999,226.7949192431123 L183.49364905389035,275 Z" />
<path d="M249.99999999999986,140.19237886466846 L352.1803111119153,175.02605183122472 L229.07669014019933,246.0999605374626 Z" />
<path d="M425,250 Q420,190 399.99999999999994,130 Q380,190 375,250 Z" />
<path d="M410.99999999999994,240 Q408.79999999999995,200 399.99999999999994,160 Q391.19999999999993,200 388.99999999999994,240 Z" />
<path d="M575,96.8911086754465 L616.5063509461096,274.9999999999999 L500,226.79491924311228 L399.99999999999994,150 Z" />
<path d="M550,140.1923788646684 L570.9233098598006,246.09996053746264 L447.81968888808444,175.02605183122466 Z" />
<path d="M542.4038105676657,346.6506350946109 Q591.865334794732,312.3205080756887 633.8268590217983,264.9999999999999 Q571.865334794732,277.6794919243112 517.4038105676657,303.349364905389 Z" />
<path d="M544.0640646055101,329.5262794416288 Q577.6050807568877,307.621023553303 607.8460969082653,279.9999999999999 Q568.8050807568877,292.37897644669687 533.0640646055101,310.4737205583711 Z" />
<polygon points="400,200 573.2050807568878,300 573.2050807568878,500 400,600 226.79491924311225,500 226.79491924311228,300" />
<polygon points="400,250 529.9038105676658,325 529.9038105676658,475 400,550 270.0961894323342,475 270.0961894323342,325" />
<polygon points="400,300 486.6025403784439,350 486.6025403784439,450 400,500 313.3974596215561,450 313.39745962155615,350" />
<line x1="460" y1="400" x2="500" y2="400" />
<line x1="451.9615242270663" y1="430" x2="486.6025403784439" y2="450" />
<line x1="430" y1="451.9615242270663" x2="450" y2="486.60254037844385" />
<line x1="400" y1="460" x2="400" y2="500" />
<line x1="370" y1="451.9615242270663" x2="350" y2="486.6025403784439" />
<line x1="348.0384757729337" y1="430" x2="313.3974596215561" y2="450" />
<line x1="340" y1="400" x2="300" y2="400" />
<line x1="348.0384757729337" y1="370" x2="313.39745962155615" y2="350" />
<line x1="370" y1="348.0384757729337" x2="349.99999999999994" y2="313.39745962155615" />
<line x1="400" y1="340" x2="400" y2="300" />
<line x1="430" y1="348.0384757729337" x2="450" y2="313.39745962155615" />
<line x1="451.9615242270663" y1="370" x2="486.60254037844385" y2="349.99999999999994" />
<circle cx="400" cy="400" r="55" />
<path d="M415,409 Q430,407.2 445,400 Q430,392.8 415,391 Z" />
<path d="M399.70577136594005,417.4903810567666 Q408.7646170927521,429.5807621135332 422.5,438.97114317029974 Q421.2353829072479,422.38076211353314 415.29422863405995,408.4903810567666 Z" />
<path d="M384.70577136594005,408.4903810567666 Q378.7646170927521,422.38076211353314 377.5,438.97114317029974 Q391.2353829072479,429.5807621135332 400.29422863405995,417.4903810567666 Z" />
<path d="M385,391 Q370,392.8 355,400 Q370,407.2 385,409 Z" />
<path d="M400.29422863405995,382.5096189432334 Q391.2353829072479,370.4192378864668 377.5,361.02885682970026 Q378.7646170927521,377.61923788646686 384.70577136594005,391.5096189432334 Z" />
<path d="M415.29422863405995,391.5096189432334 Q421.2353829072479,377.61923788646686 422.5,361.02885682970026 Q408.7646170927521,370.4192378864668 399.70577136594005,382.5096189432334 Z" />
<circle cx="400" cy="400" r="12" />
</svg>