<svg xmlns="http://www.w3.org/2000/svg" viewBox="0 0 800 800" fill="none" stroke="black" stroke-width="1.5" stroke-linecap="round" stroke-linejoin="round">
<circle cx="400" cy="400" r="370" />
<circle cx="400" cy="400" r="360" />
<path d="M600,430 Q670,424 740,400 Q670,376 600,370 Z" />
<path d="M610,412.5 Q665,410 720,400 Q665,390 610,387.5 Z" />
<path d="M573.2954035313047,504.25307244835653 Q640.2630714012852,525.4976355188451 714.1190410538375,530.1123670041305 Q658.6318761548097,481.15141795830334 596.25640947321,448.82030049767934 Z" />
<path d="M589.2311589228066,491.91201495305995 Q641.0012417918401,510.6499049018617 695.6414504036118,522.4586983568288 Q648.6549104391419,492.17231425163595 598.7982447319339,468.8150266402778 Z" />
<path d="M520.2081528017131,562.6345596729059 Q573.9482681718906,607.889393668845 640.4163056034262,640.4163056034262 Q607.889393668845,573.9482681718906 562.6345596729059,520.2081528017131 Z" />
<path d="M539.6535892843432,557.3312588140068 Q580.3122292025696,594.4543648263005 626.2741699796952,626.2741699796952 Q594.4543648263007,580.3122292025696 557.3312588140069,539.6535892843431 Z" />
<path d="M448.8203004976794,596.25640947321 Q481.15141795830334,658.6318761548097 530.1123670041305,714.1190410538375 Q525.4976355188452,640.2630714012852 504.2530724483566,573.2954035313047 Z" />
<path d="M468.8150266402778,598.7982447319339 Q492.17231425163595,648.6549104391419 522.4586983568288,695.6414504036118 Q510.6499049018617,641.0012417918401 491.91201495305995,589.2311589228066 Z" />
<path d="M370,600 Q376,670 400,740 Q424,670 430,600 Z" />
<path d="M387.5,610 Q390,665 400,720 Q410,665 412.5,610 Z" />
<path d="M295.74692755164347,573.2954035313047 Q274.50236448115487,640.2630714012852 269.88763299586947,714.1190410538375 Q318.84858204169666,658.6318761548097 351.17969950232066,596.25640947321 Z" />
<path d="M308.0879850469401,589.2311589228066 Q289.3500950981384,641.0012417918401 277.5413016431713,695.6414504036118 Q307.8276857483641,648.6549104391419 331.1849733597223,598.7982447319339 Z" />
<path d="M237.36544032709406,520.2081528017131 Q192.11060633115505,573.9482681718906 159.58369439657386,640.4163056034262 Q226.05173182810933,607.889393668845 279.7918471982869,562.6345596729059 Z" />
<path d="M242.66874118599318,539.6535892843432 Q205.54563517369945,580.3122292025696 173.7258300203048,626.2741699796952 Q219.6877707974304,594.4543648263007 260.3464107156569,557.3312588140069 Z" />
<path d="M203.74359052678994,448.8203004976794 Q141.36812384519044,481.15141795830334 85.88095894616254,530.1123670041305 Q159.73692859871474,525.4976355188452 226.70459646869534,504.2530724483566 Z" />
<path d="M201.20175526806617,468.8150266402778 Q151.3450895608581,492.17231425163595 104.35854959638823,522.4586983568288 Q158.99875820815993,510.6499049018617 210.76884107719343,491.91201495305995 Z" />
<path d="M200,370 Q130,376 60,400.00000000000006 Q130,424 200,430 Z" />
<path d="M190,387.5 Q135,390 80,400.00000000000006 Q135,410 190,412.5 Z" />
<path d="M226.70459646869529,295.7469275516435 Q159.73692859871466,274.50236448115504 85.88095894616242,269.8876329958697 Q141.36812384519038,318.8485820416968 203.74359052678994,351.1796995023207 Z" />
<path d="M210.76884107719334,308.08798504694016 Q158.99875820815987,289.35009509813847 104.35854959638817,277.54130164317144 Q151.34508956085807,307.8276857483642 201.20175526806614,331.18497335972233 Z" />
<path d="M279.7918471982869,237.36544032709406 Q226.05173182810927,192.11060633115505 159.58369439657378,159.58369439657386 Q192.110606331155,226.05173182810933 237.36544032709406,279.7918471982869 Z" />
<path d="M260.3464107156568,242.66874118599318 Q219.68777079743032,205.54563517369945 173.72583002030473,173.7258300203048 Q205.5456351736994,219.6877707974304 242.66874118599316,260.3464107156569 Z" />
<path d="M351.1796995023207,203.74359052678994 Q318.8485820416968,141.3681238451904 269.8876329958696,85.88095894616248 Q274.5023644811549,159.7369285987147 295.7469275516435,226.70459646869534 Z" />
<path d="M331.1849733597223,201.20175526806614 Q307.8276857483641,151.34508956085807 277.5413016431713,104.35854959638823 Q289.3500950981384,158.99875820815993 308.0879850469401,210.7688410771934 Z" />
<path d="M429.99999999999994,200 Q423.99999999999994,130 399.99999999999994,60 Q375.99999999999994,130 369.99999999999994,200 Z" />
<path d="M412.49999999999994,190 Q409.99999999999994,135 399.99999999999994,80 Q389.99999999999994,135 387.49999999999994,190 Z" />
<path d="M504.2530724483566,226.70459646869537 Q525.4976355188452,159.73692859871477 530.1123670041306,85.88095894616254 Q481.15141795830345,141.36812384519044 448.8203004976794,203.74359052678997 Z" />
<path d="M491.91201495306,210.76884107719343 Q510.6499049018617,158.99875820815996 522.4586983568288,104.35854959638829 Q492.172314251636,151.34508956085813 468.81502664027784,201.20175526806617 Z" />
<path d="M562.634559672906,279.7918471982869 Q607.889393668845,226.05173182810927 640.416305603426,159.58369439657378 Q573.9482681718906,192.110606331155 520.208152801713,237.36544032709406 Z" />
<path d="M557.3312588140068,260.3464107156568 Q594.4543648263005,219.68777079743032 626.2741699796952,173.72583002030473 Q580.3122292025696,205.5456351736994 539.6535892843431,242.66874118599316 Z" />
<path d="M596.25640947321,351.1796995023207 Q658.6318761548097,318.8485820416968 714.1190410538375,269.8876329958696 Q640.2630714012852,274.5023644811549 573.2954035313047,295.7469275516435 Z" />
<path d="M598.7982447319339,331.1849733597223 Q648.6549104391419,307.8276857483641 695.6414504036118,277.5413016431713 Q641.0012417918401,289.3500950981384 589.2311589228066,308.0879850469401 Z" />
<path d="M510.0876706398814,452.79161650380655 Q554.7190185258509,460.0918073151192 602.8444235207044,454.3519994715293 Q564.0365041495417,425.3184775687127 521.7345276694948,409.32495432079844 Z" />
<path d="M523.2409860116562,442.3398082999293 Q555.0994496472355,449.0127607784409 588.3555361263683,450.46971379499155 Q558.8264438967117,435.10342887987827 527.8997288235015,424.95314342672606 Z" />
<path d="M468.9429111656884,500.76271631908304 Q503.94469683442253,529.4005409571382 548.492424049175,548.4924240491749 Q529.4005409571382,503.9446968344224 500.76271631908304,468.9429111656884 Z" />
<path d="M485.55992052357226,498.2878425849301 Q509.81368311827083,519.9960207673571 537.8858223313767,537.8858223313767 Q519.9960207673571,509.81368311827083 498.2878425849301,485.55992052357226 Z" />
<path d="M409.32495432079844,521.7345276694948 Q425.3184775687127,564.0365041495417 454.3519994715293,602.8444235207044 Q460.0918073151192,554.7190185258509 452.79161650380655,510.0876706398814 Z" />
<path d="M424.95314342672606,527.8997288235015 Q435.10342887987827,558.8264438967117 450.46971379499155,588.3555361263683 Q449.0127607784409,555.0994496472355 442.3398082999293,523.2409860116562 Z" />
<path d="M347.20838349619345,510.0876706398814 Q339.9081926848808,554.7190185258509 345.6480005284706,602.8444235207044 Q374.6815224312873,564.0365041495417 390.67504567920156,521.7345276694948 Z" />
<path d="M357.66019170007064,523.2409860116562 Q350.98723922155904,555.0994496472355 349.53028620500845,588.3555361263683 Q364.8965711201217,558.8264438967117 375.0468565732739,527.8997288235015 Z" />
<path d="M299.23728368091696,468.9429111656884 Q270.5994590428618,503.94469683442253 251.50757595082504,548.492424049175 Q296.0553031655775,529.4005409571382 331.0570888343116,500.76271631908304 Z" />
<path d="M301.7121574150699,485.55992052357226 Q280.0039792326429,509.81368311827083 262.11417766862326,537.8858223313767 Q290.18631688172917,519.9960207673571 314.44007947642774,498.2878425849301 Z" />
<path d="M278.2654723305051,409.32495432079844 Q235.96349585045837,425.3184775687127 197.1555764792957,454.35199947152944 Q245.28098147414912,460.0918073151192 289.9123293601185,452.79161650380655 Z" />
<path d="M272.10027117649844,424.9531434267261 Q241.17355610328826,435.1034288798784 211.6444638736317,450.4697137949916 Q244.90055035276458,449.012760778441 276.75901398834384,442.33980829992936 Z" />
<path d="M289.9123293601185,347.2083834961935 Q245.2809814741491,339.90819268488093 197.15557647929563,345.64800052847073 Q235.96349585045834,374.6815224312874 278.2654723305051,390.6750456792016 Z" />
<path d="M276.75901398834384,357.66019170007075 Q244.90055035276455,350.9872392215591 211.64446387363165,349.5302862050085 Q241.17355610328823,364.89657112012173 272.10027117649844,375.046856573274 Z" />
<path d="M331.0570888343116,299.23728368091696 Q296.0553031655775,270.5994590428618 251.507575950825,251.50757595082504 Q270.5994590428618,296.0553031655775 299.23728368091696,331.0570888343116 Z" />
<path d="M314.44007947642774,301.7121574150699 Q290.18631688172917,280.0039792326429 262.1141776686232,262.11417766862326 Q280.00397923264285,290.18631688172917 301.7121574150699,314.44007947642774 Z" />
<path d="M390.67504567920156,278.2654723305051 Q374.6815224312873,235.96349585045834 345.6480005284707,197.15557647929566 Q339.9081926848808,245.2809814741491 347.20838349619345,289.9123293601185 Z" />
<path d="M375.04685657327394,272.10027117649844 Q364.89657112012173,241.17355610328823 349.53028620500845,211.64446387363168 Q350.9872392215591,244.90055035276455 357.6601917000707,276.75901398834384 Z" />
<path d="M452.7916165038066,289.9123293601185 Q460.09180731511924,245.28098147414912 454.35199947152944,197.1555764792957 Q425.31847756871275,235.96349585045837 409.3249543207985,278.2654723305051 Z" />
<path d="M442.33980829992936,276.75901398834384 Q449.012760778441,244.90055035276458 450.4697137949916,211.6444638736317 Q435.1034288798784,241.17355610328826 424.9531434267261,272.10027117649844 Z" />
<path d="M500.76271631908304,331.0570888343116 Q529.4005409571382,296.0553031655775 548.4924240491749,251.507575950825 Q503.9446968344224,270.5994590428618 468.9429111656884,299.23728368091696 Z" />
<path d="M498.28784258493005,314.44007947642774 Q519.9960207673571,290.18631688172917 537.8858223313767,262.1141776686232 Q509.81368311827083,280.00397923264285 485.5599205235722,301.7121574150699 Z" />
<path d="M521.7345276694948,390.67504567920156 Q564.0365041495417,374.6815224312873 602.8444235207044,345.6480005284707 Q554.7190185258509,339.9081926848808 510.0876706398814,347.20838349619345 Z" />
<path d="M527.8997288235015,375.04685657327394 Q558.8264438967117,364.89657112012173 588.3555361263683,349.53028620500845 Q555.0994496472355,350.9872392215591 523.2409860116562,357.6601917000707 Z" />
<path d="M455,417.5 Q485,414 515,400 Q485,386 455,382.5 Z" />
<path d="M426.5165042944955,451.26524163602465 Q450.2045814642449,470.00357133746814 481.31727983645294,481.31727983645294 Q470.00357133746814,450.2045814642449 451.26524163602465,426.5165042944955 Z" />
<path d="M382.5,455 Q386,485 400,515 Q414,485 417.5,455 Z" />
<path d="M348.73475836397535,426.5165042944955 Q329.99642866253186,450.2045814642449 318.68272016354706,481.31727983645294 Q349.7954185357551,470.00357133746814 373.4834957055045,451.26524163602465 Z" />
<path d="M345,382.5 Q315,386 285,400 Q315,414 345,417.5 Z" />
<path d="M373.4834957055044,348.73475836397535 Q349.7954185357551,329.99642866253186 318.682720163547,318.68272016354706 Q329.99642866253174,349.7954185357551 348.7347583639753,373.4834957055045 Z" />
<path d="M417.5,345 Q414,315 400,285 Q386,315 382.5,345 Z" />
<path d="M451.26524163602465,373.4834957055044 Q470.00357133746814,349.7954185357551 481.31727983645294,318.682720163547 Q450.2045814642449,329.99642866253174 426.5165042944955,348.7347583639753 Z" />
<circle cx="400" cy="400" r="340" />
<circle cx="400" cy="400" r="200" />
<circle cx="400" cy="400" r="120" />
<circle cx="400" cy="400" r="55" />
<circle cx="400" cy="400" r="30" />
<path d="M412,407 Q422,405.6 432,400 Q422,394.4 412,393 Z" />
<path d="M399.93782217350895,413.89230484541326 Q406.15025773880717,421.8525588832577 416,427.71281292110206 Q415.84974226119283,416.2525588832577 412.06217782649105,406.89230484541326 Z" />
<path d="M387.93782217350895,406.89230484541326 Q384.15025773880717,416.2525588832577 384,427.71281292110206 Q393.84974226119283,421.8525588832577 400.06217782649105,413.89230484541326 Z" />
<path d="M388,393 Q378,394.4 368,400 Q378,405.6 388,407 Z" />
<path d="M400.06217782649105,386.10769515458674 Q393.84974226119283,378.1474411167423 384,372.28718707889794 Q384.15025773880717,383.7474411167423 387.93782217350895,393.10769515458674 Z" />
<path d="M412.06217782649105,393.10769515458674 Q415.84974226119283,383.7474411167423 416,372.28718707889794 Q406.15025773880717,378.1474411167423 399.93782217350895,386.10769515458674 Z" />
<circle cx="400" cy="400" r="10" />
<circle cx="738.3709217391145" cy="467.3061610955642" r="4" />
<circle cx="686.8570162443781" cy="591.6717303917628" r="4" />
<circle cx="591.6717303917628" cy="686.8570162443781" r="4" />
<circle cx="467.3061610955643" cy="738.3709217391145" r="4" />
<circle cx="332.69383890443584" cy="738.3709217391145" r="4" />
<circle cx="208.3282696082372" cy="686.8570162443781" r="4" />
<circle cx="113.14298375562186" cy="591.6717303917628" r="4" />
<circle cx="61.62907826088548" cy="467.3061610955642" r="4" />
<circle cx="61.62907826088548" cy="332.6938389044359" r="4" />
<circle cx="113.14298375562191" cy="208.3282696082372" r="4" />
<circle cx="208.32826960823698" cy="113.14298375562203" r="4" />
<circle cx="332.6938389044356" cy="61.629078260885535" r="4" />
<circle cx="467.3061610955643" cy="61.62907826088548" r="4" />
<circle cx="591.6717303917626" cy="113.1429837556218" r="4" />
<circle cx="686.8570162443781" cy="208.32826960823724" r="4" />
<circle cx="738.3709217391145" cy="332.6938389044356" r="4" />
</svg>