<svg xmlns="http://www.w3.org/2000/svg" viewBox="0 0 800 800" fill="none" stroke="black" stroke-width="1.5" stroke-linecap="round" stroke-linejoin="round">
<circle cx="400" cy="150" r="60" />
<circle cx="420" cy="135" r="55" fill="white" stroke="black" stroke-width="1.5" />
<path d="M215,415 Q237.5,412 260,400 Q237.5,388 215,385 Z" />
<path d="M190.3694071711969,418.9011026600515 Q200.1754590935187,439.3728232935676 218.54101966249684,457.0633909777092 Q223.00081548460236,431.9564154285689 218.90110266005152,409.63059282880306 Z" />
<path d="M179.04796629998867,396.6815238687629 Q162.6084396834298,412.3337430284684 151.45898033750316,435.2671151375484 Q176.71528573844918,431.7501508934671 196.6815238687629,420.9520337000113 Z" />
<path d="M196.68152386876287,379.0479662999887 Q176.71528573844913,368.2498491065329 151.45898033750314,364.7328848624516 Q162.6084396834298,387.6662569715316 179.0479662999887,403.3184761312371 Z" />
<path d="M218.90110266005152,390.3694071711969 Q223.00081548460236,368.0435845714311 218.54101966249684,342.9366090222908 Q200.17545909351867,360.62717670643235 190.3694071711969,381.09889733994845 Z" />
<circle cx="200" cy="400" r="15" />
<circle cx="207.28115294937453" cy="405.2900672706323" r="2" />
<circle cx="197.21884705062547" cy="408.55950864665635" r="2" />
<circle cx="191" cy="400" r="2" />
<circle cx="197.21884705062547" cy="391.44049135334365" r="2" />
<circle cx="207.28115294937453" cy="394.7099327293677" r="2" />
<path d="M612,362.5 Q632,360 652,350 Q632,340 612,337.5 Z" />
<path d="M595.1746824526945,366.64230484541326 Q607.3397459621556,382.712812921102 626,395.0333209967908 Q624.6602540378444,372.712812921102 616.8253175473055,354.14230484541326 Z" />
<path d="M583.1746824526945,354.14230484541326 Q575.3397459621556,372.712812921102 574,395.0333209967908 Q592.6602540378444,382.712812921102 604.8253175473055,366.64230484541326 Z" />
<path d="M588,337.5 Q568,340 548,350 Q568,360 588,362.5 Z" />
<path d="M604.8253175473055,333.35769515458674 Q592.6602540378444,317.287187078898 574,304.9666790032092 Q575.3397459621556,327.287187078898 583.1746824526945,345.85769515458674 Z" />
<path d="M616.8253175473055,345.85769515458674 Q624.6602540378444,327.287187078898 626,304.9666790032092 Q607.3397459621556,317.287187078898 595.1746824526945,333.35769515458674 Z" />
<circle cx="600" cy="350" r="12" />
<circle cx="606.235382907248" cy="353.6" r="2" />
<circle cx="600" cy="357.2" r="2" />
<circle cx="593.764617092752" cy="353.6" r="2" />
<circle cx="593.764617092752" cy="346.4" r="2" />
<circle cx="600" cy="342.8" r="2" />
<circle cx="606.235382907248" cy="346.4" r="2" />
<path d="M368,617.5 Q393,614 418,600 Q393,586 368,582.5 Z" />
<path d="M338.91881686358386,622.5268146948742 Q349.9729395299906,645.2216681219408 371.0131556174964,664.6718431080704 Q376.6025219862549,636.5691922794423 372.20579493391426,611.7112198917512 Z" />
<path d="M325.15145218613264,596.422337139703 Q306.9832757097826,613.9485279273271 294.9868443825036,639.9693971558881 Q323.4412627739719,636.6010037698255 345.72393601636924,624.7379319428261 Z" />
<path d="M345.72393601636924,575.2620680571739 Q323.4412627739719,563.3989962301745 294.9868443825036,560.0306028441119 Q306.9832757097826,586.0514720726729 325.15145218613264,603.577662860297 Z" />
<path d="M372.20579493391426,588.2887801082488 Q376.6025219862549,563.4308077205577 371.0131556174964,535.3281568919296 Q349.9729395299906,554.7783318780592 338.91881686358386,577.4731853051258 Z" />
<circle cx="350" cy="600" r="18" />
<circle cx="358.73738353924944" cy="606.3480807247587" r="2" />
<circle cx="346.66261646075054" cy="610.2714103759877" r="2" />
<circle cx="339.2" cy="600" r="2" />
<circle cx="346.66261646075054" cy="589.7285896240123" r="2" />
<circle cx="358.73738353924944" cy="593.6519192752413" r="2" />
<path d="M510,564 Q527.5,561.2 545,550 Q527.5,538.8 510,536 Z" />
<path d="M486,560 Q488.8,577.5 500,595 Q511.2,577.5 514,560 Z" />
<path d="M490,536 Q472.5,538.8 455,550 Q472.5,561.2 490,564 Z" />
<path d="M514,540 Q511.2,522.5 500,505 Q488.8,522.5 486,540 Z" />
<circle cx="500" cy="550" r="10" />
<circle cx="504.24264068711926" cy="554.2426406871193" r="2" />
<circle cx="495.75735931288074" cy="554.2426406871193" r="2" />
<circle cx="495.75735931288074" cy="545.7573593128807" r="2" />
<circle cx="504.24264068711926" cy="545.7573593128807" r="2" />
<path d="M162,613 Q181,610.4 200,600 Q181,589.6 162,587 Z" />
<path d="M141.34446922066238,615.4298991224161 Q149.6885390561538,632.6965287466492 165.45084971874738,647.5528258147576 Q169.47051459509296,626.2689752636503 166.07193864433637,607.3954572686675 Z" />
<path d="M132.65058778769847,596.5362021006354 Q118.8075065505349,609.8075660795672 109.54915028125264,629.3892626146237 Q131.03343979821835,626.6351195625662 147.93300434730278,617.570643954384 Z" />
<path d="M147.93300434730278,582.429356045616 Q131.03343979821835,573.3648804374338 109.54915028125262,570.6107373853763 Q118.8075065505349,590.1924339204328 132.65058778769847,603.4637978993646 Z" />
<path d="M166.07193864433637,592.6045427313325 Q169.47051459509294,573.7310247363497 165.45084971874735,552.4471741852424 Q149.6885390561538,567.3034712533508 141.34446922066238,584.5701008775839 Z" />
<circle cx="150" cy="600" r="12" />
<circle cx="155.82492235949962" cy="604.2320538165058" r="2" />
<circle cx="147.77507764050037" cy="606.8476069173252" r="2" />
<circle cx="142.8" cy="600" r="2" />
<circle cx="147.77507764050037" cy="593.1523930826748" r="2" />
<circle cx="155.82492235949962" cy="595.7679461834942" r="2" />
<path d="M660,591 Q676,588.8 692,580 Q676,571.2 660,569 Z" />
<path d="M639,590 Q641.2,606 650,622 Q658.8,606 661,590 Z" />
<path d="M640,569 Q624,571.2 608,580 Q624,588.8 640,591 Z" />
<path d="M661,570 Q658.8,554 650,538 Q641.2,554 639,570 Z" />
<circle cx="650" cy="580" r="10" />
<circle cx="654.2426406871193" cy="584.2426406871193" r="2" />
<circle cx="645.7573593128807" cy="584.2426406871193" r="2" />
<circle cx="645.7573593128807" cy="575.7573593128807" r="2" />
<circle cx="654.2426406871193" cy="575.7573593128807" r="2" />
<path d="M200,415 Q185,460 205,500" />
<path d="M195,450 Q208.82531754730547,448.94615242270663 216.65063509461098,437.5 Q202.82531754730547,438.55384757729337 195,450 M195,450 L216.65063509461098,437.5" />
<path d="M205,470 Q197.17468245269453,458.55384757729337 183.34936490538902,457.5 Q191.17468245269453,468.94615242270663 205,470 M205,470 L183.34936490538902,457.5" />
<path d="M600,365 Q585,410 605,450" />
<path d="M595,400 Q608.8253175473055,398.94615242270663 616.650635094611,387.5 Q602.8253175473055,388.55384757729337 595,400 M595,400 L616.650635094611,387.5" />
<path d="M605,420 Q597.1746824526945,408.55384757729337 583.349364905389,407.5 Q591.1746824526945,418.94615242270663 605,420 M605,420 L583.349364905389,407.5" />
<path d="M350,615 Q335,660 355,700" />
<path d="M345,650 Q358.8253175473055,648.9461524227066 366.65063509461095,637.5 Q352.8253175473055,638.5538475772934 345,650 M345,650 L366.65063509461095,637.5" />
<path d="M355,670 Q347.1746824526945,658.5538475772934 333.34936490538905,657.5 Q341.1746824526945,668.9461524227066 355,670 M355,670 L333.34936490538905,657.5" />
<path d="M500,565 Q485,610 505,650" />
<path d="M495,600 Q508.8253175473055,598.9461524227066 516.650635094611,587.5 Q502.8253175473055,588.5538475772934 495,600 M495,600 L516.650635094611,587.5" />
<path d="M505,620 Q497.1746824526945,608.5538475772934 483.34936490538905,607.5 Q491.1746824526945,618.9461524227066 505,620 M505,620 L483.34936490538905,607.5" />
<path d="M150,615 Q135,660 155,700" />
<path d="M145,650 Q158.82531754730547,648.9461524227066 166.65063509461098,637.5 Q152.82531754730547,638.5538475772934 145,650 M145,650 L166.65063509461098,637.5" />
<path d="M155,670 Q147.17468245269453,658.5538475772934 133.34936490538902,657.5 Q141.17468245269453,668.9461524227066 155,670 M155,670 L133.34936490538902,657.5" />
<path d="M650,595 Q635,640 655,680" />
<path d="M645,630 Q658.8253175473055,628.9461524227066 666.650635094611,617.5 Q652.8253175473055,618.5538475772934 645,630 M645,630 L666.650635094611,617.5" />
<path d="M655,650 Q647.1746824526945,638.5538475772934 633.349364905389,637.5 Q641.1746824526945,648.9461524227066 655,650 M655,650 L633.349364905389,637.5" />
<line x1="45.33218212549778" y1="82.10242165448369" x2="55.511499829135374" y2="82.10242165448369" />
<line x1="50.42184097731658" y1="77.0127628026649" x2="50.42184097731658" y2="87.19208050630249" />
<line x1="46.85907978104342" y1="78.53966045821053" x2="53.984602173589735" y2="85.66518285075685" />
<line x1="53.984602173589735" y1="78.53966045821053" x2="46.85907978104342" y2="85.66518285075685" />
<line x1="262.0829663677914" y1="55.76932007052872" x2="280.40125453416374" y2="55.76932007052872" />
<line x1="271.2421104509776" y1="46.61017598734254" x2="271.2421104509776" y2="64.92846415371491" />
<line x1="264.83070959274727" y1="49.35791921229839" x2="277.6535113092079" y2="62.18072092875905" />
<line x1="277.6535113092079" y1="49.35791921229839" x2="264.83070959274727" y2="62.18072092875905" />
<line x1="479.86987434315483" y1="118.14579963045735" x2="491.5397533323055" y2="118.14579963045735" />
<line x1="485.70481383773017" y1="112.31086013588202" x2="485.70481383773017" y2="123.98073912503267" />
<line x1="481.62035619152743" y1="114.06134198425463" x2="489.7892714839329" y2="122.23025727666007" />
<line x1="489.7892714839329" y1="114.06134198425463" x2="481.62035619152743" y2="122.23025727666007" />
<line x1="719.9767273058898" y1="182.41499162503985" x2="739.9174550966521" y2="182.41499162503985" />
<line x1="729.947091201271" y1="172.44462772965863" x2="729.947091201271" y2="192.38535552042106" />
<line x1="722.9678364745041" y1="175.435736898273" x2="736.9263459280378" y2="189.3942463518067" />
<line x1="736.9263459280378" y1="175.435736898273" x2="722.9678364745041" y2="189.3942463518067" />
<line x1="734.3328800632925" y1="215.51312761429057" x2="743.731430839497" y2="215.51312761429057" />
<line x1="739.0321554513947" y1="210.81385222618826" x2="739.0321554513947" y2="220.21240300239288" />
<line x1="735.7426626797231" y1="212.22363484261896" x2="742.3216482230663" y2="218.80262038596217" />
<line x1="742.3216482230663" y1="212.22363484261896" x2="735.7426626797231" y2="218.80262038596217" />
<line x1="593.2838586673922" y1="219.62564344948683" x2="608.3969827242167" y2="219.62564344948683" />
<line x1="600.8404206958045" y1="212.06908142107454" x2="600.8404206958045" y2="227.18220547789912" />
<line x1="595.5508272759158" y1="214.33605002959823" x2="606.1300141156931" y2="224.91523686937543" />
<line x1="606.1300141156931" y1="214.33605002959823" x2="595.5508272759158" y2="224.91523686937543" />
<line x1="411.22505533623047" y1="86.71307213298331" x2="420.9820957304743" y2="86.71307213298331" />
<line x1="416.1035755333524" y1="81.8345519358614" x2="416.1035755333524" y2="91.59159233010523" />
<line x1="412.68861139536705" y1="83.29810799499798" x2="419.51853967133775" y2="90.12803627096865" />
<line x1="419.51853967133775" y1="83.29810799499798" x2="412.68861139536705" y2="90.12803627096865" />
<line x1="659.187535628851" y1="137.80037491843137" x2="674.9108567553674" y2="137.80037491843137" />
<line x1="667.0491961921092" y1="129.93871435517323" x2="667.0491961921092" y2="145.66203548168951" />
<line x1="661.5460337978285" y1="132.29721252415067" x2="672.5523585863899" y2="143.30353731271208" />
<line x1="672.5523585863899" y1="132.29721252415067" x2="661.5460337978285" y2="143.30353731271208" />
<line x1="153.90761860917098" y1="193.37896848412134" x2="162.88317766402213" y2="193.37896848412134" />
<line x1="158.39539813659655" y1="188.89118895669577" x2="158.39539813659655" y2="197.86674801154692" />
<line x1="155.25395246739868" y1="190.23752281492347" x2="161.53684380579443" y2="196.52041415331922" />
<line x1="161.53684380579443" y1="190.23752281492347" x2="155.25395246739868" y2="196.52041415331922" />
<line x1="286.28201306358164" y1="57.9876192686964" x2="306.1821223303509" y2="57.9876192686964" />
<line x1="296.2320676969663" y1="48.03756463531178" x2="296.2320676969663" y2="67.93767390208102" />
<line x1="289.26702945359705" y1="51.02258102532716" x2="303.1971059403355" y2="64.95265751206563" />
<line x1="303.1971059403355" y1="51.02258102532716" x2="289.26702945359705" y2="64.95265751206563" />
<line x1="111.03948002684812" y1="222.31226390908682" x2="121.54604616812061" y2="222.31226390908682" />
<line x1="116.29276309748437" y1="217.05898083845057" x2="116.29276309748437" y2="227.56554697972308" />
<line x1="112.61546494803899" y1="218.63496575964146" x2="119.97006124692975" y2="225.9895620585322" />
<line x1="119.97006124692975" y1="218.63496575964146" x2="112.61546494803899" y2="225.9895620585322" />
<line x1="502.69307626010203" y1="219.5762782307121" x2="513.9815012002191" y2="219.5762782307121" />
<line x1="508.3372887301606" y1="213.93206576065353" x2="508.3372887301606" y2="225.22049070077065" />
<line x1="504.3863400011196" y1="215.6253295016711" x2="512.2882374592016" y2="223.52722695975308" />
<line x1="512.2882374592016" y1="215.6253295016711" x2="504.3863400011196" y2="223.52722695975308" />
<line x1="543.3595369303222" y1="110.90185447680005" x2="555.0780811599251" y2="110.90185447680005" />
<line x1="549.2188090451236" y1="105.04258236199858" x2="549.2188090451236" y2="116.76112659160152" />
<line x1="545.1173185647626" y1="106.80036399643902" x2="553.3202995254846" y2="115.00334495716109" />
<line x1="553.3202995254846" y1="106.80036399643902" x2="545.1173185647626" y2="115.00334495716109" />
<line x1="133.8161195980535" y1="55.49854769417881" x2="149.69258405798354" y2="55.49854769417881" />
<line x1="141.7543518280185" y1="47.56031546421379" x2="141.7543518280185" y2="63.436779924143835" />
<line x1="136.19758926704299" y1="49.9417851332033" x2="147.31111438899404" y2="61.055310255154325" />
<line x1="147.31111438899404" y1="49.9417851332033" x2="136.19758926704299" y2="61.055310255154325" />
<line x1="496.3940201535765" y1="52.099823325034066" x2="506.3971832212034" y2="52.099823325034066" />
<line x1="501.39560168738996" y1="47.09824179122061" x2="501.39560168738996" y2="57.10140485884752" />
<line x1="497.89449461372055" y1="48.59871625136464" x2="504.89670876105936" y2="55.60093039870349" />
<line x1="504.89670876105936" y1="48.59871625136464" x2="497.89449461372055" y2="55.60093039870349" />
<line x1="463.034397401879" y1="208.9683234076652" x2="472.5037842006458" y2="208.9683234076652" />
<line x1="467.7690908012624" y1="204.2336300082818" x2="467.7690908012624" y2="213.70301680704858" />
<line x1="464.454805421694" y1="205.6540380280968" x2="471.0833761808308" y2="212.28260878723358" />
<line x1="471.0833761808308" y1="205.6540380280968" x2="464.454805421694" y2="212.28260878723358" />
<line x1="744.9466212130586" y1="200.91955873735208" x2="753.187795965176" y2="200.91955873735208" />
<line x1="749.0672085891173" y1="196.79897136129344" x2="749.0672085891173" y2="205.0401461134107" />
<line x1="746.1827974258763" y1="198.03514757411102" x2="751.9516197523583" y2="203.80396990059313" />
<line x1="751.9516197523583" y1="198.03514757411102" x2="746.1827974258763" y2="203.80396990059313" />
<line x1="594.7351734645061" y1="127.15784823722937" x2="604.749093900201" y2="127.15784823722937" />
<line x1="599.7421336823536" y1="122.15088801938192" x2="599.7421336823536" y2="132.16480845507684" />
<line x1="596.2372615298603" y1="123.65297608473615" x2="603.2470058348468" y2="130.66272038972258" />
<line x1="603.2470058348468" y1="123.65297608473615" x2="596.2372615298603" y2="130.66272038972258" />
<line x1="507.6113535478816" y1="255.26360797720366" x2="521.1534154481751" y2="255.26360797720366" />
<line x1="514.3823844980284" y1="248.4925770270569" x2="514.3823844980284" y2="262.03463892735044" />
<line x1="509.6426628329257" y1="250.52388631210093" x2="519.1221061631311" y2="260.00332964230637" />
<line x1="519.1221061631311" y1="250.52388631210093" x2="509.6426628329257" y2="260.00332964230637" />
<line x1="125.69312561088532" y1="52.255956528015396" x2="141.65456426297737" y2="52.255956528015396" />
<line x1="133.67384493693135" y1="44.27523720196936" x2="133.67384493693135" y2="60.23667585406143" />
<line x1="128.08734140869913" y1="46.669452999783175" x2="139.26034846516356" y2="57.84246005624762" />
<line x1="139.26034846516356" y1="46.669452999783175" x2="128.08734140869913" y2="57.84246005624762" />
<line x1="502.2747896083396" y1="262.06572380574954" x2="519.3285640127292" y2="262.06572380574954" />
<line x1="510.8016768105344" y1="253.53883660355476" x2="510.8016768105344" y2="270.59261100794436" />
<line x1="504.83285576899806" y1="256.0969027642132" x2="516.7704978520708" y2="268.0345448472859" />
<line x1="516.7704978520708" y1="256.0969027642132" x2="504.83285576899806" y2="268.0345448472859" />
<line x1="441.6583000381089" y1="292.86065634140806" x2="450.0927569569021" y2="292.86065634140806" />
<line x1="445.8755284975055" y1="288.64342788201145" x2="445.8755284975055" y2="297.07788480080467" />
<line x1="442.92346857592787" y1="289.9085964198304" x2="448.82758841908316" y2="295.8127162629857" />
<line x1="448.82758841908316" y1="289.9085964198304" x2="442.92346857592787" y2="295.8127162629857" />
<line x1="385.3218556664156" y1="296.60822644048204" x2="405.05602262919393" y2="296.60822644048204" />
<line x1="395.1889391478048" y1="286.7411429590929" x2="395.1889391478048" y2="306.4753099218712" />
<line x1="388.28198071083233" y1="289.7012680035096" x2="402.0958975847772" y2="303.5151848774545" />
<line x1="402.0958975847772" y1="289.7012680035096" x2="388.28198071083233" y2="303.5151848774545" />
<line x1="517.6014814587325" y1="188.61157466993814" x2="532.548826228407" y2="188.61157466993814" />
<line x1="525.0751538435698" y1="181.1379022851008" x2="525.0751538435698" y2="196.08524705477546" />
<line x1="519.8435831741837" y1="183.380004000552" x2="530.3067245129558" y2="193.84314533932428" />
<line x1="530.3067245129558" y1="183.380004000552" x2="519.8435831741837" y2="193.84314533932428" />
<line x1="275.9657394252398" y1="140.9857580819966" x2="293.4523311978693" y2="140.9857580819966" />
<line x1="284.70903531155454" y1="132.24246219568187" x2="284.70903531155454" y2="149.72905396831135" />
<line x1="278.58872819113424" y1="134.86545096157627" x2="290.82934243197485" y2="147.10606520241694" />
<line x1="290.82934243197485" y1="134.86545096157627" x2="278.58872819113424" y2="147.10606520241694" />
<path d="M30,720 Q200,690 400,710 Q600,730 770,700" />
</svg>