<svg xmlns="http://www.w3.org/2000/svg" viewBox="0 0 800 800" fill="none" stroke="black" stroke-width="1.5" stroke-linecap="round" stroke-linejoin="round">
<path d="M420,414 Q437.5,411.2 455,400 Q437.5,388.8 420,386 Z" />
<path d="M392.8655486593668,423.34736824715236 Q400.9363043065548,439.12560969806765 416.9959346906221,452.3081083962334 Q422.2399702715663,432.20362902406885 419.4951311156311,414.6948924046538 Z" />
<path d="M375.59066658040643,400.4294671246002 Q363.07866788526377,412.9809566239683 355.5040653093779,432.328188876086 Q376.2450575366152,431.1029372979672 392.04865364459573,423.08194296709877 Z" />
<path d="M392.0486536445957,376.91805703290123 Q376.24505753661515,368.8970627020328 355.5040653093779,367.671811123914 Q363.07866788526377,387.0190433760317 375.5906665804064,399.5705328753998 Z" />
<path d="M419.49513111563107,385.3051075953462 Q422.2399702715662,367.7963709759311 416.9959346906221,347.6918916037665 Q400.9363043065548,360.87439030193235 392.86554865936677,376.65263175284764 Z" />
<path d="M444.0257770702618,428.87872838889564 Q465.64728518431514,431.255782631846 489.83110184488334,424.07017119453445 Q472.4801079750216,405.75534081781456 452.566805558645,397.00317612135643 Z" />
<path d="M404.8713239941324,452.42633119477455 Q416.4936579613777,470.8127760157239 437.1899582617359,485.24028979590776 Q440.6909015163452,460.25562657368266 435.1178784378416,439.22989439222306 Z" />
<path d="M362.04866459352087,436.49583730872496 Q354.91996988421516,457.0463047423752 356.5440175706052,482.22273159592874 Q378.26061627273697,469.38219652878405 391.224472579173,451.91570204173604 Z" />
<path d="M347.8041348201475,393.0832335497965 Q327.2924639492694,400.32280246546907 308.6213179893042,417.2897794661511 Q332.2005303783704,426.26255735882785 353.93921785652367,425.507927166495 Z" />
<path d="M372.8641561288164,354.87909600419397 Q354.41521562397133,343.3562233480943 329.5086297474729,339.3372707511347 Q337.19482796622896,363.36667683913436 351.33867155663836,379.89216286799393 Z" />
<path d="M418.3580213428249,350.6519194661394 Q415.8642396939642,329.043563372077 403.47738106769833,307.06503445467894 Q389.4827010875505,328.056435843182 385.3810980848078,349.4180100550207 Z" />
<path d="M450.0279220502962,383.5848540874749 Q465.36716770288695,368.16254742441464 474.8275935183001,344.77472274166433 Q449.69031480374656,346.92116603857465 430.43185592637064,357.0331273551749 Z" />
<path d="M459.7820323027551,456.4544826719043 Q483.76568009925825,465.91358613752345 513.4493278957615,465.5 Q498.9656800992583,439.58641386247655 478.7820323027551,423.5455173280957 Z" />
<path d="M409.5074516711212,481.67379238606037 Q421.79979728491224,504.3362776714635 444.8046387756626,523.099733322954 Q450.36645295680387,493.9388653143631 445.2157712609858,468.67702693968494 Z" />
<path d="M354.7842287390142,468.67702693968494 Q349.63354704319613,493.9388653143631 355.1953612243374,523.099733322954 Q378.20020271508776,504.3362776714635 390.4925483288788,481.67379238606037 Z" />
<path d="M321.2179676972449,423.5455173280957 Q301.0343199007417,439.58641386247655 286.5506721042385,465.5 Q316.23431990074175,465.91358613752345 340.2179676972449,456.4544826719043 Z" />
<path d="M324.514695134695,367.3967984794136 Q298.74223435774934,366.71103941035324 270.99018435540074,377.2520887256321 Q293.46332975667474,396.6491951019244 317.9160643833517,404.8194930938775 Z" />
<path d="M363.1318356443374,326.5034799664375 Q343.82978271347855,309.41193958371247 315.7948231310633,299.6481779514139 Q320.5420316426616,328.95268291818326 334.02214680581625,350.929409134526 Z" />
<path d="M419,320 Q415.2,294.5 400,269 Q384.8,294.5 381,320 Z" />
<path d="M465.9778531941837,350.929409134526 Q479.45796835733836,328.9526829181832 484.20517686893663,299.64817795141386 Q456.1702172865214,309.4119395837124 436.86816435566254,326.5034799664375 Z" />
<path d="M482.0839356166484,404.81949309387744 Q506.5366702433254,396.6491951019243 529.0098156445993,377.252088725632 Q501.25776564225055,366.7110394103532 475.48530486530495,367.3967984794135 Z" />
<path d="M462.57895013500945,492.984541726031 Q486.4791593391148,510.80363261193196 519.5010460205266,519.5010460205265 Q510.803632611932,486.47915933911474 492.984541726031,462.57895013500945 Z" />
<path d="M402.37352423244755,512.0563089822166 Q412.8459317979363,539.968110783288 435.9235339344531,565.137820349126 Q446.4597839873442,532.6558648226655 444.3908394692074,502.91600153143855 Z" />
<path d="M341.4145211566043,495.55098988859316 Q335.1342116759299,524.6937027483623 340.9405536477524,558.3445035249597 Q367.36528221592164,536.7152705265712 381.7033593315941,510.5779496113544 Z" />
<path d="M299.0559936683264,448.7089066363745 Q278.0169210270566,469.82992513443395 264.70853028378315,501.27792564041766 Q298.6320727550469,497.3685438222319 324.82493332831433,483.1321799961219 Z" />
<path d="M288.7464749540886,386.4020896877951 Q259.6283960608429,392.7956396849966 231.43059263086715,412.0563219606703 Q262.08246396289644,427.1079924275893 291.81405983165564,429.292530616036 Z" />
<path d="M313.759164362083,328.41251318509774 Q285.8068635269527,318.0486877319953 251.67225076313377,319.00692124431043 Q269.3206983837829,348.2408449731089 293.15145793312064,366.1527097364898 Z" />
<path d="M366.15270973648984,293.15145793312064 Q348.24084497310895,269.3206983837828 319.0069212443105,251.67225076313375 Q318.04868773199536,285.8068635269527 328.4125131850978,313.759164362083 Z" />
<path d="M429.292530616036,291.81405983165564 Q427.1079924275893,262.08246396289644 412.0563219606703,231.43059263086715 Q392.7956396849966,259.6283960608429 386.4020896877951,288.7464749540886 Z" />
<path d="M483.1321799961219,324.82493332831433 Q497.3685438222319,298.6320727550469 501.2779256404176,264.70853028378303 Q469.8299251344339,278.01692102705647 448.70890663637437,299.0559936683264 Z" />
<path d="M510.5779496113544,381.70335933159413 Q536.7152705265713,367.36528221592175 558.3445035249598,340.94055364775244 Q524.6937027483623,335.1342116759299 495.55098988859316,341.41452115660434 Z" />
<path d="M502.91600153143855,444.3908394692074 Q532.6558648226655,446.4597839873442 565.137820349126,435.9235339344531 Q539.968110783288,412.8459317979363 512.0563089822165,402.37352423244755 Z" />
<circle cx="400" cy="400" r="15" />
<path d="M190,189 Q201,187.2 212,180 Q201,172.8 190,171 Z" />
<path d="M174.5306612970931,192.29171811232607 Q179.6417499645488,202.19710920169786 189.88854381999832,210.43380852144492 Q193.336963799199,197.7472644826986 191.64967859040587,186.729412213577 Z" />
<path d="M166.6197627856183,178.5966995735502 Q158.77858930162031,186.51856793864232 154.11145618000168,198.80912807335915 Q167.2426969346319,198.16841265764157 177.1998973268828,193.15900547229927 Z" />
<path d="M177.19989732688276,166.84099452770073 Q167.24269693463188,161.83158734235843 154.11145618000168,161.19087192664085 Q158.77858930162031,173.48143206135768 166.61976278561826,181.4033004264498 Z" />
<path d="M191.64967859040584,173.270587786423 Q193.336963799199,162.2527355173014 189.88854381999832,149.56619147855508 Q179.64174996454878,157.80289079830214 174.53066129709308,167.70828188767393 Z" />
<path d="M202.7201818770859,199.44333653137076 Q216.12427455867956,202.08725396261687 231.68309414322496,198.81110788291178 Q221.87021296655084,186.30041793341363 209.90260488692496,179.70979149486666 Z" />
<path d="M174.52166756804587,209.39792294984457 Q178.9340142478751,222.32816644240884 189.55064977168118,234.16442641567144 Q195.47878449848014,219.4108770576044 195.20263038130224,205.75131121883905 Z" />
<path d="M151.80148569095996,189.95458641847384 Q142.80973968919548,200.24091247979194 137.86755562845622,215.35331853275966 Q153.60857153192936,213.11045912419078 165.30002549437728,206.04151972397236 Z" />
<path d="M157.2798181229141,160.55666346862924 Q143.87572544132044,157.9127460373831 128.31690585677504,161.18889211708822 Q138.12978703344916,173.6995820665864 150.09739511307504,180.29020850513334 Z" />
<path d="M185.47833243195413,150.60207705015543 Q181.0659857521249,137.67183355759116 170.44935022831882,125.83557358432856 Q164.52121550151986,140.5891229423956 164.79736961869776,154.24868878116095 Z" />
<path d="M208.19851430904004,170.04541358152616 Q217.19026031080452,159.75908752020803 222.13244437154378,144.6466814672403 Q206.39142846807064,146.8895408758092 194.69997450562272,153.95848027602764 Z" />
<path d="M207.52459306723452,218.76076336300855 Q221.32399442038584,227.20685845450762 239.75146656328027,230.13743355555005 Q233.6655165263674,212.49880514662323 222.95149569971144,200.37569672815306 Z" />
<path d="M166.85691799603885,225.6865340711807 Q168.8572809650316,241.7413946433651 178.0554060444303,257.9757561960637 Q188.0513132594473,242.22006392473614 190.84945836405845,226.28487067289444 Z" />
<path d="M136.08625174383982,198.2094127882969 Q124.7812622130542,209.78340137083956 117.82366443661203,227.09674400538722 Q136.37430689130338,225.08834550951963 150.5775575916513,217.34059296164702 Z" />
<path d="M138.38353360574592,157.02023227149758 Q122.28607927162396,155.39789939540267 104.4119716741319,160.75292298015714 Q117.54833723597035,174.00418329100097 132.4613560611789,180.27808714099544 Z" />
<path d="M172.01886348373193,133.1352855560957 Q163.25065578809415,119.53828096662241 147.9196059558123,108.9025435196895 Q145.74974342371002,127.43499334673015 150.1427230282518,143.00617603123038 Z" />
<path d="M211.66415194398314,144.5404246829104 Q216.82783012048625,129.20757016427933 215.58443127354678,110.58999891270548 Q199.74229139130605,120.4483255430986 190.3072285325079,133.5913689064345 Z" />
<path d="M227.4656881594258,182.6473472670102 Q242.67289722132395,177.12459500498332 256.45345405218643,164.5446008304469 Q238.86849127189546,158.30528323829125 222.71018072264022,159.12320755864513 Z" />
<circle cx="180" cy="180" r="8" />
<path d="M630,189 Q641,187.2 652,180 Q641,172.8 630,171 Z" />
<path d="M614.5306612970932,192.29171811232607 Q619.6417499645488,202.19710920169786 629.8885438199983,210.43380852144492 Q633.336963799199,197.7472644826986 631.6496785904059,186.729412213577 Z" />
<path d="M606.6197627856183,178.5966995735502 Q598.7785893016203,186.51856793864232 594.1114561800017,198.80912807335915 Q607.2426969346319,198.16841265764157 617.1998973268827,193.15900547229927 Z" />
<path d="M617.1998973268827,166.84099452770073 Q607.2426969346319,161.83158734235843 594.1114561800017,161.19087192664085 Q598.7785893016203,173.48143206135768 606.6197627856183,181.4033004264498 Z" />
<path d="M631.6496785904059,173.270587786423 Q633.336963799199,162.2527355173014 629.8885438199983,149.56619147855508 Q619.6417499645488,157.80289079830214 614.5306612970932,167.70828188767393 Z" />
<path d="M642.7201818770859,199.44333653137076 Q656.1242745586795,202.08725396261687 671.6830941432249,198.81110788291178 Q661.8702129665509,186.30041793341363 649.902604886925,179.70979149486666 Z" />
<path d="M614.5216675680458,209.39792294984457 Q618.934014247875,222.32816644240884 629.5506497716812,234.16442641567144 Q635.4787844984801,219.4108770576044 635.2026303813022,205.75131121883905 Z" />
<path d="M591.8014856909599,189.95458641847384 Q582.8097396891955,200.24091247979194 577.8675556284562,215.35331853275966 Q593.6085715319292,213.11045912419078 605.3000254943772,206.04151972397236 Z" />
<path d="M597.2798181229141,160.55666346862924 Q583.8757254413205,157.9127460373831 568.3169058567751,161.18889211708822 Q578.1297870334491,173.6995820665864 590.097395113075,180.29020850513334 Z" />
<path d="M625.4783324319542,150.60207705015543 Q621.065985752125,137.67183355759116 610.4493502283188,125.83557358432856 Q604.5212155015199,140.5891229423956 604.7973696186978,154.24868878116095 Z" />
<path d="M648.1985143090401,170.04541358152616 Q657.1902603108045,159.75908752020803 662.1324443715438,144.6466814672403 Q646.3914284680708,146.8895408758092 634.6999745056228,153.95848027602764 Z" />
<path d="M647.5245930672346,218.76076336300855 Q661.3239944203858,227.20685845450762 679.7514665632802,230.13743355555005 Q673.6655165263674,212.49880514662323 662.9514956997115,200.37569672815306 Z" />
<path d="M606.8569179960389,225.6865340711807 Q608.8572809650317,241.7413946433651 618.0554060444304,257.9757561960637 Q628.0513132594473,242.22006392473614 630.8494583640584,226.28487067289444 Z" />
<path d="M576.0862517438399,198.2094127882969 Q564.7812622130543,209.78340137083956 557.823664436612,227.09674400538722 Q576.3743068913034,225.08834550951963 590.5775575916513,217.34059296164702 Z" />
<path d="M578.3835336057458,157.02023227149758 Q562.2860792716239,155.39789939540267 544.4119716741319,160.75292298015714 Q557.5483372359704,174.00418329100097 572.4613560611789,180.27808714099544 Z" />
<path d="M612.018863483732,133.1352855560957 Q603.2506557880943,119.53828096662241 587.9196059558122,108.9025435196895 Q585.74974342371,127.43499334673015 590.1427230282518,143.00617603123038 Z" />
<path d="M651.6641519439831,144.5404246829104 Q656.8278301204862,129.20757016427933 655.5844312735468,110.58999891270548 Q639.742291391306,120.4483255430986 630.3072285325079,133.5913689064345 Z" />
<path d="M667.4656881594258,182.6473472670102 Q682.672897221324,177.12459500498332 696.4534540521864,164.5446008304469 Q678.8684912718956,158.30528323829125 662.7101807226402,159.12320755864513 Z" />
<circle cx="620" cy="180" r="8" />
<path d="M190,629 Q201,627.2 212,620 Q201,612.8 190,611 Z" />
<path d="M174.5306612970931,632.291718112326 Q179.6417499645488,642.1971092016978 189.88854381999832,650.4338085214449 Q193.336963799199,637.7472644826986 191.64967859040587,626.729412213577 Z" />
<path d="M166.6197627856183,618.5966995735503 Q158.77858930162031,626.5185679386424 154.11145618000168,638.8091280733591 Q167.2426969346319,638.1684126576416 177.1998973268828,633.1590054722992 Z" />
<path d="M177.19989732688276,606.8409945277008 Q167.24269693463188,601.8315873423584 154.11145618000168,601.1908719266409 Q158.77858930162031,613.4814320613576 166.61976278561826,621.4033004264497 Z" />
<path d="M191.64967859040584,613.270587786423 Q193.336963799199,602.2527355173014 189.88854381999832,589.5661914785551 Q179.64174996454878,597.8028907983022 174.53066129709308,607.708281887674 Z" />
<path d="M202.7201818770859,639.4433365313707 Q216.12427455867956,642.0872539626168 231.68309414322496,638.8111078829118 Q221.87021296655084,626.3004179334137 209.90260488692496,619.7097914948667 Z" />
<path d="M174.52166756804587,649.3979229498447 Q178.9340142478751,662.3281664424089 189.55064977168118,674.1644264156714 Q195.47878449848014,659.4108770576045 195.20263038130224,645.7513112188391 Z" />
<path d="M151.80148569095996,629.9545864184738 Q142.80973968919548,640.240912479792 137.86755562845622,655.3533185327597 Q153.60857153192936,653.1104591241908 165.30002549437728,646.0415197239724 Z" />
<path d="M157.2798181229141,600.5566634686293 Q143.87572544132044,597.9127460373832 128.31690585677504,601.1888921170882 Q138.12978703344916,613.6995820665863 150.09739511307504,620.2902085051333 Z" />
<path d="M185.47833243195413,590.6020770501553 Q181.0659857521249,577.6718335575911 170.44935022831882,565.8355735843286 Q164.52121550151986,580.5891229423955 164.79736961869776,594.2486887811609 Z" />
<path d="M208.19851430904004,610.0454135815262 Q217.19026031080452,599.759087520208 222.13244437154378,584.6466814672403 Q206.39142846807064,586.8895408758092 194.69997450562272,593.9584802760276 Z" />
<path d="M207.52459306723452,658.7607633630086 Q221.32399442038584,667.2068584545076 239.75146656328027,670.13743355555 Q233.6655165263674,652.4988051466232 222.95149569971144,640.375696728153 Z" />
<path d="M166.85691799603885,665.6865340711806 Q168.8572809650316,681.7413946433651 178.0554060444303,697.9757561960637 Q188.0513132594473,682.2200639247361 190.84945836405845,666.2848706728944 Z" />
<path d="M136.08625174383982,638.2094127882968 Q124.7812622130542,649.7834013708396 117.82366443661203,667.0967440053872 Q136.37430689130338,665.0883455095196 150.5775575916513,657.3405929616471 Z" />
<path d="M138.38353360574592,597.0202322714977 Q122.28607927162396,595.3978993954028 104.4119716741319,600.7529229801571 Q117.54833723597035,614.0041832910009 132.4613560611789,620.2780871409955 Z" />
<path d="M172.01886348373193,573.1352855560957 Q163.25065578809415,559.5382809666224 147.9196059558123,548.9025435196895 Q145.74974342371002,567.4349933467303 150.1427230282518,583.0061760312304 Z" />
<path d="M211.66415194398314,584.5404246829104 Q216.82783012048625,569.2075701642793 215.58443127354678,550.5899989127055 Q199.74229139130605,560.4483255430986 190.3072285325079,573.5913689064345 Z" />
<path d="M227.4656881594258,622.6473472670102 Q242.67289722132395,617.1245950049832 256.45345405218643,604.5446008304469 Q238.86849127189546,598.3052832382913 222.71018072264022,599.1232075586452 Z" />
<circle cx="180" cy="620" r="8" />
<path d="M630,629 Q641,627.2 652,620 Q641,612.8 630,611 Z" />
<path d="M614.5306612970932,632.291718112326 Q619.6417499645488,642.1971092016978 629.8885438199983,650.4338085214449 Q633.336963799199,637.7472644826986 631.6496785904059,626.729412213577 Z" />
<path d="M606.6197627856183,618.5966995735503 Q598.7785893016203,626.5185679386424 594.1114561800017,638.8091280733591 Q607.2426969346319,638.1684126576416 617.1998973268827,633.1590054722992 Z" />
<path d="M617.1998973268827,606.8409945277008 Q607.2426969346319,601.8315873423584 594.1114561800017,601.1908719266409 Q598.7785893016203,613.4814320613576 606.6197627856183,621.4033004264497 Z" />
<path d="M631.6496785904059,613.270587786423 Q633.336963799199,602.2527355173014 629.8885438199983,589.5661914785551 Q619.6417499645488,597.8028907983022 614.5306612970932,607.708281887674 Z" />
<path d="M642.7201818770859,639.4433365313707 Q656.1242745586795,642.0872539626168 671.6830941432249,638.8111078829118 Q661.8702129665509,626.3004179334137 649.902604886925,619.7097914948667 Z" />
<path d="M614.5216675680458,649.3979229498447 Q618.934014247875,662.3281664424089 629.5506497716812,674.1644264156714 Q635.4787844984801,659.4108770576045 635.2026303813022,645.7513112188391 Z" />
<path d="M591.8014856909599,629.9545864184738 Q582.8097396891955,640.240912479792 577.8675556284562,655.3533185327597 Q593.6085715319292,653.1104591241908 605.3000254943772,646.0415197239724 Z" />
<path d="M597.2798181229141,600.5566634686293 Q583.8757254413205,597.9127460373832 568.3169058567751,601.1888921170882 Q578.1297870334491,613.6995820665863 590.097395113075,620.2902085051333 Z" />
<path d="M625.4783324319542,590.6020770501553 Q621.065985752125,577.6718335575911 610.4493502283188,565.8355735843286 Q604.5212155015199,580.5891229423955 604.7973696186978,594.2486887811609 Z" />
<path d="M648.1985143090401,610.0454135815262 Q657.1902603108045,599.759087520208 662.1324443715438,584.6466814672403 Q646.3914284680708,586.8895408758092 634.6999745056228,593.9584802760276 Z" />
<path d="M647.5245930672346,658.7607633630086 Q661.3239944203858,667.2068584545076 679.7514665632802,670.13743355555 Q673.6655165263674,652.4988051466232 662.9514956997115,640.375696728153 Z" />
<path d="M606.8569179960389,665.6865340711806 Q608.8572809650317,681.7413946433651 618.0554060444304,697.9757561960637 Q628.0513132594473,682.2200639247361 630.8494583640584,666.2848706728944 Z" />
<path d="M576.0862517438399,638.2094127882968 Q564.7812622130543,649.7834013708396 557.823664436612,667.0967440053872 Q576.3743068913034,665.0883455095196 590.5775575916513,657.3405929616471 Z" />
<path d="M578.3835336057458,597.0202322714977 Q562.2860792716239,595.3978993954028 544.4119716741319,600.7529229801571 Q557.5483372359704,614.0041832910009 572.4613560611789,620.2780871409955 Z" />
<path d="M612.018863483732,573.1352855560957 Q603.2506557880943,559.5382809666224 587.9196059558122,548.9025435196895 Q585.74974342371,567.4349933467303 590.1427230282518,583.0061760312304 Z" />
<path d="M651.6641519439831,584.5404246829104 Q656.8278301204862,569.2075701642793 655.5844312735468,550.5899989127055 Q639.742291391306,560.4483255430986 630.3072285325079,573.5913689064345 Z" />
<path d="M667.4656881594258,622.6473472670102 Q682.672897221324,617.1245950049832 696.4534540521864,604.5446008304469 Q678.8684912718956,598.3052832382913 662.7101807226402,599.1232075586452 Z" />
<circle cx="620" cy="620" r="8" />
<path d="M410,129 Q421,127.2 432,120 Q421,112.8 410,111 Z" />
<path d="M394.5306612970931,132.29171811232607 Q399.6417499645488,142.19710920169786 409.8885438199983,150.43380852144492 Q413.336963799199,137.7472644826986 411.6496785904058,126.729412213577 Z" />
<path d="M386.61976278561826,118.5966995735502 Q378.7785893016203,126.51856793864232 374.1114561800017,138.80912807335915 Q387.24269693463197,138.16841265764154 397.1998973268828,133.15900547229924 Z" />
<path d="M397.1998973268828,106.84099452770074 Q387.24269693463197,101.83158734235845 374.1114561800017,101.19087192664087 Q378.7785893016203,113.4814320613577 386.61976278561826,121.4033004264498 Z" />
<path d="M411.64967859040587,113.270587786423 Q413.336963799199,102.25273551730139 409.8885438199983,89.56619147855508 Q399.64174996454875,97.80289079830216 394.53066129709305,107.70828188767393 Z" />
<path d="M422.72018187708596,139.44333653137076 Q436.1242745586796,142.08725396261687 451.68309414322493,138.81110788291178 Q441.8702129665508,126.30041793341361 429.90260488692496,119.70979149486668 Z" />
<path d="M394.52166756804587,149.39792294984457 Q398.9340142478751,162.32816644240884 409.55064977168115,174.16442641567144 Q415.4787844984801,159.4108770576044 415.2026303813022,145.75131121883905 Z" />
<path d="M371.80148569095996,129.95458641847384 Q362.8097396891955,140.24091247979194 357.8675556284562,155.35331853275966 Q373.6085715319294,153.11045912419078 385.3000254943773,146.04151972397236 Z" />
<path d="M377.27981812291404,100.55666346862924 Q363.8757254413204,97.91274603738312 348.31690585677507,101.18889211708822 Q358.1297870334492,113.69958206658637 370.09739511307504,120.29020850513331 Z" />
<path d="M405.47833243195413,90.6020770501554 Q401.0659857521249,77.67183355759114 390.44935022831885,65.83557358432856 Q384.5212155015199,80.58912294239559 384.7973696186978,94.24868878116095 Z" />
<path d="M428.19851430904004,110.04541358152616 Q437.1902603108045,99.75908752020801 442.1324443715438,84.64668146724031 Q426.3914284680706,86.88954087580919 414.6999745056227,93.95848027602761 Z" />
<path d="M427.5245930672345,158.76076336300855 Q441.3239944203858,167.20685845450762 459.7514665632803,170.13743355555005 Q453.66551652636747,152.49880514662323 442.9514956997115,140.37569672815306 Z" />
<path d="M386.8569179960388,165.6865340711807 Q388.85728096503163,181.7413946433651 398.0554060444303,197.97575619606368 Q408.0513132594473,182.22006392473614 410.8494583640584,166.28487067289444 Z" />
<path d="M356.08625174383985,138.2094127882969 Q344.7812622130542,149.78340137083956 337.82366443661203,167.09674400538722 Q356.3743068913034,165.08834550951963 370.57755759165127,157.34059296164702 Z" />
<path d="M358.3835336057459,97.02023227149758 Q342.286079271624,95.39789939540267 324.4119716741319,100.75292298015714 Q337.54833723597034,114.00418329100097 352.4613560611789,120.27808714099544 Z" />
<path d="M392.01886348373193,73.13528555609571 Q383.2506557880941,59.5382809666224 367.9196059558123,48.9025435196895 Q365.7497434237101,67.43499334673015 370.1427230282518,83.00617603123038 Z" />
<path d="M431.66415194398314,84.54042468291041 Q436.8278301204862,69.20757016427933 435.5844312735468,50.58999891270548 Q419.7422913913061,60.4483255430986 410.3072285325079,73.5913689064345 Z" />
<path d="M447.4656881594258,122.64734726701019 Q462.6728972213239,117.1245950049833 476.45345405218643,104.54460083044691 Q458.8684912718955,98.30528323829127 442.7101807226402,99.12320755864513 Z" />
<circle cx="400" cy="120" r="8" />
<path d="M410,689 Q421,687.2 432,680 Q421,672.8 410,671 Z" />
<path d="M394.5306612970931,692.291718112326 Q399.6417499645488,702.1971092016978 409.8885438199983,710.4338085214449 Q413.336963799199,697.7472644826986 411.6496785904058,686.729412213577 Z" />
<path d="M386.61976278561826,678.5966995735503 Q378.7785893016203,686.5185679386424 374.1114561800017,698.8091280733591 Q387.24269693463197,698.1684126576416 397.1998973268828,693.1590054722992 Z" />
<path d="M397.1998973268828,666.8409945277008 Q387.24269693463197,661.8315873423584 374.1114561800017,661.1908719266409 Q378.7785893016203,673.4814320613576 386.61976278561826,681.4033004264497 Z" />
<path d="M411.64967859040587,673.270587786423 Q413.336963799199,662.2527355173014 409.8885438199983,649.5661914785551 Q399.64174996454875,657.8028907983022 394.53066129709305,667.708281887674 Z" />
<path d="M422.72018187708596,699.4433365313707 Q436.1242745586796,702.0872539626168 451.68309414322493,698.8111078829118 Q441.8702129665508,686.3004179334137 429.90260488692496,679.7097914948667 Z" />
<path d="M394.52166756804587,709.3979229498447 Q398.9340142478751,722.3281664424089 409.55064977168115,734.1644264156714 Q415.4787844984801,719.4108770576045 415.2026303813022,705.7513112188391 Z" />
<path d="M371.80148569095996,689.9545864184738 Q362.8097396891955,700.240912479792 357.8675556284562,715.3533185327597 Q373.6085715319294,713.1104591241908 385.3000254943773,706.0415197239724 Z" />
<path d="M377.27981812291404,660.5566634686293 Q363.8757254413204,657.9127460373832 348.31690585677507,661.1888921170882 Q358.1297870334492,673.6995820665863 370.09739511307504,680.2902085051333 Z" />
<path d="M405.47833243195413,650.6020770501553 Q401.0659857521249,637.6718335575911 390.44935022831885,625.8355735843286 Q384.5212155015199,640.5891229423955 384.7973696186978,654.2486887811609 Z" />
<path d="M428.19851430904004,670.0454135815262 Q437.1902603108045,659.759087520208 442.1324443715438,644.6466814672403 Q426.3914284680706,646.8895408758092 414.6999745056227,653.9584802760276 Z" />
<path d="M427.5245930672345,718.7607633630086 Q441.3239944203858,727.2068584545076 459.7514665632803,730.13743355555 Q453.66551652636747,712.4988051466232 442.9514956997115,700.375696728153 Z" />
<path d="M386.8569179960388,725.6865340711806 Q388.85728096503163,741.7413946433651 398.0554060444303,757.9757561960637 Q408.0513132594473,742.2200639247361 410.8494583640584,726.2848706728944 Z" />
<path d="M356.08625174383985,698.2094127882968 Q344.7812622130542,709.7834013708396 337.82366443661203,727.0967440053872 Q356.3743068913034,725.0883455095196 370.57755759165127,717.3405929616471 Z" />
<path d="M358.3835336057459,657.0202322714977 Q342.286079271624,655.3978993954028 324.4119716741319,660.7529229801571 Q337.54833723597034,674.0041832910009 352.4613560611789,680.2780871409955 Z" />
<path d="M392.01886348373193,633.1352855560957 Q383.2506557880941,619.5382809666224 367.9196059558123,608.9025435196895 Q365.7497434237101,627.4349933467303 370.1427230282518,643.0061760312304 Z" />
<path d="M431.66415194398314,644.5404246829104 Q436.8278301204862,629.2075701642793 435.5844312735468,610.5899989127055 Q419.7422913913061,620.4483255430986 410.3072285325079,633.5913689064345 Z" />
<path d="M447.4656881594258,682.6473472670102 Q462.6728972213239,677.1245950049832 476.45345405218643,664.5446008304469 Q458.8684912718955,658.3052832382913 442.7101807226402,659.1232075586452 Z" />
<circle cx="400" cy="680" r="8" />
<path d="M130,409 Q141,407.2 152,400 Q141,392.8 130,391 Z" />
<path d="M114.53066129709309,412.29171811232607 Q119.64174996454878,422.19710920169786 129.88854381999832,430.4338085214449 Q133.336963799199,417.7472644826986 131.64967859040584,406.729412213577 Z" />
<path d="M106.61976278561826,398.5966995735502 Q98.7785893016203,406.5185679386423 94.11145618000168,418.80912807335915 Q107.24269693463191,418.16841265764157 117.19989732688279,413.15900547229927 Z" />
<path d="M117.19989732688279,386.84099452770073 Q107.24269693463191,381.83158734235843 94.11145618000168,381.19087192664085 Q98.7785893016203,393.4814320613577 106.61976278561826,401.4033004264498 Z" />
<path d="M131.64967859040587,393.270587786423 Q133.336963799199,382.2527355173014 129.88854381999832,369.5661914785551 Q119.64174996454878,377.80289079830214 114.53066129709309,387.70828188767393 Z" />
<path d="M142.7201818770859,419.4433365313708 Q156.12427455867956,422.08725396261684 171.68309414322496,418.81110788291176 Q161.87021296655084,406.30041793341366 149.90260488692496,399.7097914948667 Z" />
<path d="M114.52166756804587,429.3979229498446 Q118.93401424787507,442.3281664424088 129.55064977168118,454.1644264156714 Q135.47878449848014,439.41087705760435 135.20263038130224,425.751311218839 Z" />
<path d="M91.80148569095996,409.95458641847387 Q82.8097396891955,420.240912479792 77.86755562845622,435.35331853275966 Q93.60857153192934,433.1104591241908 105.30002549437728,426.0415197239724 Z" />
<path d="M97.27981812291408,380.5566634686292 Q83.87572544132041,377.91274603738316 68.31690585677504,381.18889211708824 Q78.12978703344919,393.69958206658634 90.09739511307505,400.2902085051333 Z" />
<path d="M125.47833243195413,370.6020770501554 Q121.06598575212494,357.6718335575912 110.44935022831883,345.8355735843286 Q104.52121550151985,360.58912294239565 104.79736961869776,374.248688781161 Z" />
<path d="M148.19851430904004,390.04541358152613 Q157.19026031080452,379.759087520208 162.13244437154378,364.64668146724034 Q146.39142846807064,366.8895408758092 134.69997450562272,373.9584802760276 Z" />
<path d="M147.52459306723452,438.7607633630085 Q161.32399442038584,447.2068584545076 179.75146656328027,450.13743355555005 Q173.6655165263674,432.4988051466232 162.95149569971144,420.37569672815306 Z" />
<path d="M106.85691799603885,445.6865340711807 Q108.85728096503165,461.7413946433651 118.05540604443031,477.9757561960637 Q128.05131325944734,462.2200639247361 130.84945836405845,446.28487067289444 Z" />
<path d="M76.08625174383984,418.2094127882969 Q64.78126221305422,429.7834013708395 57.82366443661204,447.0967440053872 Q76.37430689130339,445.0883455095197 90.57755759165128,437.340592961647 Z" />
<path d="M78.38353360574592,377.02023227149755 Q62.28607927162397,375.39789939540265 44.411971674131905,380.7529229801571 Q57.548337235970344,394.00418329100097 72.46135606117889,400.27808714099547 Z" />
<path d="M112.01886348373193,353.13528555609565 Q103.25065578809414,339.5382809666224 87.9196059558123,328.9025435196895 Q85.74974342371003,347.4349933467301 90.1427230282518,363.0061760312304 Z" />
<path d="M151.66415194398314,364.54042468291044 Q156.82783012048625,349.20757016427933 155.58443127354678,330.5899989127055 Q139.74229139130605,340.4483255430986 130.3072285325079,353.5913689064345 Z" />
<path d="M167.4656881594258,402.6473472670102 Q182.67289722132395,397.12459500498335 196.4534540521864,384.54460083044694 Q178.86849127189546,378.3052832382913 162.71018072264022,379.12320755864516 Z" />
<circle cx="120" cy="400" r="8" />
<path d="M690,409 Q701,407.2 712,400 Q701,392.8 690,391 Z" />
<path d="M674.5306612970932,412.29171811232607 Q679.6417499645488,422.19710920169786 689.8885438199983,430.4338085214449 Q693.336963799199,417.7472644826986 691.6496785904059,406.729412213577 Z" />
<path d="M666.6197627856183,398.5966995735502 Q658.7785893016203,406.5185679386423 654.1114561800017,418.80912807335915 Q667.2426969346319,418.16841265764157 677.1998973268827,413.15900547229927 Z" />
<path d="M677.1998973268827,386.84099452770073 Q667.2426969346319,381.83158734235843 654.1114561800017,381.19087192664085 Q658.7785893016203,393.4814320613577 666.6197627856183,401.4033004264498 Z" />
<path d="M691.6496785904059,393.270587786423 Q693.336963799199,382.2527355173014 689.8885438199983,369.5661914785551 Q679.6417499645488,377.80289079830214 674.5306612970932,387.70828188767393 Z" />
<path d="M702.7201818770859,419.4433365313708 Q716.1242745586795,422.08725396261684 731.6830941432249,418.81110788291176 Q721.8702129665509,406.30041793341366 709.902604886925,399.7097914948667 Z" />
<path d="M674.5216675680458,429.3979229498446 Q678.934014247875,442.3281664424088 689.5506497716812,454.1644264156714 Q695.4787844984801,439.41087705760435 695.2026303813022,425.751311218839 Z" />
<path d="M651.8014856909599,409.95458641847387 Q642.8097396891955,420.240912479792 637.8675556284562,435.35331853275966 Q653.6085715319292,433.1104591241908 665.3000254943772,426.0415197239724 Z" />
<path d="M657.2798181229141,380.5566634686292 Q643.8757254413205,377.91274603738316 628.3169058567751,381.18889211708824 Q638.1297870334491,393.69958206658634 650.097395113075,400.2902085051333 Z" />
<path d="M685.4783324319542,370.6020770501554 Q681.065985752125,357.6718335575912 670.4493502283188,345.8355735843286 Q664.5212155015199,360.58912294239565 664.7973696186978,374.248688781161 Z" />
<path d="M708.1985143090401,390.04541358152613 Q717.1902603108045,379.759087520208 722.1324443715438,364.64668146724034 Q706.3914284680708,366.8895408758092 694.6999745056228,373.9584802760276 Z" />
<path d="M707.5245930672346,438.7607633630085 Q721.3239944203858,447.2068584545076 739.7514665632802,450.13743355555005 Q733.6655165263674,432.4988051466232 722.9514956997115,420.37569672815306 Z" />
<path d="M666.8569179960389,445.6865340711807 Q668.8572809650317,461.7413946433651 678.0554060444304,477.9757561960637 Q688.0513132594473,462.2200639247361 690.8494583640584,446.28487067289444 Z" />
<path d="M636.0862517438399,418.2094127882969 Q624.7812622130543,429.7834013708395 617.823664436612,447.0967440053872 Q636.3743068913034,445.0883455095197 650.5775575916513,437.340592961647 Z" />
<path d="M638.3835336057458,377.02023227149755 Q622.2860792716239,375.39789939540265 604.4119716741319,380.7529229801571 Q617.5483372359704,394.00418329100097 632.4613560611789,400.27808714099547 Z" />
<path d="M672.018863483732,353.13528555609565 Q663.2506557880943,339.5382809666224 647.9196059558122,328.9025435196895 Q645.74974342371,347.4349933467301 650.1427230282518,363.0061760312304 Z" />
<path d="M711.6641519439831,364.54042468291044 Q716.8278301204862,349.20757016427933 715.5844312735468,330.5899989127055 Q699.742291391306,340.4483255430986 690.3072285325079,353.5913689064345 Z" />
<path d="M727.4656881594258,402.6473472670102 Q742.672897221324,397.12459500498335 756.4534540521864,384.54460083044694 Q738.8684912718956,378.3052832382913 722.7101807226402,379.12320755864516 Z" />
<circle cx="680" cy="400" r="8" />
<path d="M290,290 Q281.7811678740357,310.7954513893115 293.4862297099063,329.84778792366984 Q301.7050618358706,309.0523365343583 290,290 M290,290 L293.4862297099063,329.84778792366984" />
<path d="M290,290 Q309.0523365343583,301.70506183587065 329.84778792366984,293.48622970990635 Q310.7954513893115,281.78116787403576 290,290 M290,290 L329.84778792366984,293.48622970990635" />
<path d="M510,290 Q489.2045486106885,281.78116787403576 470.15221207633016,293.48622970990635 Q490.9476634656417,301.70506183587065 510,290 M510,290 L470.15221207633016,293.48622970990635" />
<path d="M510,290 Q498.29493816412935,309.0523365343583 506.51377029009365,329.84778792366984 Q518.2188321259642,310.7954513893115 510,290 M510,290 L506.51377029009365,329.84778792366984" />
<path d="M290,510 Q310.7954513893115,518.2188321259642 329.84778792366984,506.51377029009365 Q309.0523365343583,498.29493816412935 290,510 M290,510 L329.84778792366984,506.51377029009365" />
<path d="M290,510 Q301.7050618358706,490.9476634656417 293.4862297099063,470.15221207633016 Q281.7811678740357,489.2045486106885 290,510 M290,510 L293.4862297099063,470.15221207633016" />
<path d="M510,510 Q518.2188321259642,489.2045486106885 506.51377029009365,470.15221207633016 Q498.29493816412935,490.9476634656417 510,510 M510,510 L506.51377029009365,470.15221207633016" />
<path d="M510,510 Q490.9476634656417,498.2949381641294 470.15221207633016,506.5137702900937 Q489.2045486106885,518.2188321259644 510,510 M510,510 L470.15221207633016,506.5137702900937" />
<path d="M400,260 Q379.48380337507945,268.89301276551413 374.28849561253844,290.6417777247591 Q394.804692237459,281.74876495924497 400,260 M400,260 L374.28849561253844,290.6417777247591" />
<path d="M400,260 Q405.195307762541,281.74876495924497 425.71150438746156,290.6417777247591 Q420.51619662492055,268.89301276551413 400,260 M400,260 L425.71150438746156,290.6417777247591" />
<path d="M400,540 Q420.51619662492055,531.1069872344858 425.71150438746156,509.3582222752409 Q405.195307762541,518.2512350407551 400,540 M400,540 L425.71150438746156,509.3582222752409" />
<path d="M400,540 Q394.804692237459,518.2512350407551 374.28849561253844,509.3582222752409 Q379.48380337507945,531.1069872344858 400,540 M400,540 L374.28849561253844,509.3582222752409" />
<path d="M260,400 Q268.89301276551413,420.51619662492055 290.6417777247591,425.71150438746156 Q281.74876495924497,405.195307762541 260,400 M260,400 L290.6417777247591,425.71150438746156" />
<path d="M260,400 Q281.74876495924497,394.804692237459 290.6417777247591,374.28849561253844 Q268.89301276551413,379.48380337507945 260,400 M260,400 L290.6417777247591,374.28849561253844" />
<path d="M540,400 Q531.1069872344858,379.48380337507945 509.3582222752409,374.28849561253844 Q518.2512350407551,394.804692237459 540,400 M540,400 L509.3582222752409,374.28849561253844" />
<path d="M540,400 Q518.2512350407551,405.195307762541 509.3582222752409,425.71150438746156 Q531.1069872344858,420.51619662492055 540,400 M540,400 L509.3582222752409,425.71150438746156" />
<circle cx="80.50589621114162" cy="262.6026253612736" r="4.264550165519631" />
<circle cx="287.1445273301979" cy="598.0742262658423" r="3.4595112748998322" />
<circle cx="560.9639920303263" cy="441.8152982385971" r="5.435747957262907" />
<circle cx="338.54879343747047" cy="549.5742888651548" r="4.844214314449778" />
<circle cx="673.5999726817012" cy="394.74122434364745" r="4.598500556869898" />
<circle cx="399.82049703581305" cy="583.0961866891907" r="6.1100672288891555" />
<circle cx="543.9876647144441" cy="560.6822331256068" r="3.6643336794006953" />
<circle cx="312.98812679293394" cy="391.4501941124445" r="6.89634386999192" />
<circle cx="376.22780231407637" cy="220.67618293750675" r="4.1538158647285925" />
<circle cx="109.32172271359872" cy="90.19842655416431" r="6.281000155285932" />
<circle cx="683.1384828343415" cy="708.4812852633012" r="5.031009439407857" />
<circle cx="588.1061660015082" cy="300.33301940218826" r="3.6066273549633356" />
<circle cx="653.7570282199952" cy="334.3738117202872" r="3.3791037540688214" />
<circle cx="655.4916756744419" cy="688.5935651963517" r="3.9503156290858197" />
<circle cx="712.7683061293963" cy="136.92117308911045" r="6.213504200068773" />
<circle cx="298.4154736049618" cy="588.8681780070701" r="4.4216799432613705" />
<circle cx="427.97225150090856" cy="129.63326101157188" r="4.663890260890025" />
<circle cx="240.5812896793534" cy="89.73939270688165" r="6.062363482138481" />
<circle cx="262.88826214418583" cy="603.02543480231" r="3.5530227353358854" />
<circle cx="504.502362706235" cy="611.2116902053465" r="3.4679883275814247" />
<circle cx="400" cy="400" r="380" />
</svg>