<svg xmlns="http://www.w3.org/2000/svg" viewBox="0 0 800 800" fill="none" stroke="black" stroke-width="1.5" stroke-linecap="round" stroke-linejoin="round">
<circle cx="400" cy="400" r="350" />
<circle cx="400" cy="400" r="310" />
<circle cx="400" cy="400" r="270" />
<circle cx="400" cy="400" r="230" />
<circle cx="400" cy="400" r="190" />
<circle cx="400" cy="400" r="150" />
<circle cx="400" cy="400" r="110" />
<circle cx="400" cy="400" r="70" />
<circle cx="400" cy="400" r="40" />
<circle cx="750" cy="400" r="8" />
<circle cx="741.8171944985304" cy="475.23965407385845" r="8" />
<circle cx="717.651396884835" cy="546.9611855460926" r="8" />
<circle cx="678.6325729969753" cy="611.8109753178178" r="8" />
<circle cx="626.5851996736396" cy="666.7567192946727" r="8" />
<circle cx="563.9429542449266" cy="709.2292155561081" r="8" />
<circle cx="493.63491848522733" cy="737.2424973817281" r="8" />
<circle cx="418.94861800489616" cy="749.4866948478933" r="8" />
<circle cx="343.3763012065324" cy="745.3892828895341" r="8" />
<circle cx="270.4516456310301" cy="725.141851935877" r="8" />
<circle cx="203.5845271231662" cy="689.6911493549117" r="8" />
<circle cx="145.9015778269042" cy="640.6948105986982" r="8" />
<circle cx="100.09998834134382" cy="580.4438500119577" r="8" />
<circle cx="68.32139008601916" cy="511.75553554759307" r="8" />
<circle cx="52.05171499597412" cy="437.8416564483797" r="8" />
<circle cx="52.05171499597412" cy="362.1583435516204" r="8" />
<circle cx="68.32139008601911" cy="288.24446445240716" r="8" />
<circle cx="100.09998834134382" cy="219.55614998804236" r="8" />
<circle cx="145.90157782690406" cy="159.30518940130204" r="8" />
<circle cx="203.58452712316614" cy="110.30885064508834" r="8" />
<circle cx="270.4516456310299" cy="74.85814806412299" r="8" />
<circle cx="343.37630120653233" cy="54.61071711046583" r="8" />
<circle cx="418.94861800489616" cy="50.51330515210668" r="8" />
<circle cx="493.63491848522733" cy="62.757502618271985" r="8" />
<circle cx="563.9429542449263" cy="90.77078444389184" r="8" />
<circle cx="626.5851996736397" cy="133.24328070532732" r="8" />
<circle cx="678.6325729969751" cy="188.18902468218204" r="8" />
<circle cx="717.6513968848348" cy="253.03881445390698" r="8" />
<circle cx="741.8171944985304" cy="324.76034592614144" r="8" />
<circle cx="670" cy="400" r="8" />
<circle cx="659.9876675839058" cy="472.84512821239656" r="8" />
<circle cx="630.6932392275519" cy="540.2876665095671" r="8" />
<circle cx="584.2893486690366" cy="597.3257103550935" r="8" />
<circle cx="524.2175601874111" cy="639.7290089686413" r="8" />
<circle cx="454.9331235242111" cy="664.3527036742272" r="8" />
<circle cx="381.5745483915389" cy="669.3705676814456" r="8" />
<circle cx="309.5825047138338" cy="654.4104489720816" r="8" />
<circle cx="244.29631302898588" cy="620.5818711128194" r="8" />
<circle cx="190.55795150980663" cy="570.3937449680342" r="8" />
<circle cx="152.35294859352769" cy="507.5682942584852" r="8" />
<circle cx="132.5147945701907" cy="436.7649952559866" r="8" />
<circle cx="132.5147945701907" cy="363.23500474401345" r="8" />
<circle cx="152.3529485935277" cy="292.43170574151475" r="8" />
<circle cx="190.55795150980657" cy="229.60625503196584" r="8" />
<circle cx="244.29631302898585" cy="179.41812888718067" r="8" />
<circle cx="309.58250471383366" cy="145.5895510279185" r="8" />
<circle cx="381.5745483915387" cy="130.62943231855445" r="8" />
<circle cx="454.9331235242112" cy="135.64729632577286" r="8" />
<circle cx="524.217560187411" cy="160.2709910313586" r="8" />
<circle cx="584.2893486690366" cy="202.6742896449065" r="8" />
<circle cx="630.6932392275519" cy="259.7123334904329" r="8" />
<circle cx="659.9876675839058" cy="327.1548717876034" r="8" />
<circle cx="590" cy="400" r="8" />
<circle cx="575.5371111771444" cy="472.70985214936707" r="8" />
<circle cx="534.350288425444" cy="534.350288425444" r="8" />
<circle cx="472.70985214936707" cy="575.5371111771444" r="8" />
<circle cx="400" cy="590" r="8" />
<circle cx="327.29014785063293" cy="575.5371111771444" r="8" />
<circle cx="265.649711574556" cy="534.350288425444" r="8" />
<circle cx="224.46288882285552" cy="472.70985214936707" r="8" />
<circle cx="210" cy="400" r="8" />
<circle cx="224.4628888228555" cy="327.29014785063305" r="8" />
<circle cx="265.6497115745559" cy="265.649711574556" r="8" />
<circle cx="327.290147850633" cy="224.4628888228555" r="8" />
<circle cx="399.99999999999994" cy="210" r="8" />
<circle cx="472.70985214936707" cy="224.46288882285555" r="8" />
<circle cx="534.350288425444" cy="265.6497115745559" r="8" />
<circle cx="575.5371111771445" cy="327.290147850633" r="8" />
<circle cx="510" cy="400" r="8" />
<circle cx="484.26488874308757" cy="470.7066370655193" r="8" />
<circle cx="419.10129954336236" cy="508.3288528313429" r="8" />
<circle cx="345" cy="495.2627944162883" r="8" />
<circle cx="296.6338117135501" cy="437.62221576582357" r="8" />
<circle cx="296.6338117135501" cy="362.37778423417643" r="8" />
<circle cx="344.99999999999994" cy="304.7372055837118" r="8" />
<circle cx="419.1012995433623" cy="291.6711471686571" r="8" />
<circle cx="484.26488874308757" cy="329.2933629344806" r="8" />
<path d="M695,408 Q707.5,406.4 720,400 Q707.5,393.6 695,392 Z" />
<path d="M602.9396462005391,614.2533546995239 Q612.9098518152695,621.9608186144573 626.2741699796952,626.2741699796952 Q621.9608186144573,612.9098518152695 614.2533546995239,602.9396462005391 Z" />
<path d="M392,695 Q393.6,707.5 400,720 Q406.4,707.5 408,695 Z" />
<path d="M185.74664530047613,602.9396462005391 Q178.03918138554278,612.9098518152695 173.7258300203048,626.2741699796952 Q187.09014818473057,621.9608186144573 197.06035379946087,614.2533546995239 Z" />
<path d="M105,392.00000000000006 Q92.5,393.6000000000001 80,400.00000000000006 Q92.5,406.40000000000003 105,408.00000000000006 Z" />
<path d="M197.0603537994608,185.74664530047613 Q187.09014818473048,178.03918138554278 173.72583002030473,173.7258300203048 Q178.0391813855427,187.09014818473057 185.74664530047608,197.06035379946087 Z" />
<path d="M407.99999999999994,105 Q406.3999999999999,92.5 399.99999999999994,80 Q393.59999999999997,92.5 391.99999999999994,105 Z" />
<path d="M614.2533546995239,197.0603537994608 Q621.9608186144573,187.09014818473048 626.2741699796952,173.72583002030473 Q612.9098518152695,178.0391813855427 602.9396462005391,185.74664530047608 Z" />
<path d="M615,408 Q627.5,406.4 640,400 Q627.5,393.6 615,392 Z" />
<path d="M582.1954618136543,514.4282032302755 Q593.8207793609597,519.2925625842204 607.8460969082653,520 Q600.2207793609598,508.20743741577957 590.1954618136543,500.5717967697245 Z" />
<path d="M500.5717967697245,590.1954618136543 Q508.20743741577957,600.2207793609598 520,607.8460969082653 Q519.2925625842204,593.8207793609597 514.4282032302755,582.1954618136543 Z" />
<path d="M392,615 Q393.6,627.5 400,640 Q406.4,627.5 408,615 Z" />
<path d="M285.57179676972453,582.1954618136543 Q280.7074374157797,593.8207793609597 280.00000000000006,607.8460969082653 Q291.79256258422043,600.2207793609598 299.4282032302756,590.1954618136543 Z" />
<path d="M209.80453818634567,500.5717967697245 Q199.7792206390402,508.20743741577957 192.15390309173472,520 Q206.17922063904018,519.2925625842204 217.80453818634567,514.4282032302755 Z" />
<path d="M185,392 Q172.5,393.6 160,400.00000000000006 Q172.5,406.4 185,408 Z" />
<path d="M217.8045381863457,285.5717967697245 Q206.1792206390402,280.70743741577957 192.15390309173475,280 Q199.77922063904023,291.79256258422043 209.8045381863457,299.4282032302755 Z" />
<path d="M299.4282032302754,209.80453818634572 Q291.7925625842203,199.77922063904026 279.9999999999999,192.15390309173478 Q280.70743741577945,206.17922063904024 285.57179676972436,217.80453818634572 Z" />
<path d="M407.99999999999994,185 Q406.3999999999999,172.5 399.99999999999994,160 Q393.59999999999997,172.5 391.99999999999994,185 Z" />
<path d="M514.4282032302755,217.8045381863457 Q519.2925625842204,206.1792206390402 520,192.15390309173475 Q508.20743741577957,199.77922063904023 500.5717967697245,209.8045381863457 Z" />
<path d="M590.1954618136542,299.4282032302754 Q600.2207793609598,291.7925625842203 607.8460969082653,279.9999999999999 Q593.8207793609597,280.70743741577945 582.1954618136542,285.57179676972436 Z" />
<path d="M535,408 Q547.5,406.4 560,400 Q547.5,393.6 535,392 Z" />
<path d="M521.662269430103,459.0532996293774 Q533.8230570782782,462.358635281923 547.8207252018059,461.2293491784144 Q538.7214050125514,450.5329772657785 527.7852043479444,444.27122710919684 Z" />
<path d="M489.8025612106915,501.11626970967626 Q499.7727668254218,508.8237336246097 513.1370849898476,513.1370849898476 Q508.8237336246097,499.7727668254218 501.11626970967626,489.8025612106915 Z" />
<path d="M444.27122710919684,527.7852043479444 Q450.5329772657785,538.7214050125514 461.2293491784144,547.8207252018059 Q462.358635281923,533.8230570782782 459.0532996293774,521.662269430103 Z" />
<path d="M392,535 Q393.6,547.5 400,560 Q406.4,547.5 408,535 Z" />
<path d="M340.9467003706226,521.662269430103 Q337.64136471807706,533.8230570782782 338.77065082158566,547.8207252018059 Q349.4670227342215,538.7214050125514 355.72877289080316,527.7852043479444 Z" />
<path d="M298.88373029032374,489.8025612106915 Q291.1762663753903,499.7727668254218 286.8629150101524,513.1370849898476 Q300.2272331745782,508.8237336246097 310.1974387893085,501.11626970967626 Z" />
<path d="M272.21479565205556,444.27122710919684 Q261.2785949874486,450.5329772657785 252.17927479819411,461.2293491784144 Q266.1769429217218,462.358635281923 278.337730569897,459.0532996293774 Z" />
<path d="M265,392 Q252.5,393.6 240,400 Q252.5,406.4 265,408 Z" />
<path d="M278.337730569897,340.94670037062264 Q266.1769429217218,337.64136471807706 252.1792747981941,338.7706508215857 Q261.27859498744857,349.4670227342216 272.21479565205556,355.7287728908032 Z" />
<path d="M310.1974387893084,298.88373029032374 Q300.22723317457815,291.1762663753903 286.8629150101524,286.8629150101524 Q291.1762663753903,300.2272331745782 298.8837302903237,310.1974387893085 Z" />
<path d="M355.7287728908032,272.21479565205556 Q349.46702273422153,261.2785949874486 338.77065082158566,252.17927479819411 Q337.64136471807706,266.1769429217218 340.94670037062264,278.337730569897 Z" />
<path d="M408,265 Q406.4,252.5 399.99999999999994,240 Q393.6,252.5 392,265 Z" />
<path d="M459.0532996293774,278.337730569897 Q462.358635281923,266.17694292172183 461.2293491784144,252.17927479819414 Q450.5329772657785,261.2785949874486 444.27122710919684,272.21479565205556 Z" />
<path d="M501.11626970967626,310.1974387893084 Q508.8237336246097,300.22723317457815 513.1370849898476,286.8629150101524 Q499.7727668254218,291.1762663753903 489.8025612106915,298.8837302903237 Z" />
<path d="M527.7852043479444,355.7287728908032 Q538.7214050125514,349.46702273422153 547.8207252018059,338.77065082158566 Q533.8230570782782,337.64136471807706 521.662269430103,340.94670037062264 Z" />
<circle cx="730" cy="400" r="5" />
<circle cx="718.7555226753925" cy="485.4102848838319" r="5" />
<circle cx="685.7883832488648" cy="565" r="5" />
<circle cx="633.3452377915607" cy="633.3452377915606" r="5" />
<circle cx="565" cy="685.7883832488648" r="5" />
<circle cx="485.4102848838319" cy="718.7555226753925" r="5" />
<circle cx="400" cy="730" r="5" />
<circle cx="314.5897151161681" cy="718.7555226753925" r="5" />
<circle cx="235.00000000000009" cy="685.7883832488648" r="5" />
<circle cx="166.65476220843934" cy="633.3452377915607" r="5" />
<circle cx="114.21161675113524" cy="565" r="5" />
<circle cx="81.24447732460749" cy="485.41028488383193" r="5" />
<circle cx="70" cy="400.00000000000006" r="5" />
<circle cx="81.24447732460743" cy="314.5897151161683" r="5" />
<circle cx="114.21161675113524" cy="234.99999999999997" r="5" />
<circle cx="166.65476220843925" cy="166.65476220843934" r="5" />
<circle cx="234.99999999999986" cy="114.2116167511353" r="5" />
<circle cx="314.5897151161682" cy="81.24447732460743" r="5" />
<circle cx="399.99999999999994" cy="70" r="5" />
<circle cx="485.410284883832" cy="81.24447732460749" r="5" />
<circle cx="565" cy="114.21161675113524" r="5" />
<circle cx="633.3452377915606" cy="166.65476220843925" r="5" />
<circle cx="685.7883832488646" cy="234.99999999999986" r="5" />
<circle cx="718.7555226753925" cy="314.5897151161682" r="5" />
<circle cx="400" cy="400" r="15" />
</svg>