<svg xmlns="http://www.w3.org/2000/svg" viewBox="0 0 800 800" fill="none" stroke="black" stroke-width="1.5" stroke-linecap="round" stroke-linejoin="round">
<circle cx="400" cy="400" r="370" />
<line x1="690" y1="400" x2="735" y2="400" />
<line x1="690" y1="400" x2="721.8198051533947" y2="431.8198051533946" />
<line x1="690" y1="400" x2="690" y2="445" />
<line x1="690" y1="400" x2="658.1801948466053" y2="431.81980515339467" />
<line x1="690" y1="400" x2="645" y2="400" />
<line x1="690" y1="400" x2="658.1801948466053" y2="368.1801948466054" />
<line x1="690" y1="400" x2="690" y2="355" />
<line x1="690" y1="400" x2="721.8198051533947" y2="368.18019484660533" />
<circle cx="690" cy="400" r="30" />
<circle cx="690" cy="400" r="15" />
<line x1="605.0609665440988" y1="605.0609665440987" x2="650.0609665440988" y2="605.0609665440987" />
<line x1="605.0609665440988" y1="605.0609665440987" x2="636.8807716974935" y2="636.8807716974934" />
<line x1="605.0609665440988" y1="605.0609665440987" x2="605.0609665440988" y2="650.0609665440987" />
<line x1="605.0609665440988" y1="605.0609665440987" x2="573.2411613907042" y2="636.8807716974934" />
<line x1="605.0609665440988" y1="605.0609665440987" x2="560.0609665440988" y2="605.0609665440987" />
<line x1="605.0609665440988" y1="605.0609665440987" x2="573.2411613907042" y2="573.2411613907041" />
<line x1="605.0609665440988" y1="605.0609665440987" x2="605.0609665440988" y2="560.0609665440987" />
<line x1="605.0609665440988" y1="605.0609665440987" x2="636.8807716974935" y2="573.2411613907041" />
<circle cx="605.0609665440988" cy="605.0609665440987" r="30" />
<circle cx="605.0609665440988" cy="605.0609665440987" r="15" />
<line x1="400" y1="690" x2="445" y2="690" />
<line x1="400" y1="690" x2="431.81980515339467" y2="721.8198051533947" />
<line x1="400" y1="690" x2="400" y2="735" />
<line x1="400" y1="690" x2="368.1801948466054" y2="721.8198051533947" />
<line x1="400" y1="690" x2="355" y2="690" />
<line x1="400" y1="690" x2="368.18019484660533" y2="658.1801948466053" />
<line x1="400" y1="690" x2="400" y2="645" />
<line x1="400" y1="690" x2="431.8198051533946" y2="658.1801948466053" />
<circle cx="400" cy="690" r="30" />
<circle cx="400" cy="690" r="15" />
<line x1="194.93903345590124" y1="605.0609665440988" x2="239.93903345590124" y2="605.0609665440988" />
<line x1="194.93903345590124" y1="605.0609665440988" x2="226.75883860929588" y2="636.8807716974935" />
<line x1="194.93903345590124" y1="605.0609665440988" x2="194.93903345590124" y2="650.0609665440988" />
<line x1="194.93903345590124" y1="605.0609665440988" x2="163.1192283025066" y2="636.8807716974935" />
<line x1="194.93903345590124" y1="605.0609665440988" x2="149.93903345590124" y2="605.0609665440988" />
<line x1="194.93903345590124" y1="605.0609665440988" x2="163.1192283025066" y2="573.2411613907042" />
<line x1="194.93903345590124" y1="605.0609665440988" x2="194.93903345590124" y2="560.0609665440988" />
<line x1="194.93903345590124" y1="605.0609665440988" x2="226.75883860929588" y2="573.2411613907042" />
<circle cx="194.93903345590124" cy="605.0609665440988" r="30" />
<circle cx="194.93903345590124" cy="605.0609665440988" r="15" />
<line x1="110" y1="400.00000000000006" x2="155" y2="400.00000000000006" />
<line x1="110" y1="400.00000000000006" x2="141.81980515339464" y2="431.81980515339467" />
<line x1="110" y1="400.00000000000006" x2="110" y2="445.00000000000006" />
<line x1="110" y1="400.00000000000006" x2="78.18019484660536" y2="431.81980515339467" />
<line x1="110" y1="400.00000000000006" x2="65" y2="400.00000000000006" />
<line x1="110" y1="400.00000000000006" x2="78.18019484660536" y2="368.18019484660545" />
<line x1="110" y1="400.00000000000006" x2="109.99999999999999" y2="355.00000000000006" />
<line x1="110" y1="400.00000000000006" x2="141.81980515339464" y2="368.1801948466054" />
<circle cx="110" cy="400.00000000000006" r="30" />
<circle cx="110" cy="400.00000000000006" r="15" />
<line x1="194.93903345590118" y1="194.93903345590124" x2="239.93903345590118" y2="194.93903345590124" />
<line x1="194.93903345590118" y1="194.93903345590124" x2="226.75883860929582" y2="226.75883860929588" />
<line x1="194.93903345590118" y1="194.93903345590124" x2="194.93903345590118" y2="239.93903345590124" />
<line x1="194.93903345590118" y1="194.93903345590124" x2="163.11922830250654" y2="226.75883860929588" />
<line x1="194.93903345590118" y1="194.93903345590124" x2="149.93903345590118" y2="194.93903345590124" />
<line x1="194.93903345590118" y1="194.93903345590124" x2="163.11922830250654" y2="163.1192283025066" />
<line x1="194.93903345590118" y1="194.93903345590124" x2="194.93903345590118" y2="149.93903345590124" />
<line x1="194.93903345590118" y1="194.93903345590124" x2="226.75883860929582" y2="163.1192283025066" />
<circle cx="194.93903345590118" cy="194.93903345590124" r="30" />
<circle cx="194.93903345590118" cy="194.93903345590124" r="15" />
<line x1="399.99999999999994" y1="110" x2="444.99999999999994" y2="110" />
<line x1="399.99999999999994" y1="110" x2="431.81980515339455" y2="141.81980515339464" />
<line x1="399.99999999999994" y1="110" x2="399.99999999999994" y2="155" />
<line x1="399.99999999999994" y1="110" x2="368.18019484660533" y2="141.81980515339464" />
<line x1="399.99999999999994" y1="110" x2="354.99999999999994" y2="110" />
<line x1="399.99999999999994" y1="110" x2="368.1801948466053" y2="78.18019484660536" />
<line x1="399.99999999999994" y1="110" x2="399.99999999999994" y2="65" />
<line x1="399.99999999999994" y1="110" x2="431.81980515339455" y2="78.18019484660536" />
<circle cx="399.99999999999994" cy="110" r="30" />
<circle cx="399.99999999999994" cy="110" r="15" />
<line x1="605.0609665440987" y1="194.93903345590118" x2="650.0609665440987" y2="194.93903345590118" />
<line x1="605.0609665440987" y1="194.93903345590118" x2="636.8807716974934" y2="226.75883860929582" />
<line x1="605.0609665440987" y1="194.93903345590118" x2="605.0609665440987" y2="239.93903345590118" />
<line x1="605.0609665440987" y1="194.93903345590118" x2="573.2411613907041" y2="226.75883860929582" />
<line x1="605.0609665440987" y1="194.93903345590118" x2="560.0609665440987" y2="194.93903345590118" />
<line x1="605.0609665440987" y1="194.93903345590118" x2="573.2411613907041" y2="163.11922830250654" />
<line x1="605.0609665440987" y1="194.93903345590118" x2="605.0609665440987" y2="149.93903345590118" />
<line x1="605.0609665440987" y1="194.93903345590118" x2="636.8807716974934" y2="163.11922830250654" />
<circle cx="605.0609665440987" cy="194.93903345590118" r="30" />
<circle cx="605.0609665440987" cy="194.93903345590118" r="15" />
<circle cx="580" cy="400" r="18" />
<circle cx="586" cy="394" r="15" fill="white" stroke="black" stroke-width="1.5" />
<circle cx="555.884572681199" cy="490" r="18" />
<circle cx="561.884572681199" cy="484" r="15" fill="white" stroke="black" stroke-width="1.5" />
<circle cx="490" cy="555.884572681199" r="18" />
<circle cx="496" cy="549.884572681199" r="15" fill="white" stroke="black" stroke-width="1.5" />
<circle cx="400" cy="580" r="18" />
<circle cx="406" cy="574" r="15" fill="white" stroke="black" stroke-width="1.5" />
<circle cx="310.00000000000006" cy="555.884572681199" r="18" />
<circle cx="316.00000000000006" cy="549.884572681199" r="15" fill="white" stroke="black" stroke-width="1.5" />
<circle cx="244.11542731880104" cy="490" r="18" />
<circle cx="250.11542731880104" cy="484" r="15" fill="white" stroke="black" stroke-width="1.5" />
<circle cx="220" cy="400" r="18" />
<circle cx="226" cy="394" r="15" fill="white" stroke="black" stroke-width="1.5" />
<circle cx="244.11542731880104" cy="310" r="18" />
<circle cx="250.11542731880104" cy="304" r="15" fill="white" stroke="black" stroke-width="1.5" />
<circle cx="309.9999999999999" cy="244.11542731880107" r="18" />
<circle cx="315.9999999999999" cy="238.11542731880107" r="15" fill="white" stroke="black" stroke-width="1.5" />
<circle cx="399.99999999999994" cy="220" r="18" />
<circle cx="405.99999999999994" cy="214" r="15" fill="white" stroke="black" stroke-width="1.5" />
<circle cx="490" cy="244.11542731880104" r="18" />
<circle cx="496" cy="238.11542731880104" r="15" fill="white" stroke="black" stroke-width="1.5" />
<circle cx="555.884572681199" cy="309.9999999999999" r="18" />
<circle cx="561.884572681199" cy="303.9999999999999" r="15" fill="white" stroke="black" stroke-width="1.5" />
<line x1="500" y1="400" x2="545" y2="400" />
<line x1="496.5925826289068" y1="425.88190451025207" x2="540.0592448119149" y2="437.5287615398655" />
<line x1="486.6025403784439" y1="450" x2="525.5736835487436" y2="472.5" />
<line x1="470.71067811865476" y1="470.71067811865476" x2="502.5304832720494" y2="502.53048327204937" />
<line x1="450" y1="486.60254037844385" x2="472.5" y2="525.5736835487436" />
<line x1="425.88190451025207" y1="496.5925826289068" x2="437.5287615398655" y2="540.0592448119149" />
<line x1="400" y1="500" x2="400" y2="545" />
<line x1="374.11809548974793" y1="496.5925826289068" x2="362.4712384601345" y2="540.0592448119149" />
<line x1="350" y1="486.6025403784439" x2="327.5" y2="525.5736835487436" />
<line x1="329.28932188134524" y1="470.71067811865476" x2="297.46951672795063" y2="502.5304832720494" />
<line x1="313.3974596215561" y1="450" x2="274.4263164512564" y2="472.5" />
<line x1="303.4074173710932" y1="425.8819045102521" x2="259.9407551880851" y2="437.52876153986557" />
<line x1="300" y1="400" x2="255" y2="400" />
<line x1="303.4074173710932" y1="374.118095489748" x2="259.94075518808506" y2="362.47123846013454" />
<line x1="313.39745962155615" y1="350" x2="274.4263164512564" y2="327.5" />
<line x1="329.28932188134524" y1="329.28932188134524" x2="297.4695167279506" y2="297.46951672795063" />
<line x1="349.99999999999994" y1="313.39745962155615" x2="327.49999999999994" y2="274.4263164512564" />
<line x1="374.11809548974793" y1="303.4074173710932" x2="362.4712384601345" y2="259.94075518808506" />
<line x1="400" y1="300" x2="400" y2="255" />
<line x1="425.8819045102521" y1="303.4074173710932" x2="437.52876153986557" y2="259.9407551880851" />
<line x1="450" y1="313.39745962155615" x2="472.5" y2="274.4263164512564" />
<line x1="470.71067811865476" y1="329.28932188134524" x2="502.53048327204937" y2="297.4695167279506" />
<line x1="486.60254037844385" y1="349.99999999999994" x2="525.5736835487436" y2="327.49999999999994" />
<line x1="496.5925826289068" y1="374.11809548974793" x2="540.0592448119149" y2="362.4712384601345" />
<circle cx="400" cy="400" r="370" />
<circle cx="400" cy="400" r="340" />
<circle cx="400" cy="400" r="240" />
<circle cx="400" cy="400" r="145" />
<circle cx="400" cy="400" r="100" />
<circle cx="400" cy="400" r="60" />
<circle cx="400" cy="400" r="20" />
<line x1="400" y1="400" x2="450" y2="400" />
<line x1="400" y1="400" x2="443.30127018922195" y2="425" />
<line x1="400" y1="400" x2="425" y2="443.30127018922195" />
<line x1="400" y1="400" x2="400" y2="450" />
<line x1="400" y1="400" x2="375" y2="443.30127018922195" />
<line x1="400" y1="400" x2="356.69872981077805" y2="425" />
<line x1="400" y1="400" x2="350" y2="400" />
<line x1="400" y1="400" x2="356.69872981077805" y2="375" />
<line x1="400" y1="400" x2="375" y2="356.6987298107781" />
<line x1="400" y1="400" x2="400" y2="350" />
<line x1="400" y1="400" x2="425" y2="356.69872981077805" />
<line x1="400" y1="400" x2="443.3012701892219" y2="375" />
<circle cx="692.4580864268501" cy="400.6040225187132" r="2" />
<circle cx="375.641763624544" cy="134.78567094110775" r="2" />
<circle cx="215.008461619179" cy="582.1678665393936" r="2" />
<circle cx="687.8920783529163" cy="356.02138181344867" r="2" />
<circle cx="139.1378098853146" cy="349.4746752025702" r="2" />
<circle cx="651.4669717610852" cy="600.3945330898566" r="2" />
<circle cx="631.3061732960825" cy="233.1523810862132" r="2" />
<circle cx="407.6694824686632" cy="664.6296970534378" r="2" />
<circle cx="502.99206713554435" cy="652.1062482824777" r="2" />
<circle cx="655.325773897767" cy="594.1165304213756" r="2" />
<circle cx="83.10851470163982" cy="330.39684723389144" r="2" />
<circle cx="379.8086190521143" cy="152.99060396937034" r="2" />
<circle cx="154.4637458680047" cy="338.58342091588906" r="2" />
<circle cx="586.0754323207702" cy="182.20408688505114" r="2" />
<circle cx="119.40714586815858" cy="449.92928295281007" r="2" />
<circle cx="425.0022080531834" cy="639.932604756692" r="2" />
<circle cx="735.8056973253899" cy="448.9244933417198" r="2" />
<circle cx="674.664856387642" cy="238.58493793459266" r="2" />
<circle cx="113.93746739521907" cy="263.5849158115499" r="2" />
<circle cx="204.21864217381267" cy="207.70511476058996" r="2" />
<circle cx="210.65788006483731" cy="587.8414941526974" r="2" />
<circle cx="218.58367920201576" cy="644.0524281470151" r="2" />
<circle cx="239.20790256435075" cy="585.2256118525281" r="2" />
<circle cx="148.3653131286565" cy="354.19337865291607" r="2" />
<circle cx="138.4814878524955" cy="478.0878250693338" r="2" />
<circle cx="486.71541866488695" cy="630.7153646159383" r="2" />
<circle cx="693.5536253949775" cy="375.0887099967478" r="2" />
<circle cx="687.4966062268452" cy="580.2518082310755" r="2" />
<circle cx="116.3444264048004" cy="525.4452478440874" r="2" />
<circle cx="513.9475231169589" cy="671.4217425052316" r="2" />
<circle cx="658.8893879996745" cy="392.56396734925937" r="2" />
<circle cx="287.63372373820243" cy="143.60323450341764" r="2" />
<circle cx="108.15423085417922" cy="517.7431282373647" r="2" />
<circle cx="540.2225650090228" cy="688.8404682867405" r="2" />
<circle cx="486.2183089373718" cy="165.60817935310618" r="2" />
<circle cx="648.9983191458092" cy="447.00944207295316" r="2" />
<circle cx="219.34632732287326" cy="188.6549216213492" r="2" />
<circle cx="401.1130933712937" cy="690.6703335389996" r="2" />
<circle cx="151.85626014355967" cy="366.8160495757511" r="2" />
<circle cx="673.4009687515379" cy="371.72575154998793" r="2" />
</svg>