<svg xmlns="http://www.w3.org/2000/svg" viewBox="0 0 800 800" fill="none" stroke="black" stroke-width="1.5" stroke-linecap="round" stroke-linejoin="round">
<circle cx="400" cy="400" r="40" />
<circle cx="400" cy="400" r="80" />
<circle cx="400" cy="400" r="120" />
<circle cx="400" cy="400" r="160" />
<circle cx="400" cy="400" r="200" />
<circle cx="400" cy="400" r="240" />
<circle cx="400" cy="400" r="280" />
<circle cx="400" cy="400" r="320" />
<circle cx="400" cy="400" r="5" />
<circle cx="200" cy="250" r="40" />
<circle cx="200" cy="250" r="80" />
<circle cx="200" cy="250" r="120" />
<circle cx="200" cy="250" r="160" />
<circle cx="200" cy="250" r="200" />
<circle cx="200" cy="250" r="5" />
<circle cx="600" cy="300" r="40" />
<circle cx="600" cy="300" r="80" />
<circle cx="600" cy="300" r="120" />
<circle cx="600" cy="300" r="160" />
<circle cx="600" cy="300" r="5" />
<circle cx="300" cy="580" r="40" />
<circle cx="300" cy="580" r="80" />
<circle cx="300" cy="580" r="120" />
<circle cx="300" cy="580" r="160" />
<circle cx="300" cy="580" r="5" />
<path d="M30,50 Q50,62.20735492403948 70,50 Q90,62.20735492403948 110,50 Q130,62.20735492403948 150,50 Q170,62.20735492403948 190,50 Q210,62.20735492403948 230,50 Q250,62.20735492403948 270,50 Q290,62.20735492403948 310,50 Q330,62.20735492403948 350,50 Q370,62.20735492403948 390,50 Q410,62.20735492403948 430,50 Q450,62.20735492403948 470,50 Q490,62.20735492403948 510,50 Q530,62.20735492403948 550,50 Q570,62.20735492403948 590,50 Q610,62.20735492403948 630,50 Q650,62.20735492403948 670,50 Q690,62.20735492403948 710,50 Q730,62.20735492403948 750,50 Q770,62.20735492403948 790,50" opacity="0.3" />
<path d="M30,110 Q50,122.04248201909795 70,110 Q90,122.04248201909795 110,110 Q130,122.04248201909795 150,110 Q170,122.04248201909795 190,110 Q210,122.04248201909795 230,110 Q250,122.04248201909795 270,110 Q290,122.04248201909795 310,110 Q330,122.04248201909795 350,110 Q370,122.04248201909795 390,110 Q410,122.04248201909795 430,110 Q450,122.04248201909795 470,110 Q490,122.04248201909795 510,110 Q530,122.04248201909795 550,110 Q570,122.04248201909795 590,110 Q610,122.04248201909795 630,110 Q650,122.04248201909795 670,110 Q690,122.04248201909795 710,110 Q730,122.04248201909795 750,110 Q770,122.04248201909795 790,110" opacity="0.3" />
<path d="M30,170 Q50,176.72229448986585 70,170 Q90,176.72229448986585 110,170 Q130,176.72229448986585 150,170 Q170,176.72229448986585 190,170 Q210,176.72229448986585 230,170 Q250,176.72229448986585 270,170 Q290,176.72229448986585 310,170 Q330,176.72229448986585 350,170 Q370,176.72229448986585 390,170 Q410,176.72229448986585 430,170 Q450,176.72229448986585 470,170 Q490,176.72229448986585 510,170 Q530,176.72229448986585 550,170 Q570,176.72229448986585 590,170 Q610,176.72229448986585 630,170 Q650,176.72229448986585 670,170 Q690,176.72229448986585 710,170 Q730,176.72229448986585 750,170 Q770,176.72229448986585 790,170" opacity="0.3" />
<path d="M30,230 Q50,233.03154498183267 70,230 Q90,233.03154498183267 110,230 Q130,233.03154498183267 150,230 Q170,233.03154498183267 190,230 Q210,233.03154498183267 230,230 Q250,233.03154498183267 270,230 Q290,233.03154498183267 310,230 Q330,233.03154498183267 350,230 Q370,233.03154498183267 390,230 Q410,233.03154498183267 430,230 Q450,233.03154498183267 470,230 Q490,233.03154498183267 510,230 Q530,233.03154498183267 550,230 Q570,233.03154498183267 590,230 Q610,233.03154498183267 630,230 Q650,233.03154498183267 670,230 Q690,233.03154498183267 710,230 Q730,233.03154498183267 750,230 Q770,233.03154498183267 790,230" opacity="0.3" />
<path d="M30,290 Q50,295.6769891029312 70,290 Q90,295.6769891029312 110,290 Q130,295.6769891029312 150,290 Q170,295.6769891029312 190,290 Q210,295.6769891029312 230,290 Q250,295.6769891029312 270,290 Q290,295.6769891029312 310,290 Q330,295.6769891029312 350,290 Q370,295.6769891029312 390,290 Q410,295.6769891029312 430,290 Q450,295.6769891029312 470,290 Q490,295.6769891029312 510,290 Q530,295.6769891029312 550,290 Q570,295.6769891029312 590,290 Q610,295.6769891029312 630,290 Q650,295.6769891029312 670,290 Q690,295.6769891029312 710,290 Q730,295.6769891029312 750,290 Q770,295.6769891029312 790,290" opacity="0.3" />
<path d="M30,350 Q50,361.28493299359394 70,350 Q90,361.28493299359394 110,350 Q130,361.28493299359394 150,350 Q170,361.28493299359394 190,350 Q210,361.28493299359394 230,350 Q250,361.28493299359394 270,350 Q290,361.28493299359394 310,350 Q330,361.28493299359394 350,350 Q370,361.28493299359394 390,350 Q410,361.28493299359394 430,350 Q450,361.28493299359394 470,350 Q490,361.28493299359394 510,350 Q530,361.28493299359394 550,350 Q570,361.28493299359394 590,350 Q610,361.28493299359394 630,350 Q650,361.28493299359394 670,350 Q690,361.28493299359394 710,350 Q730,361.28493299359394 750,350 Q770,361.28493299359394 790,350" opacity="0.3" />
<path d="M30,410 Q50,422.70365278339887 70,410 Q90,422.70365278339887 110,410 Q130,422.70365278339887 150,410 Q170,422.70365278339887 190,410 Q210,422.70365278339887 230,410 Q250,422.70365278339887 270,410 Q290,422.70365278339887 310,410 Q330,422.70365278339887 350,410 Q370,422.70365278339887 390,410 Q410,422.70365278339887 430,410 Q450,422.70365278339887 470,410 Q490,422.70365278339887 510,410 Q530,422.70365278339887 550,410 Q570,422.70365278339887 590,410 Q610,422.70365278339887 630,410 Q650,422.70365278339887 670,410 Q690,422.70365278339887 710,410 Q730,422.70365278339887 750,410 Q770,422.70365278339887 790,410" opacity="0.3" />
<path d="M30,470 Q50,478.1238771272668 70,470 Q90,478.1238771272668 110,470 Q130,478.1238771272668 150,470 Q170,478.1238771272668 190,470 Q210,478.1238771272668 230,470 Q250,478.1238771272668 270,470 Q290,478.1238771272668 310,470 Q330,478.1238771272668 350,470 Q370,478.1238771272668 390,470 Q410,478.1238771272668 430,470 Q450,478.1238771272668 470,470 Q490,478.1238771272668 510,470 Q530,478.1238771272668 550,470 Q570,478.1238771272668 590,470 Q610,478.1238771272668 630,470 Q650,478.1238771272668 670,470 Q690,478.1238771272668 710,470 Q730,478.1238771272668 750,470 Q770,478.1238771272668 790,470" opacity="0.3" />
<path d="M30,530 Q50,533.386122891936 70,530 Q90,533.386122891936 110,530 Q130,533.386122891936 150,530 Q170,533.386122891936 190,530 Q210,533.386122891936 230,530 Q250,533.386122891936 270,530 Q290,533.386122891936 310,530 Q330,533.386122891936 350,530 Q370,533.386122891936 390,530 Q410,533.386122891936 430,530 Q450,533.386122891936 470,530 Q490,533.386122891936 510,530 Q530,533.386122891936 550,530 Q570,533.386122891936 590,530 Q610,533.386122891936 630,530 Q650,533.386122891936 670,530 Q690,533.386122891936 710,530 Q730,533.386122891936 750,530 Q770,533.386122891936 790,530" opacity="0.3" />
<path d="M30,590 Q50,594.5323745761144 70,590 Q90,594.5323745761144 110,590 Q130,594.5323745761144 150,590 Q170,594.5323745761144 190,590 Q210,594.5323745761144 230,590 Q250,594.5323745761144 270,590 Q290,594.5323745761144 310,590 Q330,594.5323745761144 350,590 Q370,594.5323745761144 390,590 Q410,594.5323745761144 430,590 Q450,594.5323745761144 470,590 Q490,594.5323745761144 510,590 Q530,594.5323745761144 550,590 Q570,594.5323745761144 590,590 Q610,594.5323745761144 630,590 Q650,594.5323745761144 670,590 Q690,594.5323745761144 710,590 Q730,594.5323745761144 750,590 Q770,594.5323745761144 790,590" opacity="0.3" />
<path d="M30,650 Q50,660.1008351841332 70,650 Q90,660.1008351841332 110,650 Q130,660.1008351841332 150,650 Q170,660.1008351841332 190,650 Q210,660.1008351841332 230,650 Q250,660.1008351841332 270,650 Q290,660.1008351841332 310,650 Q330,660.1008351841332 350,650 Q370,660.1008351841332 390,650 Q410,660.1008351841332 430,650 Q450,660.1008351841332 470,650 Q490,660.1008351841332 510,650 Q530,660.1008351841332 550,650 Q570,660.1008351841332 590,650 Q610,660.1008351841332 630,650 Q650,660.1008351841332 670,650 Q690,660.1008351841332 710,650 Q730,660.1008351841332 750,650 Q770,660.1008351841332 790,650" opacity="0.3" />
<path d="M30,710 Q50,722.9901332635818 70,710 Q90,722.9901332635818 110,710 Q130,722.9901332635818 150,710 Q170,722.9901332635818 190,710 Q210,722.9901332635818 230,710 Q250,722.9901332635818 270,710 Q290,722.9901332635818 310,710 Q330,722.9901332635818 350,710 Q370,722.9901332635818 390,710 Q410,722.9901332635818 430,710 Q450,722.9901332635818 470,710 Q490,722.9901332635818 510,710 Q530,722.9901332635818 550,710 Q570,722.9901332635818 590,710 Q610,722.9901332635818 630,710 Q650,722.9901332635818 670,710 Q690,722.9901332635818 710,710 Q730,722.9901332635818 750,710 Q770,722.9901332635818 790,710" opacity="0.3" />
<path d="M30,770 Q50,779.5155917837285 70,770 Q90,779.5155917837285 110,770 Q130,779.5155917837285 150,770 Q170,779.5155917837285 190,770 Q210,779.5155917837285 230,770 Q250,779.5155917837285 270,770 Q290,779.5155917837285 310,770 Q330,779.5155917837285 350,770 Q370,779.5155917837285 390,770 Q410,779.5155917837285 430,770 Q450,779.5155917837285 470,770 Q490,779.5155917837285 510,770 Q530,779.5155917837285 550,770 Q570,779.5155917837285 590,770 Q610,779.5155917837285 630,770 Q650,779.5155917837285 670,770 Q690,779.5155917837285 710,770 Q730,779.5155917837285 750,770 Q770,779.5155917837285 790,770" opacity="0.3" />
</svg>