<svg xmlns="http://www.w3.org/2000/svg" viewBox="0 0 800 800" fill="none" stroke="black" stroke-width="1.5" stroke-linecap="round" stroke-linejoin="round">
<line x1="400" y1="650" x2="-300" y2="649.9999999999999" />
<line x1="400" y1="650" x2="-297.3362886642219" y2="588.990980076639" />
<line x1="400" y1="650" x2="-289.36542710854565" y2="528.4462756331488" />
<line x1="400" y1="650" x2="-276.1480784023478" y2="468.8266684282353" />
<line x1="400" y1="650" x2="-257.78483455013577" y2="410.5858996720318" />
<line x1="400" y1="650" x2="-234.4154509256549" y2="354.1672167815104" />
<line x1="400" y1="650" x2="-206.2177826491071" y2="300.00000000000006" />
<line x1="400" y1="650" x2="-173.40643100229408" y2="248.49649455426754" />
<line x1="400" y1="650" x2="-136.2311101832845" y2="200.04867321942237" />
<line x1="400" y1="650" x2="-94.97474683058323" y2="155.02525316941671" />
<line x1="400" y1="650" x2="-49.951326780577574" y2="113.76888981671539" />
<line x1="400" y1="650" x2="-1.5035054457320598" y2="76.59356899770557" />
<line x1="400" y1="650" x2="50.00000000000017" y2="43.78221735089289" />
<line x1="400" y1="650" x2="104.16721678151049" y2="15.584549074344977" />
<line x1="400" y1="650" x2="160.5858996720319" y2="-7.7848345501358835" />
<line x1="400" y1="650" x2="218.8266684282354" y2="-26.148078402347778" />
<line x1="400" y1="650" x2="278.4462756331488" y2="-39.365427108545646" />
<line x1="400" y1="650" x2="338.99098007663923" y2="-47.33628866422191" />
<line x1="400" y1="650" x2="400.00000000000006" y2="-50" />
<line x1="400" y1="650" x2="461.0090199233607" y2="-47.33628866422191" />
<line x1="400" y1="650" x2="521.5537243668513" y2="-39.365427108545646" />
<line x1="400" y1="650" x2="581.1733315717645" y2="-26.148078402347778" />
<line x1="400" y1="650" x2="639.4141003279682" y2="-7.78483455013577" />
<line x1="400" y1="650" x2="695.8327832184896" y2="15.584549074345091" />
<line x1="400" y1="650" x2="750" y2="43.782217350893006" />
<line x1="400" y1="650" x2="801.5035054457322" y2="76.59356899770569" />
<line x1="400" y1="650" x2="849.9513267805776" y2="113.76888981671539" />
<line x1="400" y1="650" x2="894.9747468305833" y2="155.02525316941677" />
<line x1="400" y1="650" x2="936.2311101832846" y2="200.04867321942254" />
<line x1="400" y1="650" x2="973.4064310022943" y2="248.49649455426777" />
<line x1="400" y1="650" x2="1006.2177826491071" y2="300.00000000000006" />
<line x1="400" y1="650" x2="1034.415450925655" y2="354.1672167815104" />
<line x1="400" y1="650" x2="1057.7848345501359" y2="410.5858996720319" />
<line x1="400" y1="650" x2="1076.148078402348" y2="468.8266684282355" />
<line x1="400" y1="650" x2="1089.3654271085456" y2="528.4462756331487" />
<line x1="400" y1="650" x2="1097.336288664222" y2="588.9909800766393" />
<path d="M320,650 A80,80 0 0,1 480,650" />
<path d="M240,650 A160,160 0 0,1 560,650" />
<path d="M160,650 A240,240 0 0,1 640,650" />
<path d="M80,650 A320,320 0 0,1 720,650" />
<path d="M0,650 A400,400 0 0,1 800,650" />
<path d="M-100,650 A500,500 0 0,1 900,650" />
<line x1="20" y1="650" x2="780" y2="650" />
<path d="M40,670 L77,690 L40,710 L3,690 Z" />
<path d="M115,670 L152,690 L115,710 L78,690 Z" />
<path d="M190,670 L227,690 L190,710 L153,690 Z" />
<path d="M265,670 L302,690 L265,710 L228,690 Z" />
<path d="M340,670 L377,690 L340,710 L303,690 Z" />
<path d="M415,670 L452,690 L415,710 L378,690 Z" />
<path d="M490,670 L527,690 L490,710 L453,690 Z" />
<path d="M565,670 L602,690 L565,710 L528,690 Z" />
<path d="M640,670 L677,690 L640,710 L603,690 Z" />
<path d="M715,670 L752,690 L715,710 L678,690 Z" />
<path d="M40,710 L77,730 L40,750 L3,730 Z" />
<path d="M115,710 L152,730 L115,750 L78,730 Z" />
<path d="M190,710 L227,730 L190,750 L153,730 Z" />
<path d="M265,710 L302,730 L265,750 L228,730 Z" />
<path d="M340,710 L377,730 L340,750 L303,730 Z" />
<path d="M415,710 L452,730 L415,750 L378,730 Z" />
<path d="M490,710 L527,730 L490,750 L453,730 Z" />
<path d="M565,710 L602,730 L565,750 L528,730 Z" />
<path d="M640,710 L677,730 L640,750 L603,730 Z" />
<path d="M715,710 L752,730 L715,750 L678,730 Z" />
<path d="M40,750 L77,770 L40,790 L3,770 Z" />
<path d="M115,750 L152,770 L115,790 L78,770 Z" />
<path d="M190,750 L227,770 L190,790 L153,770 Z" />
<path d="M265,750 L302,770 L265,790 L228,770 Z" />
<path d="M340,750 L377,770 L340,790 L303,770 Z" />
<path d="M415,750 L452,770 L415,790 L378,770 Z" />
<path d="M490,750 L527,770 L490,790 L453,770 Z" />
<path d="M565,750 L602,770 L565,790 L528,770 Z" />
<path d="M640,750 L677,770 L640,790 L603,770 Z" />
<path d="M715,750 L752,770 L715,790 L678,770 Z" />
<path d="M203.0384493975584,615.270364466614 L124.25382915658173,601.3785102532595 L131.76293655166313,569.6950948408947 Z" />
<path d="M208.40209753690223,592.6393534577819 L131.76293655166313,569.6950948408947 L142.89949007352328,539.0976655090361 Z" />
<path d="M216.3567786239452,570.7840467921686 L142.89949007352328,539.0976655090361 L157.51288694035716,510 Z" />
<path d="M226.79491924311225,550 L157.51288694035716,510 L175.40550602858772,482.79559432321986 Z" />
<path d="M239.57536144899123,530.5682816594427 L175.40550602858772,482.79559432321986 L196.33538035954635,457.8523413967546 Z" />
<path d="M254.52527168539027,512.7516724262533 L196.33538035954635,457.8523413967546 L220.01946928776897,435.50755592668617 Z" />
<path d="M271.4424780626921,496.7911113762044 L220.01946928776897,435.50755592668617 L246.13748614017442,416.0634128043777 Z" />
<path d="M290.09820438583887,482.9024377174127 L246.13748614017442,416.0634128043777 L274.3362295438707,399.7828607094445 Z" />
<path d="M310.24016395990765,471.2734719353175 L274.3362295438707,399.7828607094445 L304.2343598688128,386.88606617994566 Z" />
<path d="M331.59597133486625,462.0614758428183 L304.23435986881276,386.88606617994566 L335.4275561921168,377.5474362376493 Z" />
<path d="M353.876825851512,455.39102588403523 L335.4275561921168,377.5474362376493 L367.4939840449356,371.893259832256 Z" />
<path d="M376.781417174954,451.35232845161136 L367.4939840449356,371.893259832256 L400.00000000000006,370 Z" />
<path d="M400,450 L400,370 L432.50601595506447,371.893259832256 Z" />
<path d="M423.21858282504604,451.35232845161136 L432.50601595506447,371.893259832256 L464.57244380788336,377.5474362376493 Z" />
<path d="M446.1231741484881,455.39102588403523 L464.57244380788336,377.5474362376493 L495.76564013118735,386.88606617994566 Z" />
<path d="M468.40402866513375,462.06147584281837 L495.7656401311873,386.88606617994566 L525.6637704561293,399.78286070944455 Z" />
<path d="M489.75983604009247,471.27347193531756 L525.6637704561294,399.7828607094446 L553.8625138598258,416.0634128043778 Z" />
<path d="M509.90179561416124,482.90243771741274 L553.8625138598258,416.0634128043778 L579.980530712231,435.5075559266862 Z" />
<path d="M528.5575219373079,496.7911113762044 L579.980530712231,435.50755592668617 L603.6646196404537,457.8523413967546 Z" />
<path d="M545.4747283146097,512.7516724262533 L603.6646196404537,457.8523413967546 L624.5944939714122,482.79559432321986 Z" />
<path d="M560.4246385510088,530.5682816594428 L624.5944939714122,482.7955943232199 L642.4871130596429,510.00000000000006 Z" />
<path d="M573.2050807568878,550 L642.4871130596429,510 L657.1005099264767,539.0976655090361 Z" />
<path d="M583.6432213760548,570.7840467921687 L657.1005099264768,539.0976655090361 L668.2370634483369,569.6950948408949 Z" />
<path d="M591.5979024630977,592.639353457782 L668.2370634483368,569.6950948408947 L675.7461708434182,601.3785102532596 Z" />
<path d="M350,650 A50,50 0 0,1 450,650" />
</svg>