<svg xmlns="http://www.w3.org/2000/svg" viewBox="0 0 800 800" fill="none" stroke="black" stroke-width="1.5" stroke-linecap="round" stroke-linejoin="round">
<path d="M150,165 Q162.5,164 175,160 Q162.5,156 150,155 Z" />
<path d="M145.15124368228712,169.92293749479947 Q155.85174136426642,176.46123615408044 168.31559480312316,180.57248383023656 Q160.55402338260623,169.98910019908087 151.02909620521186,161.83276755105 Z" />
<path d="M138.33488736227372,171.05565013482627 Q143.1486563082557,182.63483959414074 150.81559480312316,193.28697807033038 Q150.75710843861694,180.16270363914117 147.84545252522526,167.9654801910768 Z" />
<path d="M132.15454747477474,167.9654801910768 Q129.24289156138303,180.16270363914117 129.18440519687684,193.28697807033038 Q136.85134369174432,182.63483959414074 141.66511263772628,171.05565013482627 Z" />
<path d="M128.97090379478817,161.83276755105 Q119.4459766173938,169.98910019908087 111.68440519687684,180.57248383023656 Q124.14825863573358,176.46123615408044 134.8487563177129,169.92293749479947 Z" />
<path d="M130,155 Q117.5,156 105,160 Q117.5,164 130,165 Z" />
<path d="M134.84875631771288,150.07706250520053 Q124.14825863573357,143.53876384591956 111.68440519687684,139.42751616976344 Q119.44597661739378,150.01089980091913 128.97090379478814,158.16723244895 Z" />
<path d="M141.66511263772628,148.94434986517373 Q136.8513436917443,137.36516040585926 129.18440519687684,126.71302192966962 Q129.24289156138306,139.83729636085883 132.15454747477474,152.0345198089232 Z" />
<path d="M147.84545252522523,152.0345198089232 Q150.7571084386169,139.83729636085883 150.81559480312316,126.71302192966962 Q143.14865630825568,137.36516040585926 138.3348873622737,148.94434986517373 Z" />
<path d="M151.02909620521183,158.16723244895 Q160.5540233826062,150.01089980091913 168.31559480312316,139.42751616976344 Q155.8517413642664,143.53876384591956 145.1512436822871,150.07706250520053 Z" />
<circle cx="140" cy="160" r="10" />
<circle cx="145.70633909777092" cy="161.8541019662497" r="2" />
<circle cx="143.52671151375483" cy="164.8541019662497" r="2" />
<circle cx="140" cy="166" r="2" />
<circle cx="136.47328848624517" cy="164.8541019662497" r="2" />
<circle cx="134.29366090222908" cy="161.8541019662497" r="2" />
<circle cx="134.29366090222908" cy="158.1458980337503" r="2" />
<circle cx="136.47328848624517" cy="155.1458980337503" r="2" />
<circle cx="140" cy="154" r="2" />
<circle cx="143.52671151375483" cy="155.1458980337503" r="2" />
<circle cx="145.70633909777092" cy="158.1458980337503" r="2" />
<path d="M140,170 Q145,210 135,240" />
<path d="M210,215 Q222.5,214 235,210 Q222.5,206 210,205 Z" />
<path d="M205.15124368228712,219.92293749479947 Q215.85174136426642,226.46123615408044 228.31559480312316,230.57248383023656 Q220.55402338260623,219.98910019908087 211.02909620521186,211.83276755105 Z" />
<path d="M198.33488736227372,221.05565013482627 Q203.1486563082557,232.63483959414074 210.81559480312316,243.28697807033038 Q210.75710843861694,230.16270363914117 207.84545252522526,217.9654801910768 Z" />
<path d="M192.15454747477474,217.9654801910768 Q189.24289156138303,230.16270363914117 189.18440519687684,243.28697807033038 Q196.85134369174432,232.63483959414074 201.66511263772628,221.05565013482627 Z" />
<path d="M188.97090379478817,211.83276755105 Q179.4459766173938,219.98910019908087 171.68440519687684,230.57248383023656 Q184.1482586357336,226.46123615408044 194.8487563177129,219.92293749479947 Z" />
<path d="M190,205 Q177.5,206 165,210 Q177.5,214 190,215 Z" />
<path d="M194.84875631771288,200.07706250520053 Q184.14825863573358,193.53876384591956 171.68440519687684,189.42751616976344 Q179.44597661739377,200.01089980091913 188.97090379478814,208.16723244895 Z" />
<path d="M201.66511263772628,198.94434986517373 Q196.8513436917443,187.36516040585926 189.18440519687684,176.71302192966962 Q189.24289156138306,189.83729636085883 192.15454747477474,202.0345198089232 Z" />
<path d="M207.84545252522523,202.0345198089232 Q210.7571084386169,189.83729636085883 210.81559480312316,176.71302192966962 Q203.14865630825568,187.36516040585926 198.3348873622737,198.94434986517373 Z" />
<path d="M211.02909620521183,208.16723244895 Q220.5540233826062,200.01089980091913 228.31559480312316,189.42751616976344 Q215.8517413642664,193.53876384591956 205.1512436822871,200.07706250520053 Z" />
<circle cx="200" cy="210" r="10" />
<circle cx="205.70633909777092" cy="211.8541019662497" r="2" />
<circle cx="203.52671151375483" cy="214.8541019662497" r="2" />
<circle cx="200" cy="216" r="2" />
<circle cx="196.47328848624517" cy="214.8541019662497" r="2" />
<circle cx="194.29366090222908" cy="211.8541019662497" r="2" />
<circle cx="194.29366090222908" cy="208.1458980337503" r="2" />
<circle cx="196.47328848624517" cy="205.1458980337503" r="2" />
<circle cx="200" cy="204" r="2" />
<circle cx="203.52671151375483" cy="205.1458980337503" r="2" />
<circle cx="205.70633909777092" cy="208.1458980337503" r="2" />
<path d="M200,220 Q205,260 195,290" />
<path d="M230,165 Q242.5,164 255,160 Q242.5,156 230,155 Z" />
<path d="M225.15124368228712,169.92293749479947 Q235.85174136426642,176.46123615408044 248.31559480312316,180.57248383023656 Q240.55402338260623,169.98910019908087 231.02909620521186,161.83276755105 Z" />
<path d="M218.33488736227372,171.05565013482627 Q223.1486563082557,182.63483959414074 230.81559480312316,193.28697807033038 Q230.75710843861694,180.16270363914117 227.84545252522526,167.9654801910768 Z" />
<path d="M212.15454747477474,167.9654801910768 Q209.24289156138303,180.16270363914117 209.18440519687684,193.28697807033038 Q216.85134369174432,182.63483959414074 221.66511263772628,171.05565013482627 Z" />
<path d="M208.97090379478817,161.83276755105 Q199.4459766173938,169.98910019908087 191.68440519687684,180.57248383023656 Q204.1482586357336,176.46123615408044 214.8487563177129,169.92293749479947 Z" />
<path d="M210,155 Q197.5,156 185,160 Q197.5,164 210,165 Z" />
<path d="M214.84875631771288,150.07706250520053 Q204.14825863573358,143.53876384591956 191.68440519687684,139.42751616976344 Q199.44597661739377,150.01089980091913 208.97090379478814,158.16723244895 Z" />
<path d="M221.66511263772628,148.94434986517373 Q216.8513436917443,137.36516040585926 209.18440519687684,126.71302192966962 Q209.24289156138306,139.83729636085883 212.15454747477474,152.0345198089232 Z" />
<path d="M227.84545252522523,152.0345198089232 Q230.7571084386169,139.83729636085883 230.81559480312316,126.71302192966962 Q223.14865630825568,137.36516040585926 218.3348873622737,148.94434986517373 Z" />
<path d="M231.02909620521183,158.16723244895 Q240.5540233826062,150.01089980091913 248.31559480312316,139.42751616976344 Q235.8517413642664,143.53876384591956 225.1512436822871,150.07706250520053 Z" />
<circle cx="220" cy="160" r="10" />
<circle cx="225.70633909777092" cy="161.8541019662497" r="2" />
<circle cx="223.52671151375483" cy="164.8541019662497" r="2" />
<circle cx="220" cy="166" r="2" />
<circle cx="216.47328848624517" cy="164.8541019662497" r="2" />
<circle cx="214.29366090222908" cy="161.8541019662497" r="2" />
<circle cx="214.29366090222908" cy="158.1458980337503" r="2" />
<circle cx="216.47328848624517" cy="155.1458980337503" r="2" />
<circle cx="220" cy="154" r="2" />
<circle cx="223.52671151375483" cy="155.1458980337503" r="2" />
<circle cx="225.70633909777092" cy="158.1458980337503" r="2" />
<path d="M220,170 Q225,210 215,240" />
<path d="M290,215 Q302.5,214 315,210 Q302.5,206 290,205 Z" />
<path d="M285.1512436822871,219.92293749479947 Q295.85174136426645,226.46123615408044 308.3155948031232,230.57248383023656 Q300.55402338260626,219.98910019908087 291.02909620521183,211.83276755105 Z" />
<path d="M278.3348873622737,221.05565013482627 Q283.1486563082557,232.63483959414074 290.8155948031232,243.28697807033038 Q290.7571084386169,230.16270363914117 287.8454525252252,217.9654801910768 Z" />
<path d="M272.15454747477474,217.9654801910768 Q269.2428915613831,230.16270363914117 269.18440519687687,243.28697807033038 Q276.8513436917443,232.63483959414074 281.66511263772634,221.05565013482627 Z" />
<path d="M268.97090379478817,211.83276755105 Q259.4459766173938,219.98910019908087 251.68440519687684,230.57248383023656 Q264.1482586357336,226.46123615408044 274.8487563177129,219.92293749479947 Z" />
<path d="M270,205 Q257.5,206 245,210 Q257.5,214 270,215 Z" />
<path d="M274.8487563177129,200.07706250520053 Q264.1482586357336,193.53876384591956 251.68440519687684,189.42751616976344 Q259.4459766173938,200.01089980091913 268.97090379478817,208.16723244895 Z" />
<path d="M281.6651126377263,198.94434986517373 Q276.8513436917443,187.36516040585926 269.1844051968768,176.71302192966962 Q269.2428915613831,189.83729636085883 272.1545474747748,202.0345198089232 Z" />
<path d="M287.84545252522526,202.0345198089232 Q290.7571084386169,189.83729636085883 290.81559480312313,176.71302192966962 Q283.1486563082557,187.36516040585926 278.33488736227366,198.94434986517373 Z" />
<path d="M291.02909620521183,208.16723244895 Q300.5540233826062,200.01089980091913 308.31559480312313,189.42751616976344 Q295.8517413642664,193.53876384591956 285.1512436822871,200.07706250520053 Z" />
<circle cx="280" cy="210" r="10" />
<circle cx="285.7063390977709" cy="211.8541019662497" r="2" />
<circle cx="283.52671151375483" cy="214.8541019662497" r="2" />
<circle cx="280" cy="216" r="2" />
<circle cx="276.47328848624517" cy="214.8541019662497" r="2" />
<circle cx="274.2936609022291" cy="211.8541019662497" r="2" />
<circle cx="274.2936609022291" cy="208.1458980337503" r="2" />
<circle cx="276.47328848624517" cy="205.1458980337503" r="2" />
<circle cx="280" cy="204" r="2" />
<circle cx="283.52671151375483" cy="205.1458980337503" r="2" />
<circle cx="285.7063390977709" cy="208.1458980337503" r="2" />
<path d="M280,220 Q285,260 275,290" />
<path d="M550,650 Q553,550 548,450" />
<ellipse cx="544" cy="600" rx="5" ry="3" transform="rotate(-20 544 600)" />
<ellipse cx="556" cy="582" rx="5" ry="3" transform="rotate(20 556 582)" />
<ellipse cx="544" cy="564" rx="5" ry="3" transform="rotate(-20 544 564)" />
<ellipse cx="556" cy="546" rx="5" ry="3" transform="rotate(20 556 546)" />
<ellipse cx="544" cy="528" rx="5" ry="3" transform="rotate(-20 544 528)" />
<ellipse cx="556" cy="510" rx="5" ry="3" transform="rotate(20 556 510)" />
<ellipse cx="544" cy="492" rx="5" ry="3" transform="rotate(-20 544 492)" />
<ellipse cx="556" cy="474" rx="5" ry="3" transform="rotate(20 556 474)" />
<path d="M585,650 Q588,550 583,450" />
<ellipse cx="579" cy="600" rx="5" ry="3" transform="rotate(-20 579 600)" />
<ellipse cx="591" cy="582" rx="5" ry="3" transform="rotate(20 591 582)" />
<ellipse cx="579" cy="564" rx="5" ry="3" transform="rotate(-20 579 564)" />
<ellipse cx="591" cy="546" rx="5" ry="3" transform="rotate(20 591 546)" />
<ellipse cx="579" cy="528" rx="5" ry="3" transform="rotate(-20 579 528)" />
<ellipse cx="591" cy="510" rx="5" ry="3" transform="rotate(20 591 510)" />
<ellipse cx="579" cy="492" rx="5" ry="3" transform="rotate(-20 579 492)" />
<ellipse cx="591" cy="474" rx="5" ry="3" transform="rotate(20 591 474)" />
<path d="M620,650 Q623,550 618,450" />
<ellipse cx="614" cy="600" rx="5" ry="3" transform="rotate(-20 614 600)" />
<ellipse cx="626" cy="582" rx="5" ry="3" transform="rotate(20 626 582)" />
<ellipse cx="614" cy="564" rx="5" ry="3" transform="rotate(-20 614 564)" />
<ellipse cx="626" cy="546" rx="5" ry="3" transform="rotate(20 626 546)" />
<ellipse cx="614" cy="528" rx="5" ry="3" transform="rotate(-20 614 528)" />
<ellipse cx="626" cy="510" rx="5" ry="3" transform="rotate(20 626 510)" />
<ellipse cx="614" cy="492" rx="5" ry="3" transform="rotate(-20 614 492)" />
<ellipse cx="626" cy="474" rx="5" ry="3" transform="rotate(20 626 474)" />
<path d="M655,650 Q658,550 653,450" />
<ellipse cx="649" cy="600" rx="5" ry="3" transform="rotate(-20 649 600)" />
<ellipse cx="661" cy="582" rx="5" ry="3" transform="rotate(20 661 582)" />
<ellipse cx="649" cy="564" rx="5" ry="3" transform="rotate(-20 649 564)" />
<ellipse cx="661" cy="546" rx="5" ry="3" transform="rotate(20 661 546)" />
<ellipse cx="649" cy="528" rx="5" ry="3" transform="rotate(-20 649 528)" />
<ellipse cx="661" cy="510" rx="5" ry="3" transform="rotate(20 661 510)" />
<ellipse cx="649" cy="492" rx="5" ry="3" transform="rotate(-20 649 492)" />
<ellipse cx="661" cy="474" rx="5" ry="3" transform="rotate(20 661 474)" />
<path d="M690,650 Q693,550 688,450" />
<ellipse cx="684" cy="600" rx="5" ry="3" transform="rotate(-20 684 600)" />
<ellipse cx="696" cy="582" rx="5" ry="3" transform="rotate(20 696 582)" />
<ellipse cx="684" cy="564" rx="5" ry="3" transform="rotate(-20 684 564)" />
<ellipse cx="696" cy="546" rx="5" ry="3" transform="rotate(20 696 546)" />
<ellipse cx="684" cy="528" rx="5" ry="3" transform="rotate(-20 684 528)" />
<ellipse cx="696" cy="510" rx="5" ry="3" transform="rotate(20 696 510)" />
<ellipse cx="684" cy="492" rx="5" ry="3" transform="rotate(-20 684 492)" />
<ellipse cx="696" cy="474" rx="5" ry="3" transform="rotate(20 696 474)" />
<path d="M120,520 Q139.52627944162882,508.17949192431126 140,485.3589838486225 Q120.47372055837117,497.17949192431126 120,520 M120,520 L140,485.3589838486225" />
<line x1="126" y1="509.60769515458674" x2="132.9282032302755" y2="513.6076951545867" />
<line x1="126" y1="509.60769515458674" x2="119.07179676972449" y2="505.60769515458674" />
<line x1="131" y1="500.94744111674237" x2="137.9282032302755" y2="504.94744111674237" />
<line x1="131" y1="500.94744111674237" x2="124.07179676972449" y2="496.94744111674237" />
<line x1="136" y1="492.28718707889794" x2="142.9282032302755" y2="496.28718707889794" />
<line x1="136" y1="492.28718707889794" x2="129.0717967697245" y2="488.28718707889794" />
<path d="M190,520 Q212.8205080756888,519.5262794416288 224.64101615137756,500 Q201.8205080756888,500.47372055837116 190,520 M190,520 L224.64101615137756,500" />
<line x1="200.39230484541326" y1="514" x2="204.39230484541326" y2="520.9282032302755" />
<line x1="200.39230484541326" y1="514" x2="196.39230484541326" y2="507.0717967697245" />
<line x1="209.05255888325766" y1="509" x2="213.05255888325766" y2="515.9282032302755" />
<line x1="209.05255888325766" y1="509" x2="205.05255888325766" y2="502.0717967697245" />
<line x1="217.71281292110203" y1="504" x2="221.71281292110203" y2="510.9282032302755" />
<line x1="217.71281292110203" y1="504" x2="213.71281292110203" y2="497.0717967697245" />
<path d="M260,520 Q279.52627944162884,508.17949192431126 280,485.3589838486225 Q260.47372055837116,497.17949192431126 260,520 M260,520 L280,485.3589838486225" />
<line x1="266" y1="509.60769515458674" x2="272.9282032302755" y2="513.6076951545867" />
<line x1="266" y1="509.60769515458674" x2="259.0717967697245" y2="505.60769515458674" />
<line x1="271" y1="500.94744111674237" x2="277.9282032302755" y2="504.94744111674237" />
<line x1="271" y1="500.94744111674237" x2="264.0717967697245" y2="496.94744111674237" />
<line x1="276" y1="492.28718707889794" x2="282.9282032302755" y2="496.28718707889794" />
<line x1="276" y1="492.28718707889794" x2="269.0717967697245" y2="488.28718707889794" />
<path d="M120,600 Q142.8205080756888,599.5262794416288 154.64101615137756,580 Q131.8205080756888,580.4737205583712 120,600 M120,600 L154.64101615137756,580" />
<line x1="130.39230484541326" y1="594" x2="134.39230484541326" y2="600.9282032302755" />
<line x1="130.39230484541326" y1="594" x2="126.39230484541326" y2="587.0717967697245" />
<line x1="139.05255888325766" y1="589" x2="143.05255888325766" y2="595.9282032302755" />
<line x1="139.05255888325766" y1="589" x2="135.05255888325766" y2="582.0717967697245" />
<line x1="147.71281292110203" y1="584" x2="151.71281292110203" y2="590.9282032302755" />
<line x1="147.71281292110203" y1="584" x2="143.71281292110203" y2="577.0717967697245" />
<path d="M190,600 Q209.52627944162882,588.1794919243112 210,565.3589838486224 Q190.47372055837118,577.1794919243112 190,600 M190,600 L210,565.3589838486224" />
<line x1="196" y1="589.6076951545867" x2="202.9282032302755" y2="593.6076951545867" />
<line x1="196" y1="589.6076951545867" x2="189.0717967697245" y2="585.6076951545867" />
<line x1="201" y1="580.9474411167423" x2="207.9282032302755" y2="584.9474411167423" />
<line x1="201" y1="580.9474411167423" x2="194.0717967697245" y2="576.9474411167423" />
<line x1="206" y1="572.287187078898" x2="212.9282032302755" y2="576.287187078898" />
<line x1="206" y1="572.287187078898" x2="199.0717967697245" y2="568.287187078898" />
<path d="M260,600 Q282.82050807568874,599.5262794416288 294.6410161513775,580 Q271.82050807568874,580.4737205583712 260,600 M260,600 L294.6410161513775,580" />
<line x1="270.39230484541326" y1="594" x2="274.39230484541326" y2="600.9282032302755" />
<line x1="270.39230484541326" y1="594" x2="266.39230484541326" y2="587.0717967697245" />
<line x1="279.05255888325763" y1="589" x2="283.05255888325763" y2="595.9282032302755" />
<line x1="279.05255888325763" y1="589" x2="275.05255888325763" y2="582.0717967697245" />
<line x1="287.71281292110206" y1="584" x2="291.71281292110206" y2="590.9282032302755" />
<line x1="287.71281292110206" y1="584" x2="283.71281292110206" y2="577.0717967697245" />
<path d="M320,340 Q310,420 340,460 L460,460 Q490,420 480,340 Z" />
<path d="M480,370 Q520,370 520,400 Q520,430 480,430" />
<path d="M310,460 Q400,480 490,460" />
<path d="M370,320 Q365,300 375,280 Q385,260 370,240" />
<path d="M410,325 Q405,305 415,285 Q425,265 410,245" />
<path d="M60.175623409613614,291.7079657238982 Q65.19292701965595,303.50009541894946 76.22619793636062,310.0188829702393 Q71.20889432631829,298.22675327518806 60.175623409613614,291.7079657238982 M60.175623409613614,291.7079657238982 L76.22619793636062,310.0188829702393" />
<path d="M455.29680739650206,213.44414095715072 Q444.60004951705344,216.07005755970786 438.5018671810889,225.24220231066232 Q449.19862506053755,222.6162857081052 455.29680739650206,213.44414095715072 M455.29680739650206,213.44414095715072 L438.5018671810889,225.24220231066232" />
<path d="M343.4113467889012,634.5085848630486 Q347.148822556873,645.3802530874995 357.074056318832,651.1812555757924 Q353.3365805508602,640.3095873513415 343.4113467889012,634.5085848630486 M343.4113467889012,634.5085848630486 L357.074056318832,651.1812555757924" />
<path d="M346.8623665784135,155.79815996419467 Q335.1308414114337,153.24077800507916 324.3966768210252,158.62098206945353 Q336.128201988005,161.17836402856904 346.8623665784135,155.79815996419467 M346.8623665784135,155.79815996419467 L324.3966768210252,158.62098206945353" />
<path d="M160.59217842350915,232.74729834194042 Q159.69683664985484,244.19513956309785 166.49488123406826,253.449397790937 Q167.39022300772257,242.00155656977958 160.59217842350915,232.74729834194042 M160.59217842350915,232.74729834194042 L166.49488123406826,253.449397790937" />
<path d="M588.3852667625856,511.1796652629782 Q589.4865079971205,500.7627627975963 582.913807042995,492.6065264475659 Q581.81256580846,503.02342891294774 588.3852667625856,511.1796652629782 M588.3852667625856,511.1796652629782 L582.913807042995,492.6065264475659" />
<path d="M687.9850229881564,324.2817688400687 Q683.1566101398486,317.0998553048817 674.5039014937831,316.9446594708162 Q679.3323143420911,324.1265730060032 687.9850229881564,324.2817688400687 M687.9850229881564,324.2817688400687 L674.5039014937831,316.9446594708162" />
<path d="M555.0255676498875,154.71693906441044 Q556.1802895684788,163.31937221769226 563.881229604989,167.323215548797 Q562.7265076863977,158.7207823955152 555.0255676498875,154.71693906441044 M555.0255676498875,154.71693906441044 L563.881229604989,167.323215548797" />
<path d="M509.4451777166176,445.1036874624935 Q517.3276474311907,439.26998969701594 518.2419567116627,429.50631226688006 Q510.3594869970896,435.34001003235767 509.4451777166176,445.1036874624935 M509.4451777166176,445.1036874624935 L518.2419567116627,429.50631226688006" />
<path d="M656.4094633575617,713.8513047377126 Q665.3684712171331,721.4145273151415 677.0929317918277,721.4709349034811 Q668.1339239322564,713.9077123260521 656.4094633575617,713.8513047377126 M656.4094633575617,713.8513047377126 L677.0929317918277,721.4709349034811" />
<path d="M163.55259260493574,348.4284224625942 Q174.14753377487565,341.982451057849 178.6022277641979,330.40838404548145 Q168.00728659425798,336.8543554502266 163.55259260493574,348.4284224625942 M163.55259260493574,348.4284224625942 L178.6022277641979,330.40838404548145" />
<path d="M400.0768173114181,331.07121317747163 Q400.25712929283134,343.45343928520987 407.97017884065343,353.14162293678453 Q407.7898668592402,340.75939682904624 400.0768173114181,331.07121317747163 M400.0768173114181,331.07121317747163 L407.97017884065343,353.14162293678453" />
<path d="M20,20 Q400,40 780,20" />
<path d="M20,780 Q400,760 780,780" />
<path d="M20,20 Q40,400 20,780" />
<path d="M780,20 Q760,400 780,780" />
</svg>