<svg xmlns="http://www.w3.org/2000/svg" viewBox="0 0 800 800" fill="none" stroke="black" stroke-width="1.5" stroke-linecap="round" stroke-linejoin="round">
<rect x="25" y="40" width="50" height="20" rx="3" />
<rect x="90" y="25" width="20" height="50" rx="3" />
<rect x="125" y="40" width="50" height="20" rx="3" />
<rect x="190" y="25" width="20" height="50" rx="3" />
<rect x="225" y="40" width="50" height="20" rx="3" />
<rect x="290" y="25" width="20" height="50" rx="3" />
<rect x="325" y="40" width="50" height="20" rx="3" />
<rect x="390" y="25" width="20" height="50" rx="3" />
<rect x="425" y="40" width="50" height="20" rx="3" />
<rect x="490" y="25" width="20" height="50" rx="3" />
<rect x="525" y="40" width="50" height="20" rx="3" />
<rect x="590" y="25" width="20" height="50" rx="3" />
<rect x="625" y="40" width="50" height="20" rx="3" />
<rect x="690" y="25" width="20" height="50" rx="3" />
<rect x="725" y="40" width="50" height="20" rx="3" />
<rect x="40" y="75" width="20" height="50" rx="3" />
<rect x="75" y="90" width="50" height="20" rx="3" />
<path d="M75,69 L81,75 L75,81 L69,75 Z" />
<rect x="140" y="75" width="20" height="50" rx="3" />
<path d="M125,69 L131,75 L125,81 L119,75 Z" />
<rect x="175" y="90" width="50" height="20" rx="3" />
<path d="M175,69 L181,75 L175,81 L169,75 Z" />
<rect x="240" y="75" width="20" height="50" rx="3" />
<path d="M225,69 L231,75 L225,81 L219,75 Z" />
<rect x="275" y="90" width="50" height="20" rx="3" />
<path d="M275,69 L281,75 L275,81 L269,75 Z" />
<rect x="340" y="75" width="20" height="50" rx="3" />
<path d="M325,69 L331,75 L325,81 L319,75 Z" />
<rect x="375" y="90" width="50" height="20" rx="3" />
<path d="M375,69 L381,75 L375,81 L369,75 Z" />
<rect x="440" y="75" width="20" height="50" rx="3" />
<path d="M425,69 L431,75 L425,81 L419,75 Z" />
<rect x="475" y="90" width="50" height="20" rx="3" />
<path d="M475,69 L481,75 L475,81 L469,75 Z" />
<rect x="540" y="75" width="20" height="50" rx="3" />
<path d="M525,69 L531,75 L525,81 L519,75 Z" />
<rect x="575" y="90" width="50" height="20" rx="3" />
<path d="M575,69 L581,75 L575,81 L569,75 Z" />
<rect x="640" y="75" width="20" height="50" rx="3" />
<path d="M625,69 L631,75 L625,81 L619,75 Z" />
<rect x="675" y="90" width="50" height="20" rx="3" />
<path d="M675,69 L681,75 L675,81 L669,75 Z" />
<rect x="740" y="75" width="20" height="50" rx="3" />
<path d="M725,69 L731,75 L725,81 L719,75 Z" />
<rect x="25" y="140" width="50" height="20" rx="3" />
<rect x="90" y="125" width="20" height="50" rx="3" />
<path d="M75,119 L81,125 L75,131 L69,125 Z" />
<rect x="125" y="140" width="50" height="20" rx="3" />
<path d="M125,119 L131,125 L125,131 L119,125 Z" />
<rect x="190" y="125" width="20" height="50" rx="3" />
<path d="M175,119 L181,125 L175,131 L169,125 Z" />
<rect x="225" y="140" width="50" height="20" rx="3" />
<path d="M225,119 L231,125 L225,131 L219,125 Z" />
<rect x="290" y="125" width="20" height="50" rx="3" />
<path d="M275,119 L281,125 L275,131 L269,125 Z" />
<rect x="325" y="140" width="50" height="20" rx="3" />
<path d="M325,119 L331,125 L325,131 L319,125 Z" />
<rect x="390" y="125" width="20" height="50" rx="3" />
<path d="M375,119 L381,125 L375,131 L369,125 Z" />
<rect x="425" y="140" width="50" height="20" rx="3" />
<path d="M425,119 L431,125 L425,131 L419,125 Z" />
<rect x="490" y="125" width="20" height="50" rx="3" />
<path d="M475,119 L481,125 L475,131 L469,125 Z" />
<rect x="525" y="140" width="50" height="20" rx="3" />
<path d="M525,119 L531,125 L525,131 L519,125 Z" />
<rect x="590" y="125" width="20" height="50" rx="3" />
<path d="M575,119 L581,125 L575,131 L569,125 Z" />
<rect x="625" y="140" width="50" height="20" rx="3" />
<path d="M625,119 L631,125 L625,131 L619,125 Z" />
<rect x="690" y="125" width="20" height="50" rx="3" />
<path d="M675,119 L681,125 L675,131 L669,125 Z" />
<rect x="725" y="140" width="50" height="20" rx="3" />
<path d="M725,119 L731,125 L725,131 L719,125 Z" />
<rect x="40" y="175" width="20" height="50" rx="3" />
<rect x="75" y="190" width="50" height="20" rx="3" />
<path d="M75,169 L81,175 L75,181 L69,175 Z" />
<rect x="140" y="175" width="20" height="50" rx="3" />
<path d="M125,169 L131,175 L125,181 L119,175 Z" />
<rect x="175" y="190" width="50" height="20" rx="3" />
<path d="M175,169 L181,175 L175,181 L169,175 Z" />
<rect x="240" y="175" width="20" height="50" rx="3" />
<path d="M225,169 L231,175 L225,181 L219,175 Z" />
<rect x="275" y="190" width="50" height="20" rx="3" />
<path d="M275,169 L281,175 L275,181 L269,175 Z" />
<rect x="340" y="175" width="20" height="50" rx="3" />
<path d="M325,169 L331,175 L325,181 L319,175 Z" />
<rect x="375" y="190" width="50" height="20" rx="3" />
<path d="M375,169 L381,175 L375,181 L369,175 Z" />
<rect x="440" y="175" width="20" height="50" rx="3" />
<path d="M425,169 L431,175 L425,181 L419,175 Z" />
<rect x="475" y="190" width="50" height="20" rx="3" />
<path d="M475,169 L481,175 L475,181 L469,175 Z" />
<rect x="540" y="175" width="20" height="50" rx="3" />
<path d="M525,169 L531,175 L525,181 L519,175 Z" />
<rect x="575" y="190" width="50" height="20" rx="3" />
<path d="M575,169 L581,175 L575,181 L569,175 Z" />
<rect x="640" y="175" width="20" height="50" rx="3" />
<path d="M625,169 L631,175 L625,181 L619,175 Z" />
<rect x="675" y="190" width="50" height="20" rx="3" />
<path d="M675,169 L681,175 L675,181 L669,175 Z" />
<rect x="740" y="175" width="20" height="50" rx="3" />
<path d="M725,169 L731,175 L725,181 L719,175 Z" />
<rect x="25" y="240" width="50" height="20" rx="3" />
<rect x="90" y="225" width="20" height="50" rx="3" />
<path d="M75,219 L81,225 L75,231 L69,225 Z" />
<rect x="125" y="240" width="50" height="20" rx="3" />
<path d="M125,219 L131,225 L125,231 L119,225 Z" />
<rect x="190" y="225" width="20" height="50" rx="3" />
<path d="M175,219 L181,225 L175,231 L169,225 Z" />
<rect x="225" y="240" width="50" height="20" rx="3" />
<path d="M225,219 L231,225 L225,231 L219,225 Z" />
<rect x="290" y="225" width="20" height="50" rx="3" />
<path d="M275,219 L281,225 L275,231 L269,225 Z" />
<rect x="325" y="240" width="50" height="20" rx="3" />
<path d="M325,219 L331,225 L325,231 L319,225 Z" />
<rect x="390" y="225" width="20" height="50" rx="3" />
<path d="M375,219 L381,225 L375,231 L369,225 Z" />
<rect x="425" y="240" width="50" height="20" rx="3" />
<path d="M425,219 L431,225 L425,231 L419,225 Z" />
<rect x="490" y="225" width="20" height="50" rx="3" />
<path d="M475,219 L481,225 L475,231 L469,225 Z" />
<rect x="525" y="240" width="50" height="20" rx="3" />
<path d="M525,219 L531,225 L525,231 L519,225 Z" />
<rect x="590" y="225" width="20" height="50" rx="3" />
<path d="M575,219 L581,225 L575,231 L569,225 Z" />
<rect x="625" y="240" width="50" height="20" rx="3" />
<path d="M625,219 L631,225 L625,231 L619,225 Z" />
<rect x="690" y="225" width="20" height="50" rx="3" />
<path d="M675,219 L681,225 L675,231 L669,225 Z" />
<rect x="725" y="240" width="50" height="20" rx="3" />
<path d="M725,219 L731,225 L725,231 L719,225 Z" />
<rect x="40" y="275" width="20" height="50" rx="3" />
<rect x="75" y="290" width="50" height="20" rx="3" />
<path d="M75,269 L81,275 L75,281 L69,275 Z" />
<rect x="140" y="275" width="20" height="50" rx="3" />
<path d="M125,269 L131,275 L125,281 L119,275 Z" />
<rect x="175" y="290" width="50" height="20" rx="3" />
<path d="M175,269 L181,275 L175,281 L169,275 Z" />
<rect x="240" y="275" width="20" height="50" rx="3" />
<path d="M225,269 L231,275 L225,281 L219,275 Z" />
<rect x="275" y="290" width="50" height="20" rx="3" />
<path d="M275,269 L281,275 L275,281 L269,275 Z" />
<rect x="340" y="275" width="20" height="50" rx="3" />
<path d="M325,269 L331,275 L325,281 L319,275 Z" />
<rect x="375" y="290" width="50" height="20" rx="3" />
<path d="M375,269 L381,275 L375,281 L369,275 Z" />
<rect x="440" y="275" width="20" height="50" rx="3" />
<path d="M425,269 L431,275 L425,281 L419,275 Z" />
<rect x="475" y="290" width="50" height="20" rx="3" />
<path d="M475,269 L481,275 L475,281 L469,275 Z" />
<rect x="540" y="275" width="20" height="50" rx="3" />
<path d="M525,269 L531,275 L525,281 L519,275 Z" />
<rect x="575" y="290" width="50" height="20" rx="3" />
<path d="M575,269 L581,275 L575,281 L569,275 Z" />
<rect x="640" y="275" width="20" height="50" rx="3" />
<path d="M625,269 L631,275 L625,281 L619,275 Z" />
<rect x="675" y="290" width="50" height="20" rx="3" />
<path d="M675,269 L681,275 L675,281 L669,275 Z" />
<rect x="740" y="275" width="20" height="50" rx="3" />
<path d="M725,269 L731,275 L725,281 L719,275 Z" />
<rect x="25" y="340" width="50" height="20" rx="3" />
<rect x="90" y="325" width="20" height="50" rx="3" />
<path d="M75,319 L81,325 L75,331 L69,325 Z" />
<rect x="125" y="340" width="50" height="20" rx="3" />
<path d="M125,319 L131,325 L125,331 L119,325 Z" />
<rect x="190" y="325" width="20" height="50" rx="3" />
<path d="M175,319 L181,325 L175,331 L169,325 Z" />
<rect x="225" y="340" width="50" height="20" rx="3" />
<path d="M225,319 L231,325 L225,331 L219,325 Z" />
<rect x="290" y="325" width="20" height="50" rx="3" />
<path d="M275,319 L281,325 L275,331 L269,325 Z" />
<rect x="325" y="340" width="50" height="20" rx="3" />
<path d="M325,319 L331,325 L325,331 L319,325 Z" />
<rect x="390" y="325" width="20" height="50" rx="3" />
<path d="M375,319 L381,325 L375,331 L369,325 Z" />
<rect x="425" y="340" width="50" height="20" rx="3" />
<path d="M425,319 L431,325 L425,331 L419,325 Z" />
<rect x="490" y="325" width="20" height="50" rx="3" />
<path d="M475,319 L481,325 L475,331 L469,325 Z" />
<rect x="525" y="340" width="50" height="20" rx="3" />
<path d="M525,319 L531,325 L525,331 L519,325 Z" />
<rect x="590" y="325" width="20" height="50" rx="3" />
<path d="M575,319 L581,325 L575,331 L569,325 Z" />
<rect x="625" y="340" width="50" height="20" rx="3" />
<path d="M625,319 L631,325 L625,331 L619,325 Z" />
<rect x="690" y="325" width="20" height="50" rx="3" />
<path d="M675,319 L681,325 L675,331 L669,325 Z" />
<rect x="725" y="340" width="50" height="20" rx="3" />
<path d="M725,319 L731,325 L725,331 L719,325 Z" />
<rect x="40" y="375" width="20" height="50" rx="3" />
<rect x="75" y="390" width="50" height="20" rx="3" />
<path d="M75,369 L81,375 L75,381 L69,375 Z" />
<rect x="140" y="375" width="20" height="50" rx="3" />
<path d="M125,369 L131,375 L125,381 L119,375 Z" />
<rect x="175" y="390" width="50" height="20" rx="3" />
<path d="M175,369 L181,375 L175,381 L169,375 Z" />
<rect x="240" y="375" width="20" height="50" rx="3" />
<path d="M225,369 L231,375 L225,381 L219,375 Z" />
<rect x="275" y="390" width="50" height="20" rx="3" />
<path d="M275,369 L281,375 L275,381 L269,375 Z" />
<rect x="340" y="375" width="20" height="50" rx="3" />
<path d="M325,369 L331,375 L325,381 L319,375 Z" />
<rect x="375" y="390" width="50" height="20" rx="3" />
<path d="M375,369 L381,375 L375,381 L369,375 Z" />
<rect x="440" y="375" width="20" height="50" rx="3" />
<path d="M425,369 L431,375 L425,381 L419,375 Z" />
<rect x="475" y="390" width="50" height="20" rx="3" />
<path d="M475,369 L481,375 L475,381 L469,375 Z" />
<rect x="540" y="375" width="20" height="50" rx="3" />
<path d="M525,369 L531,375 L525,381 L519,375 Z" />
<rect x="575" y="390" width="50" height="20" rx="3" />
<path d="M575,369 L581,375 L575,381 L569,375 Z" />
<rect x="640" y="375" width="20" height="50" rx="3" />
<path d="M625,369 L631,375 L625,381 L619,375 Z" />
<rect x="675" y="390" width="50" height="20" rx="3" />
<path d="M675,369 L681,375 L675,381 L669,375 Z" />
<rect x="740" y="375" width="20" height="50" rx="3" />
<path d="M725,369 L731,375 L725,381 L719,375 Z" />
<rect x="25" y="440" width="50" height="20" rx="3" />
<rect x="90" y="425" width="20" height="50" rx="3" />
<path d="M75,419 L81,425 L75,431 L69,425 Z" />
<rect x="125" y="440" width="50" height="20" rx="3" />
<path d="M125,419 L131,425 L125,431 L119,425 Z" />
<rect x="190" y="425" width="20" height="50" rx="3" />
<path d="M175,419 L181,425 L175,431 L169,425 Z" />
<rect x="225" y="440" width="50" height="20" rx="3" />
<path d="M225,419 L231,425 L225,431 L219,425 Z" />
<rect x="290" y="425" width="20" height="50" rx="3" />
<path d="M275,419 L281,425 L275,431 L269,425 Z" />
<rect x="325" y="440" width="50" height="20" rx="3" />
<path d="M325,419 L331,425 L325,431 L319,425 Z" />
<rect x="390" y="425" width="20" height="50" rx="3" />
<path d="M375,419 L381,425 L375,431 L369,425 Z" />
<rect x="425" y="440" width="50" height="20" rx="3" />
<path d="M425,419 L431,425 L425,431 L419,425 Z" />
<rect x="490" y="425" width="20" height="50" rx="3" />
<path d="M475,419 L481,425 L475,431 L469,425 Z" />
<rect x="525" y="440" width="50" height="20" rx="3" />
<path d="M525,419 L531,425 L525,431 L519,425 Z" />
<rect x="590" y="425" width="20" height="50" rx="3" />
<path d="M575,419 L581,425 L575,431 L569,425 Z" />
<rect x="625" y="440" width="50" height="20" rx="3" />
<path d="M625,419 L631,425 L625,431 L619,425 Z" />
<rect x="690" y="425" width="20" height="50" rx="3" />
<path d="M675,419 L681,425 L675,431 L669,425 Z" />
<rect x="725" y="440" width="50" height="20" rx="3" />
<path d="M725,419 L731,425 L725,431 L719,425 Z" />
<rect x="40" y="475" width="20" height="50" rx="3" />
<rect x="75" y="490" width="50" height="20" rx="3" />
<path d="M75,469 L81,475 L75,481 L69,475 Z" />
<rect x="140" y="475" width="20" height="50" rx="3" />
<path d="M125,469 L131,475 L125,481 L119,475 Z" />
<rect x="175" y="490" width="50" height="20" rx="3" />
<path d="M175,469 L181,475 L175,481 L169,475 Z" />
<rect x="240" y="475" width="20" height="50" rx="3" />
<path d="M225,469 L231,475 L225,481 L219,475 Z" />
<rect x="275" y="490" width="50" height="20" rx="3" />
<path d="M275,469 L281,475 L275,481 L269,475 Z" />
<rect x="340" y="475" width="20" height="50" rx="3" />
<path d="M325,469 L331,475 L325,481 L319,475 Z" />
<rect x="375" y="490" width="50" height="20" rx="3" />
<path d="M375,469 L381,475 L375,481 L369,475 Z" />
<rect x="440" y="475" width="20" height="50" rx="3" />
<path d="M425,469 L431,475 L425,481 L419,475 Z" />
<rect x="475" y="490" width="50" height="20" rx="3" />
<path d="M475,469 L481,475 L475,481 L469,475 Z" />
<rect x="540" y="475" width="20" height="50" rx="3" />
<path d="M525,469 L531,475 L525,481 L519,475 Z" />
<rect x="575" y="490" width="50" height="20" rx="3" />
<path d="M575,469 L581,475 L575,481 L569,475 Z" />
<rect x="640" y="475" width="20" height="50" rx="3" />
<path d="M625,469 L631,475 L625,481 L619,475 Z" />
<rect x="675" y="490" width="50" height="20" rx="3" />
<path d="M675,469 L681,475 L675,481 L669,475 Z" />
<rect x="740" y="475" width="20" height="50" rx="3" />
<path d="M725,469 L731,475 L725,481 L719,475 Z" />
<rect x="25" y="540" width="50" height="20" rx="3" />
<rect x="90" y="525" width="20" height="50" rx="3" />
<path d="M75,519 L81,525 L75,531 L69,525 Z" />
<rect x="125" y="540" width="50" height="20" rx="3" />
<path d="M125,519 L131,525 L125,531 L119,525 Z" />
<rect x="190" y="525" width="20" height="50" rx="3" />
<path d="M175,519 L181,525 L175,531 L169,525 Z" />
<rect x="225" y="540" width="50" height="20" rx="3" />
<path d="M225,519 L231,525 L225,531 L219,525 Z" />
<rect x="290" y="525" width="20" height="50" rx="3" />
<path d="M275,519 L281,525 L275,531 L269,525 Z" />
<rect x="325" y="540" width="50" height="20" rx="3" />
<path d="M325,519 L331,525 L325,531 L319,525 Z" />
<rect x="390" y="525" width="20" height="50" rx="3" />
<path d="M375,519 L381,525 L375,531 L369,525 Z" />
<rect x="425" y="540" width="50" height="20" rx="3" />
<path d="M425,519 L431,525 L425,531 L419,525 Z" />
<rect x="490" y="525" width="20" height="50" rx="3" />
<path d="M475,519 L481,525 L475,531 L469,525 Z" />
<rect x="525" y="540" width="50" height="20" rx="3" />
<path d="M525,519 L531,525 L525,531 L519,525 Z" />
<rect x="590" y="525" width="20" height="50" rx="3" />
<path d="M575,519 L581,525 L575,531 L569,525 Z" />
<rect x="625" y="540" width="50" height="20" rx="3" />
<path d="M625,519 L631,525 L625,531 L619,525 Z" />
<rect x="690" y="525" width="20" height="50" rx="3" />
<path d="M675,519 L681,525 L675,531 L669,525 Z" />
<rect x="725" y="540" width="50" height="20" rx="3" />
<path d="M725,519 L731,525 L725,531 L719,525 Z" />
<rect x="40" y="575" width="20" height="50" rx="3" />
<rect x="75" y="590" width="50" height="20" rx="3" />
<path d="M75,569 L81,575 L75,581 L69,575 Z" />
<rect x="140" y="575" width="20" height="50" rx="3" />
<path d="M125,569 L131,575 L125,581 L119,575 Z" />
<rect x="175" y="590" width="50" height="20" rx="3" />
<path d="M175,569 L181,575 L175,581 L169,575 Z" />
<rect x="240" y="575" width="20" height="50" rx="3" />
<path d="M225,569 L231,575 L225,581 L219,575 Z" />
<rect x="275" y="590" width="50" height="20" rx="3" />
<path d="M275,569 L281,575 L275,581 L269,575 Z" />
<rect x="340" y="575" width="20" height="50" rx="3" />
<path d="M325,569 L331,575 L325,581 L319,575 Z" />
<rect x="375" y="590" width="50" height="20" rx="3" />
<path d="M375,569 L381,575 L375,581 L369,575 Z" />
<rect x="440" y="575" width="20" height="50" rx="3" />
<path d="M425,569 L431,575 L425,581 L419,575 Z" />
<rect x="475" y="590" width="50" height="20" rx="3" />
<path d="M475,569 L481,575 L475,581 L469,575 Z" />
<rect x="540" y="575" width="20" height="50" rx="3" />
<path d="M525,569 L531,575 L525,581 L519,575 Z" />
<rect x="575" y="590" width="50" height="20" rx="3" />
<path d="M575,569 L581,575 L575,581 L569,575 Z" />
<rect x="640" y="575" width="20" height="50" rx="3" />
<path d="M625,569 L631,575 L625,581 L619,575 Z" />
<rect x="675" y="590" width="50" height="20" rx="3" />
<path d="M675,569 L681,575 L675,581 L669,575 Z" />
<rect x="740" y="575" width="20" height="50" rx="3" />
<path d="M725,569 L731,575 L725,581 L719,575 Z" />
<rect x="25" y="640" width="50" height="20" rx="3" />
<rect x="90" y="625" width="20" height="50" rx="3" />
<path d="M75,619 L81,625 L75,631 L69,625 Z" />
<rect x="125" y="640" width="50" height="20" rx="3" />
<path d="M125,619 L131,625 L125,631 L119,625 Z" />
<rect x="190" y="625" width="20" height="50" rx="3" />
<path d="M175,619 L181,625 L175,631 L169,625 Z" />
<rect x="225" y="640" width="50" height="20" rx="3" />
<path d="M225,619 L231,625 L225,631 L219,625 Z" />
<rect x="290" y="625" width="20" height="50" rx="3" />
<path d="M275,619 L281,625 L275,631 L269,625 Z" />
<rect x="325" y="640" width="50" height="20" rx="3" />
<path d="M325,619 L331,625 L325,631 L319,625 Z" />
<rect x="390" y="625" width="20" height="50" rx="3" />
<path d="M375,619 L381,625 L375,631 L369,625 Z" />
<rect x="425" y="640" width="50" height="20" rx="3" />
<path d="M425,619 L431,625 L425,631 L419,625 Z" />
<rect x="490" y="625" width="20" height="50" rx="3" />
<path d="M475,619 L481,625 L475,631 L469,625 Z" />
<rect x="525" y="640" width="50" height="20" rx="3" />
<path d="M525,619 L531,625 L525,631 L519,625 Z" />
<rect x="590" y="625" width="20" height="50" rx="3" />
<path d="M575,619 L581,625 L575,631 L569,625 Z" />
<rect x="625" y="640" width="50" height="20" rx="3" />
<path d="M625,619 L631,625 L625,631 L619,625 Z" />
<rect x="690" y="625" width="20" height="50" rx="3" />
<path d="M675,619 L681,625 L675,631 L669,625 Z" />
<rect x="725" y="640" width="50" height="20" rx="3" />
<path d="M725,619 L731,625 L725,631 L719,625 Z" />
<rect x="40" y="675" width="20" height="50" rx="3" />
<rect x="75" y="690" width="50" height="20" rx="3" />
<path d="M75,669 L81,675 L75,681 L69,675 Z" />
<rect x="140" y="675" width="20" height="50" rx="3" />
<path d="M125,669 L131,675 L125,681 L119,675 Z" />
<rect x="175" y="690" width="50" height="20" rx="3" />
<path d="M175,669 L181,675 L175,681 L169,675 Z" />
<rect x="240" y="675" width="20" height="50" rx="3" />
<path d="M225,669 L231,675 L225,681 L219,675 Z" />
<rect x="275" y="690" width="50" height="20" rx="3" />
<path d="M275,669 L281,675 L275,681 L269,675 Z" />
<rect x="340" y="675" width="20" height="50" rx="3" />
<path d="M325,669 L331,675 L325,681 L319,675 Z" />
<rect x="375" y="690" width="50" height="20" rx="3" />
<path d="M375,669 L381,675 L375,681 L369,675 Z" />
<rect x="440" y="675" width="20" height="50" rx="3" />
<path d="M425,669 L431,675 L425,681 L419,675 Z" />
<rect x="475" y="690" width="50" height="20" rx="3" />
<path d="M475,669 L481,675 L475,681 L469,675 Z" />
<rect x="540" y="675" width="20" height="50" rx="3" />
<path d="M525,669 L531,675 L525,681 L519,675 Z" />
<rect x="575" y="690" width="50" height="20" rx="3" />
<path d="M575,669 L581,675 L575,681 L569,675 Z" />
<rect x="640" y="675" width="20" height="50" rx="3" />
<path d="M625,669 L631,675 L625,681 L619,675 Z" />
<rect x="675" y="690" width="50" height="20" rx="3" />
<path d="M675,669 L681,675 L675,681 L669,675 Z" />
<rect x="740" y="675" width="20" height="50" rx="3" />
<path d="M725,669 L731,675 L725,681 L719,675 Z" />
<rect x="25" y="740" width="50" height="20" rx="3" />
<rect x="90" y="725" width="20" height="50" rx="3" />
<path d="M75,719 L81,725 L75,731 L69,725 Z" />
<rect x="125" y="740" width="50" height="20" rx="3" />
<path d="M125,719 L131,725 L125,731 L119,725 Z" />
<rect x="190" y="725" width="20" height="50" rx="3" />
<path d="M175,719 L181,725 L175,731 L169,725 Z" />
<rect x="225" y="740" width="50" height="20" rx="3" />
<path d="M225,719 L231,725 L225,731 L219,725 Z" />
<rect x="290" y="725" width="20" height="50" rx="3" />
<path d="M275,719 L281,725 L275,731 L269,725 Z" />
<rect x="325" y="740" width="50" height="20" rx="3" />
<path d="M325,719 L331,725 L325,731 L319,725 Z" />
<rect x="390" y="725" width="20" height="50" rx="3" />
<path d="M375,719 L381,725 L375,731 L369,725 Z" />
<rect x="425" y="740" width="50" height="20" rx="3" />
<path d="M425,719 L431,725 L425,731 L419,725 Z" />
<rect x="490" y="725" width="20" height="50" rx="3" />
<path d="M475,719 L481,725 L475,731 L469,725 Z" />
<rect x="525" y="740" width="50" height="20" rx="3" />
<path d="M525,719 L531,725 L525,731 L519,725 Z" />
<rect x="590" y="725" width="20" height="50" rx="3" />
<path d="M575,719 L581,725 L575,731 L569,725 Z" />
<rect x="625" y="740" width="50" height="20" rx="3" />
<path d="M625,719 L631,725 L625,731 L619,725 Z" />
<rect x="690" y="725" width="20" height="50" rx="3" />
<path d="M675,719 L681,725 L675,731 L669,725 Z" />
<rect x="725" y="740" width="50" height="20" rx="3" />
<path d="M725,719 L731,725 L725,731 L719,725 Z" />
<rect x="15" y="15" width="770" height="770" rx="8" />
<rect x="8" y="8" width="784" height="784" rx="12" />
</svg>