<svg xmlns="http://www.w3.org/2000/svg" viewBox="0 0 800 800" fill="none" stroke="black" stroke-width="1.5" stroke-linecap="round" stroke-linejoin="round">
<path d="M100,750 Q154.42579059363024,556.511412950897 169.45927106677215,356.0768987951168" />
<path d="M109.53277221944558,724.6028419596165 Q130.16570188333895,725.2517659718998 145.5543226829054,711.4920697987992 Q124.92139301901203,710.843145786516 109.53277221944558,724.6028419596165 M109.53277221944558,724.6028419596165 L145.5543226829054,711.4920697987992" />
<path d="M109.53277221944558,724.6028419596165 Q99.77829206726196,706.4097387100456 80.1677352332181,699.9626502549659 Q89.9222153854017,718.1557535045366 109.53277221944558,724.6028419596165 M109.53277221944558,724.6028419596165 L80.1677352332181,699.9626502549659" />
<path d="M118.36523670341582,699.0822007706699 Q138.10108246887907,699.7029106954627 152.82063279889914,686.5414621820621 Q133.0847870334359,685.9207522572693 118.36523670341582,699.0822007706699 M118.36523670341582,699.0822007706699 L152.82063279889914,686.5414621820621" />
<path d="M118.36523670341582,699.0822007706699 Q109.03486438393584,681.6801020102109 90.27694045571995,675.5133217488302 Q99.60731277519993,692.9154205092893 118.36523670341582,699.0822007706699 M118.36523670341582,699.0822007706699 L90.27694045571995,675.5133217488302" />
<path d="M126.49739345191071,673.4380764331601 Q145.33615531894378,674.0305722704622 159.3866351794175,661.4673714167617 Q140.5478733123844,660.8748755794595 126.49739345191071,673.4380764331601 M126.49739345191071,673.4380764331601 L159.3866351794175,661.4673714167617" />
<path d="M126.49739345191071,673.4380764331601 Q117.59112896513437,656.8269821618128 99.68583794274649,650.9405100941311 Q108.59210242952281,667.5516043654784 126.49739345191071,673.4380764331601 M126.49739345191071,673.4380764331601 L99.68583794274649,650.9405100941311" />
<path d="M133.92924246493024,647.6704689470871 Q151.87092043353317,648.2347506968987 165.25232982446053,636.2697975028982 Q147.3106518558576,635.7055157530866 133.92924246493024,647.6704689470871 M133.92924246493024,647.6704689470871 L165.25232982446053,636.2697975028982" />
<path d="M133.92924246493024,647.6704689470871 Q125.44708581085753,631.8503791648516 108.39442769429763,626.2442152908691 Q116.87658434837034,642.0643050731046 133.92924246493024,647.6704689470871 M133.92924246493024,647.6704689470871 L108.39442769429763,626.2442152908691" />
<path d="M140.66078374247442,621.7793783124511 Q157.70537781264724,622.3154459747719 170.4177167340282,610.9487404404715 Q153.3731226638554,610.4126727781505 140.66078374247442,621.7793783124511 M140.66078374247442,621.7793783124511 L170.4177167340282,610.9487404404715" />
<path d="M140.66078374247442,621.7793783124511 Q132.60273492110534,606.7502930193273 116.40270971037346,601.424437339044 Q124.46075853174251,616.4535226321677 140.66078374247442,621.7793783124511 M140.66078374247442,621.7793783124511 L116.40270971037346,601.424437339044" />
<path d="M146.69201728454325,595.7648045292517 Q162.8395274562859,596.2726581040822 174.8827959081205,585.5042002294816 Q158.73528573637788,584.9963466546512 146.69201728454325,595.7648045292517 M146.69201728454325,595.7648045292517 L174.8827959081205,585.5042002294816" />
<path d="M146.69201728454325,595.7648045292517 Q139.05807629587784,581.5267237252398 123.71068399097392,576.4811762386555 Q131.34462497963935,590.7192570426674 146.69201728454325,595.7648045292517 M146.69201728454325,595.7648045292517 L123.71068399097392,576.4811762386555" />
<path d="M152.02294309113677,569.6267475974893 Q167.27336936444925,570.1063870848291 178.6475673467375,559.9361768699287 Q163.39714107342502,559.4565373825887 152.02294309113677,569.6267475974893 M152.02294309113677,569.6267475974893 L178.6475673467375,559.9361768699287" />
<path d="M152.02294309113677,569.6267475974893 Q144.81310993517496,556.1796712825891 130.31835053609905,551.414431989704 Q137.52818369206085,564.8615083046042 152.02294309113677,569.6267475974893 M152.02294309113677,569.6267475974893 L130.31835053609905,551.414431989704" />
<path d="M156.6535611622549,543.3652075171638 Q171.00690353713728,543.8166329170131 181.71203104987913,534.2446703618126 Q167.35868867499678,533.7932449619634 156.6535611622549,543.3652075171638 M156.6535611622549,543.3652075171638 L181.71203104987913,534.2446703618126" />
<path d="M156.6535611622549,543.3652075171638 Q149.86783583899674,530.7091356913753 136.22570934574884,526.2242045921894 Q143.011434669007,538.8802764179778 156.6535611622549,543.3652075171638 M156.6535611622549,543.3652075171638 L136.22570934574884,526.2242045921894" />
<path d="M160.5838714978977,516.9801842882752 Q174.0401299743499,517.4033956006338 184.0761870175454,508.4296807051334 Q170.6199285410932,508.0064693927747 160.5838714978977,516.9801842882752 M160.5838714978977,516.9801842882752 L184.0761870175454,508.4296807051334" />
<path d="M160.5838714978977,516.9801842882752 Q154.22225400734317,505.1151169515985 141.43276041992323,500.9104940461117 Q147.79437791047775,512.7755613827883 160.5838714978977,516.9801842882752 M160.5838714978977,516.9801842882752 L141.43276041992323,500.9104940461117" />
<path d="M163.81387409806513,490.47167791082325 Q176.37304867608717,490.8666751356913 185.74003524973634,482.491207899891 Q173.18086067171427,482.09621067502286 163.81387409806513,490.47167791082325 M163.81387409806513,490.47167791082325 L185.74003524973634,482.491207899891" />
<path d="M163.81387409806513,490.47167791082325 Q157.87636444021425,479.3976150632584 145.93950375862232,475.47330035147064 Q151.8770134164732,486.54736319903554 163.81387409806513,490.47167791082325 M163.81387409806513,490.47167791082325 L145.93950375862232,475.47330035147064" />
<path d="M166.34356896275725,463.83968838480826 Q178.00565964234917,464.2064715221858 186.70357574645192,456.42925194608546 Q175.04148506686002,456.0624688087079 166.34356896275725,463.83968838480826 M166.34356896275725,463.83968838480826 L186.70357574645192,456.42925194608546" />
<path d="M166.34356896275725,463.83968838480826 Q160.83016713761,453.5566300263552 149.74593936184607,449.91262350826656 Q155.25934118699334,460.19568186671967 166.34356896275725,463.83968838480826 M166.34356896275725,463.83968838480826 L149.74593936184607,449.91262350826656" />
<path d="M168.172956091974,437.08421571023007 Q178.93796287313575,437.422784760117 186.96680850769215,430.2438128437167 Q176.2018017265304,429.90524379382975 168.172956091974,437.08421571023007 M168.172956091974,437.08421571023007 L186.96680850769215,430.2438128437167" />
<path d="M168.172956091974,437.08421571023007 Q163.08366209953036,427.5921618408888 152.85206722959444,424.2284635164993 Q157.94136122203807,433.7205173858406 168.172956091974,437.08421571023007 M168.172956091974,437.08421571023007 L152.85206722959444,424.2284635164993" />
<path d="M169.3020354857154,410.2052598870888 Q179.16995836844703,410.5156148494852 186.52973353345706,403.9348905927849 Q176.66181065072547,403.6245356303885 169.3020354857154,410.2052598870888 M169.3020354857154,410.2052598870888 L186.52973353345706,403.9348905927849" />
<path d="M169.3020354857154,410.2052598870888 Q164.63684932597545,401.5042105068593 155.2578873618675,398.42082037616893 Q159.92307352160748,407.1218697563985 169.3020354857154,410.2052598870888 M169.3020354857154,410.2052598870888 L155.2578873618675,398.42082037616893" />
<path d="M169.73080714398145,383.20282091538434 Q178.70164612828293,383.48496179029013 185.3923508237466,377.5024851932899 Q176.42151183944512,377.2203443183841 169.73080714398145,383.20282091538434 M169.73080714398145,383.20282091538434 L185.3923508237466,377.5024851932899" />
<path d="M169.73080714398145,383.20282091538434 Q165.4897288169451,375.2927760242666 156.96339975866516,372.4896940872753 Q161.2044780857015,380.3997389783931 169.73080714398145,383.20282091538434 M169.73080714398145,383.20282091538434 L156.96339975866516,372.4896940872753" />
<path d="M250,780 Q327.55280167384853,567.84306998701 366.4685702961343,345.3333781699193" />
<path d="M261.12924135876915,755.5777017530099 Q281.7319474186574,758.0349397514095 298.34579525402444,745.6055561917069 Q277.7430891941362,743.1483181933073 261.12924135876915,755.5777017530099 M261.12924135876915,755.5777017530099 L298.34579525402444,745.6055561917069" />
<path d="M261.12924135876915,755.5777017530099 Q252.95591885858346,736.5066159192432 233.88483302481688,728.3332934190577 Q242.05815552500258,747.4043792528242 261.12924135876915,755.5777017530099 M261.12924135876915,755.5777017530099 L233.88483302481688,728.3332934190577" />
<path d="M271.7237140939873,731.0121126852017 Q291.5400573271623,733.3755629737387 307.51978883293515,721.4205833666965 Q287.7034455997602,719.0571330781596 271.7237140939873,731.0121126852017 M271.7237140939873,731.0121126852017 L307.51978883293515,721.4205833666965" />
<path d="M271.7237140939873,731.0121126852017 Q263.8623504678545,712.6689308908918 245.5191686735447,704.8075672647591 Q253.38053229967747,723.150749059069 271.7237140939873,731.0121126852017 M271.7237140939873,731.0121126852017 L245.5191686735447,704.8075672647591" />
<path d="M281.7834182056544,706.3032327965757 Q300.8133986121161,708.57289537525 316.15901378829477,697.0923197208683 Q297.1290333818331,694.822657142194 281.7834182056544,706.3032327965757 M281.7834182056544,706.3032327965757 L316.15901378829477,697.0923197208683" />
<path d="M281.7834182056544,706.3032327965757 Q274.2340134535745,688.6879550417226 256.6187356987214,681.1385502896427 Q264.16814045080133,698.7538280444959 281.7834182056544,706.3032327965757 M281.7834182056544,706.3032327965757 L256.6187356987214,681.1385502896427" />
<path d="M291.30835369377047,681.4510620871314 Q309.5519712735188,683.6269369559432 324.2634701201034,672.6207652542219 Q306.01985254035503,670.44489038541 291.30835369377047,681.4510620871314 M291.30835369377047,681.4510620871314 L324.2634701201034,672.6207652542219" />
<path d="M291.30835369377047,681.4510620871314 Q284.0709078157434,664.563688371735 267.18353410034706,657.326242493708 Q274.4209799783741,674.2136162091044 291.30835369377047,681.4510620871314 M291.30835369377047,681.4510620871314 L267.18353410034706,657.326242493708" />
<path d="M300.2985205583355,656.4556005568693 Q317.75577531137054,658.5376877158185 331.833157828361,648.0059199667576 Q314.3759030753259,645.9238328078084 300.2985205583355,656.4556005568693 M300.2985205583355,656.4556005568693 L331.833157828361,648.0059199667576" />
<path d="M300.2985205583355,656.4556005568693 Q293.37303355436137,640.2961308809296 277.2135638784217,633.3706438769556 Q284.1390508823959,649.5301135528952 300.2985205583355,656.4556005568693 M300.2985205583355,656.4556005568693 L277.2135638784217,633.3706438769556" />
<path d="M308.75391879934944,631.3168482057891 Q325.42481072567125,633.3051476548759 338.86807691306745,623.2477838584753 Q322.1971849867457,621.2594844093886 308.75391879934944,631.3168482057891 M308.75391879934944,631.3168482057891 L338.86807691306745,623.2477838584753" />
<path d="M308.75391879934944,631.3168482057891 Q302.1403906694282,615.8852825693062 286.7088250329453,609.2717544393851 Q293.3223531628666,624.703320075868 308.75391879934944,631.3168482057891 M308.75391879934944,631.3168482057891 L286.7088250329453,609.2717544393851" />
<path d="M316.6745484168123,606.034805033891 Q332.5590775164208,607.929316773115 345.36822737422284,598.3463569293749 Q329.48369827461437,596.4518451901508 316.6745484168123,606.034805033891 M316.6745484168123,606.034805033891 L345.36822737422284,598.3463569293749" />
<path d="M316.6745484168123,606.034805033891 Q310.3729791609439,591.3311434368647 295.6693175639178,585.0295741809964 Q301.97088681978613,599.7332357780226 316.6745484168123,606.034805033891 M316.6745484168123,606.034805033891 L295.6693175639178,585.0295741809964" />
<path d="M324.0604094107243,580.6094710411749 Q339.15857568361946,582.4101950705365 351.33360921182737,573.3016391794566 Q336.2354429389321,571.5009151500951 324.0604094107243,580.6094710411749 M324.0604094107243,580.6094710411749 L351.33360921182737,573.3016391794566" />
<path d="M324.0604094107243,580.6094710411749 Q318.07079902890877,566.6337134836053 304.0950414713394,560.6441031017899 Q310.08465185315487,574.6198606593593 324.0604094107243,580.6094710411749 M324.0604094107243,580.6094710411749 L304.0950414713394,560.6441031017899" />
<path d="M330.91150178108506,555.0408462276407 Q345.2233052272669,556.7477825471396 356.7642224258807,548.1136306087203 Q342.4524189796988,546.4066942892214 330.91150178108506,555.0408462276407 M330.91150178108506,555.0408462276407 L356.7642224258807,548.1136306087203" />
<path d="M330.91150178108506,555.0408462276407 Q325.2338502733225,541.792992709528 311.98599675520984,536.1153412017654 Q317.66364826297246,549.3631947198782 330.91150178108506,555.0408462276407 M330.91150178108506,555.0408462276407 L311.98599675520984,536.1153412017654" />
<path d="M337.2278255278949,529.3289305932884 Q350.7532661473635,530.9420792029248 361.6600670163831,522.7823312171658 Q348.1346263969145,521.1691826075296 337.2278255278949,529.3289305932884 M337.2278255278949,529.3289305932884 L361.6600670163831,522.7823312171658" />
<path d="M337.2278255278949,529.3289305932884 Q331.8621328941852,516.8089811146325 319.3421834155293,511.44328848092283 Q324.707876049239,523.9632379595788 337.2278255278949,529.3289305932884 M337.2278255278949,529.3289305932884 L319.3421834155293,511.44328848092283" />
<path d="M343.0093806511536,503.47372413811837 Q355.74845844390893,504.9930850378922 366.02114298333436,497.3077410047936 Q353.28206519057903,495.7883801050198 343.0093806511536,503.47372413811837 M343.0093806511536,503.47372413811837 L366.02114298333436,497.3077410047936" />
<path d="M343.0093806511536,503.47372413811837 Q337.9556468914968,491.68167869891914 326.1636014522976,486.62794493926236 Q331.2173352119544,498.4199903784616 343.0093806511536,503.47372413811837 M343.0093806511536,503.47372413811837 L326.1636014522976,486.62794493926236" />
<path d="M348.2561671508614,477.47522686213017 Q360.20888211690345,478.90080005204135 369.8474503267347,471.68985997160325 Q357.89473536069266,470.2642867816921 348.2561671508614,477.47522686213017 M348.2561671508614,477.47522686213017 L369.8474503267347,471.68985997160325" />
<path d="M348.2561671508614,477.47522686213017 Q343.5143922652575,466.4110854623877 332.45025086551505,461.6693105767838 Q337.19202575111893,472.7334519765263 348.2561671508614,477.47522686213017 M348.2561671508614,477.47522686213017 L332.45025086551505,461.6693105767838" />
<path d="M352.968185027018,451.33343876532405 Q364.1345371663468,452.66522424537266 373.13898904658384,445.92868811759496 Q361.9726369072551,444.59690263754635 352.968185027018,451.33343876532405 M352.968185027018,451.33343876532405 L373.13898904658384,445.92868811759496" />
<path d="M352.968185027018,451.33343876532405 Q348.538369015467,440.9972014050383 338.2021316551813,436.5673853934873 Q342.6319476667323,446.90362275377305 352.968185027018,451.33343876532405 M352.968185027018,451.33343876532405 L338.2021316551813,436.5673853934873" />
<path d="M357.14543427962366,425.0483598476998 Q367.5254235922391,426.28635761788587 375.89575914288207,420.02422544276857 Q365.51576983026666,418.7862276725825 357.14543427962366,425.0483598476998 M357.14543427962366,425.0483598476998 L375.89575914288207,420.02422544276857" />
<path d="M357.14543427962366,425.0483598476998 Q353.02757714212555,415.44002652687084 343.41924382129656,411.32216938937273 Q347.53710095879467,420.9305027102017 357.14543427962366,425.0483598476998 M357.14543427962366,425.0483598476998 L343.41924382129656,411.32216938937273" />
<path d="M360.78791490867826,398.6199901092577 Q370.38154139458044,399.7642001695811 378.1177606156292,393.9764719471242 Q368.5241341297271,392.8322618868007 360.78791490867826,398.6199901092577 M360.78791490867826,398.6199901092577 L378.1177606156292,393.9764719471242" />
<path d="M360.78791490867826,398.6199901092577 Q356.98201664523305,389.73956082788544 348.1015873638608,385.9336625644402 Q351.907485627306,394.81409184581247 360.78791490867826,398.6199901092577 M360.78791490867826,398.6199901092577 L348.1015873638608,385.9336625644402" />
<path d="M363.89562691418183,372.04832954999745 Q372.7028905733707,373.0987519004583 379.8049934648253,367.7854276306618 Q370.9977298056365,366.7350052802009 363.89562691418183,372.04832954999745 M363.89562691418183,372.04832954999745 L379.8049934648253,367.7854276306618" />
<path d="M363.89562691418183,372.04832954999745 Q360.4016875247895,363.89580430808195 352.249162282874,360.4018649186896 Q355.74310167226633,368.5543901606051 363.89562691418183,372.04832954999745 M363.89562691418183,372.04832954999745 L352.249162282874,360.4018649186896" />
<path d="M450,760 Q488.2265999388431,552.5422282556866 486.6054119540164,341.59822680146686" />
<path d="M456.9575008944311,734.2584317192213 Q477.6244815636734,733.1034781142365 491.79370645865237,718.0140422835632 Q471.1267257894101,719.168995888548 456.9575008944311,734.2584317192213 M456.9575008944311,734.2584317192213 L491.79370645865237,718.0140422835632" />
<path d="M456.9575008944311,734.2584317192213 Q445.6237913977007,716.937778242628 425.471344192073,712.211587446978 Q436.8050536888034,729.5322409235713 456.9575008944311,734.2584317192213 M456.9575008944311,734.2584317192213 L425.471344192073,712.211587446978" />
<path d="M463.29238010255483,708.4623910992253 Q483.11923960638075,707.3543868277765 496.7124797495313,692.878342697537 Q476.8856202457054,693.9863469689859 463.29238010255483,708.4623910992253 M463.29238010255483,708.4623910992253 L496.7124797495313,692.878342697537" />
<path d="M463.29238010255483,708.4623910992253 Q452.4193905040655,691.8458292273716 433.08614846939827,687.3117600087805 Q443.9591380678876,703.9283218806341 463.29238010255483,708.4623910992253 M463.29238010255483,708.4623910992253 L433.08614846939827,687.3117600087805" />
<path d="M469.00463762437124,682.6118781400121 Q487.99137596278075,681.5508232020992 501.00863135410293,667.6881707722937 Q482.02189301569337,668.7492257102066 469.00463762437124,682.6118781400121 M469.00463762437124,682.6118781400121 L501.00863135410293,667.6881707722937" />
<path d="M469.00463762437124,682.6118781400121 Q458.592367924123,666.699407872898 440.07833106041625,662.3574602313657 Q450.4906007606645,678.26993049848 469.00463762437124,682.6118781400121 M469.00463762437124,682.6118781400121 L440.07833106041625,662.3574602313657" />
<path d="M474.09427345988024,656.7068928415816 Q492.24089063287346,655.6927872372047 504.6821612723672,642.443526507833 Q486.535544099374,643.45763211221 474.09427345988024,656.7068928415816 M474.09427345988024,656.7068928415816 L504.6821612723672,642.443526507833" />
<path d="M474.09427345988024,656.7068928415816 Q464.14272365787303,641.4985141792071 446.44789196512676,637.3486881147338 Q456.3994417671339,652.5570667771084 474.09427345988024,656.7068928415816 M474.09427345988024,656.7068928415816 L446.44789196512676,637.3486881147338" />
<path d="M478.561287609082,630.7474352039338 Q495.86778361665887,629.780278933093 507.7330695043242,617.144409904155 Q490.4265734967474,618.111566174996 478.561287609082,630.7474352039338 M478.561287609082,630.7474352039338 L507.7330695043242,617.144409904155" />
<path d="M478.561287609082,630.7474352039338 Q469.0704577053159,616.2431481462988 452.1948311835301,612.2854436588846 Q461.68566108729624,626.7897307165197 478.561287609082,630.7474352039338 M478.561287609082,630.7474352039338 L452.1948311835301,612.2854436588846" />
<path d="M482.40568007197635,604.7335052270687 Q498.8720549141368,603.8132982897637 510.16135604997373,591.7908209612598 Q493.69498120781327,592.7110278985647 482.40568007197635,604.7335052270687 M482.40568007197635,604.7335052270687 L510.16135604997373,591.7908209612598" />
<path d="M482.40568007197635,604.7335052270687 Q473.3755700664513,590.9333097741732 457.319148715626,587.1677268638178 Q466.349258721151,600.9679223167133 482.40568007197635,604.7335052270687 M482.40568007197635,604.7335052270687 L457.319148715626,587.1677268638178" />
<path d="M485.6274508485634,578.6651029109863 Q501.2537045253075,577.7918453072174 511.96702090931603,566.3827596791473 Q496.3407672325719,567.2560172829163 485.6274508485634,578.6651029109863 M485.6274508485634,578.6651029109863 L511.96702090931603,566.3827596791473" />
<path d="M485.6274508485634,578.6651029109863 Q477.05806074127946,565.5689990628304 461.82084456141456,561.995537729534 Q470.3902346686985,575.09164157769 485.6274508485634,578.6651029109863 M485.6274508485634,578.6651029109863 L461.82084456141456,561.995537729534" />
<path d="M488.2265999388431,552.5422282556866 Q503.01273245017086,551.7159199854535 513.1500640823509,540.9202260578173 Q498.3639315710232,541.7465343280504 488.2265999388431,552.5422282556866 M488.2265999388431,552.5422282556866 L513.1500640823509,540.9202260578173" />
<path d="M488.2265999388431,552.5422282556866 Q480.1179297298002,540.1502160122702 465.6999187208958,536.7688762560329 Q473.8085889299387,549.1608884994491 488.2265999388431,552.5422282556866 M488.2265999388431,552.5422282556866 L465.6999187208958,536.7688762560329" />
<path d="M490.2031273428155,526.3648812611697 Q504.14913868872696,525.5855223244725 513.7104855690786,515.4032200972703 Q499.76447422316716,516.1825790339674 490.2031273428155,526.3648812611697 M490.2031273428155,526.3648812611697 L513.7104855690786,515.4032200972703" />
<path d="M490.2031273428155,526.3648812611697 Q482.5551770320137,514.676960622493 468.9563711940698,511.4877424433144 Q476.60432150487156,523.1756630819912 490.2031273428155,526.3648812611697 M490.2031273428155,526.3648812611697 L468.9563711940698,511.4877424433144" />
<path d="M491.5570330604804,500.13306192743545 Q504.66292324097554,499.40065232427435 513.6482853694988,489.8317417975059 Q500.5423951890037,490.564151400667 491.5570330604804,500.13306192743545 M491.5570330604804,500.13306192743545 L513.6482853694988,489.8317417975059" />
<path d="M491.5570330604804,500.13306192743545 Q484.3698026479197,489.1492328934982 471.59020198093623,486.15213629137867 Q478.777432393497,497.1359653253159 491.5570330604804,500.13306192743545 M491.5570330604804,500.13306192743545 L471.59020198093623,486.15213629137867" />
<path d="M492.28831709183817,473.8467702544839 Q504.5540861069169,473.16130998485875 512.9634634836117,464.20579115852416 Q500.697694468533,464.89125142814936 492.28831709183817,473.8467702544839 M492.28831709183817,473.8467702544839 L512.9634634836117,464.20579115852416" />
<path d="M492.28831709183817,473.8467702544839 Q485.5618065775185,463.5670328252862 473.60141108149554,460.76205780022565 Q480.32792159581516,471.0417952294233 492.28831709183817,473.8467702544839 M492.28831709183817,473.8467702544839 L473.60141108149554,460.76205780022565" />
<path d="M492.3969794368885,447.50600624231504 Q503.82262728655087,446.8674953062259 511.65601991141733,438.5253681803252 Q500.2303720617549,439.16387911641436 492.3969794368885,447.50600624231504 M492.3969794368885,447.50600624231504 L511.65601991141733,438.5253681803252" />
<path d="M492.3969794368885,447.50600624231504 Q486.13118882080994,437.930360417857 474.98999849574744,435.3175069698553 Q481.25578911182606,444.8931527943134 492.3969794368885,447.50600624231504 M492.3969794368885,447.50600624231504 L474.98999849574744,435.3175069698553" />
<path d="M491.8830200956315,421.11076989092896 Q502.4685467798775,420.51920828837575 509.7259546529155,412.7904728629089 Q499.1404279686695,413.38203446546214 491.8830200956315,421.11076989092896 M491.8830200956315,421.11076989092896 L509.7259546529155,412.7904728629089" />
<path d="M491.8830200956315,421.11076989092896 Q486.07794937779397,412.23921567121045 475.75596422369193,409.81848380026776 Q481.56103494152944,418.6900380199862 491.8830200956315,421.11076989092896 M491.8830200956315,421.11076989092896 L475.75596422369193,409.81848380026776" />
<path d="M490.74643906806716,394.66106120032555 Q500.49184458689683,394.1164489313083 507.17326770810644,387.0011052062754 Q497.42786218927677,387.54571747529263 490.74643906806716,394.66106120032555 M490.74643906806716,394.66106120032555 L507.17326770810644,387.0011052062754" />
<path d="M490.74643906806716,394.66106120032555 Q485.4020882484707,386.4935985853466 475.8993082653292,384.2649882914628 Q481.24365908492564,392.4324509064418 490.74643906806716,394.66106120032555 M490.74643906806716,394.66106120032555 L475.8993082653292,384.2649882914628" />
<path d="M488.98723635419543,368.15688017050485 Q497.89252070760875,367.6592172350236 503.99795907698996,361.1572652104245 Q495.09267472357664,361.6549281459058 488.98723635419543,368.15688017050485 M488.98723635419543,368.15688017050485 L503.99795907698996,361.1572652104245" />
<path d="M488.98723635419543,368.15688017050485 Q484.1036054328401,360.6935091602654 475.420030620659,358.6570204434406 Q480.30366154201437,366.12039145368 488.98723635419543,368.15688017050485 M488.98723635419543,368.15688017050485 L475.420030620659,358.6570204434406" />
<path d="M600,770 Q603.3643028397798,578.9798925076151 566.8808177558899,391.4460147251367" />
<path d="M602.9202751765198,742.4979705800732 Q622.9556930720104,737.799225724003 634.2235854404206,720.5791567623726 Q614.18816754493,725.2779016184427 602.9202751765198,742.4979705800732 M602.9202751765198,742.4979705800732 L634.2235854404206,720.5791567623726" />
<path d="M602.9202751765198,742.4979705800732 Q588.8333338175163,727.4961621351761 568.2863704576192,726.3479155778393 Q582.3733118166227,741.3497240227364 602.9202751765198,742.4979705800732 M602.9202751765198,742.4979705800732 L568.2863704576192,726.3479155778393" />
<path d="M605.0273301913319,715.0670887052465 Q624.1265136057247,710.5879113658151 634.8678689475737,694.172518523887 Q615.7686855331809,698.6516958633184 605.0273301913319,715.0670887052465 M605.0273301913319,715.0670887052465 L634.8678689475737,694.172518523887" />
<path d="M605.0273301913319,715.0670887052465 Q591.5986571201323,700.7662993465597 572.0118322349967,699.6717091704068 Q585.4405053061963,713.9724985290936 605.0273301913319,715.0670887052465 M605.0273301913319,715.0670887052465 L572.0118322349967,699.6717091704068" />
<path d="M606.3211650444366,687.70735437552 Q624.4841139777318,683.4477445527274 634.6989322930195,667.8370278305016 Q616.5359833597245,672.0966376532941 606.3211650444366,687.70735437552 M606.3211650444366,687.70735437552 L634.6989322930195,667.8370278305016" />
<path d="M606.3211650444366,687.70735437552 Q593.5507602610409,674.1075841030432 574.9240738506669,673.0666503080744 Q587.6944786340626,686.6664205805511 606.3211650444366,687.70735437552 M606.3211650444366,687.70735437552 L574.9240738506669,673.0666503080744" />
<path d="M606.8017797358337,660.4187675908936 Q624.0284941880312,656.3787252847399 633.7167754767578,641.5726846822164 Q616.4900610245603,645.6127269883702 606.8017797358337,660.4187675908936 M606.8017797358337,660.4187675908936 L633.7167754767578,641.5726846822164" />
<path d="M606.8017797358337,660.4187675908936 Q594.6896432402419,647.520016404627 577.0230953046296,646.5327389908421 Q589.1352318002213,659.4314901771087 606.8017797358337,660.4187675908936 M606.8017797358337,660.4187675908936 L577.0230953046296,646.5327389908421" />
<path d="M606.4691742655234,633.2013283513672 Q622.7596542366232,629.3808535618522 631.9213984987884,615.3794890790311 Q615.6309185276887,619.1999638685462 606.4691742655234,633.2013283513672 M606.4691742655234,633.2013283513672 L631.9213984987884,615.3794890790311" />
<path d="M606.4691742655234,633.2013283513672 Q595.0153060577355,621.0035962513108 578.3088965968847,620.0699752187098 Q589.7627648046727,632.2677073187664 606.4691742655234,633.2013283513672 M606.4691742655234,633.2013283513672 L578.3088965968847,620.0699752187098" />
<path d="M605.3233486335054,606.0550366569412 Q620.6775941235074,602.454129384065 629.3128013591115,589.2574410209463 Q613.9585558691095,592.8583482938225 605.3233486335054,606.0550366569412 M605.3233486335054,606.0550366569412 L629.3128013591115,589.2574410209463" />
<path d="M605.3233486335054,606.0550366569412 Q594.5277487135213,594.5583236430949 578.781477727432,593.6783589916779 Q589.577077647416,605.1750720055242 605.3233486335054,606.0550366569412 M605.3233486335054,606.0550366569412 L578.781477727432,593.6783589916779" />
<path d="M603.3643028397798,578.9798925076151 Q617.7823138486842,575.5985527513776 625.8909840577271,563.2065405079613 Q611.4729730488227,566.5878802641987 603.3643028397798,578.9798925076151 M603.3643028397798,578.9798925076151 L625.8909840577271,563.2065405079613" />
<path d="M603.3643028397798,578.9798925076151 Q593.2269712075998,568.1841985799789 578.440838696272,567.3578903097458 Q588.5781703284521,578.153584237382 603.3643028397798,578.9798925076151 M603.3643028397798,578.9798925076151 L578.440838696272,567.3578903097458" />
<path d="M600.5920368843468,551.9758959033893 Q614.0738134121535,548.8141236637906 621.6559465946352,537.2267875400767 Q608.1741700668284,540.3885597796753 600.5920368843468,551.9758959033893 M600.5920368843468,551.9758959033893 L621.6559465946352,537.2267875400767" />
<path d="M600.5920368843468,551.9758959033893 Q591.1129735399705,541.8812210619632 577.2869795034044,541.1085691729141 Q586.7660428477806,551.2032440143402 600.5920368843468,551.9758959033893 M600.5920368843468,551.9758959033893 L577.2869795034044,541.1085691729141" />
<path d="M597.0065507672061,525.0430468442635 Q609.5520928139151,522.1008421213037 616.6076889698356,511.318182117292 Q604.0621469231266,514.2603868402518 597.0065507672061,525.0430468442635 M597.0065507672061,525.0430468442635 L616.6076889698356,511.318182117292" />
<path d="M597.0065507672061,525.0430468442635 Q588.1857557106339,515.6493910890475 575.3199001488291,514.9303955811824 Q584.1406952054015,524.3240513363984 597.0065507672061,525.0430468442635 M597.0065507672061,525.0430468442635 L575.3199001488291,514.9303955811824" />
<path d="M592.607844488358,498.18134533023783 Q604.2171520539692,495.4587081239168 610.7462111833285,485.4807242396075 Q599.1369036177172,488.2033614459286 592.607844488358,498.18134533023783 M592.607844488358,498.18134533023783 L610.7462111833285,485.4807242396075" />
<path d="M592.607844488358,498.18134533023783 Q584.4453177195896,489.48870866123207 572.5396006325465,488.8233695345509 Q580.7021274013148,497.5160062035567 592.607844488358,498.18134533023783 M592.607844488358,498.18134533023783 L572.5396006325465,488.8233695345509" />
<path d="M587.3959180478023,471.39079136131244 Q598.0689911323159,468.88772167163023 604.0715132351139,459.7144139070233 Q593.3984401506002,462.21748359670556 587.3959180478023,471.39079136131244 M587.3959180478023,471.39079136131244 L604.0715132351139,459.7144139070233" />
<path d="M587.3959180478023,471.39079136131244 Q579.8916595668378,463.3991737785168 568.9460809545562,462.78749103301965 Q576.4503394355207,470.7791086158153 587.3959180478023,471.39079136131244 M587.3959180478023,471.39079136131244 L568.9460809545562,462.78749103301965" />
<path d="M581.370771445539,444.67138493748706 Q591.107610048955,442.3878827644436 596.5835951251918,434.01925111953904 Q586.8467565217758,436.30275329258245 581.370771445539,444.67138493748706 M581.370771445539,444.67138493748706 L596.5835951251918,434.01925111953904" />
<path d="M581.370771445539,444.67138493748706 Q574.5247812523785,437.3807864409016 564.5393411148584,436.82276007658834 Q571.385331308019,444.11335857317385 581.370771445539,444.67138493748706 M581.370771445539,444.67138493748706 L564.5393411148584,436.82276007658834" />
<path d="M574.5324046815682,418.0231260587618 Q583.3330088038864,415.95919140235713 588.282456853562,408.39523587715496 Q579.4818527312437,410.45917053355964 574.5324046815682,418.0231260587618 M574.5324046815682,418.0231260587618 L588.282456853562,408.39523587715496" />
<path d="M574.5324046815682,418.0231260587618 Q568.3446827762115,411.4335466483865 559.319381113453,410.9291766652572 Q565.5071030188097,417.5187560756326 574.5324046815682,418.0231260587618 M574.5324046815682,418.0231260587618 L559.319381113453,410.9291766652572" />
<path d="M700,750 Q689.3077239685313,574.185679669525 639.2231378165744,405.3172864457272" />
<path d="M700.9190309734153,722.4995412617408 Q720.3984135142548,716.0955771441531 730.0876463075609,698.0241668929071 Q710.6082637667214,704.4281310104948 700.9190309734153,722.4995412617408 M700.9190309734153,722.4995412617408 L730.0876463075609,698.0241668929071" />
<path d="M700.9190309734153,722.4995412617408 Q685.6333440922406,708.8318831901325 665.1384273357979,709.4764665735711 Q680.4241142169726,723.1441246451794 700.9190309734153,722.4995412617408 M700.9190309734153,722.4995412617408 L665.1384273357979,709.4764665735711" />
<path d="M700.9056995771149,695.1634831650598 Q719.4012749189221,689.0829515786635 728.6011525206471,671.9242388148541 Q710.1055771788399,678.0047704012505 700.9056995771149,695.1634831650598 M700.9056995771149,695.1634831650598 L728.6011525206471,671.9242388148541" />
<path d="M700.9056995771149,695.1634831650598 Q686.3920170838783,682.1861108546439 666.9321971333167,682.7981395217472 Q681.4458796265533,695.7755118321631 700.9056995771149,695.1634831650598 M700.9056995771149,695.1634831650598 L666.9321971333167,682.7981395217472" />
<path d="M699.9600058110988,667.991825709957 Q717.4717739538737,662.234726654752 726.1822963640176,645.9887113783793 Q708.6705282212426,651.7458104335844 699.9600058110988,667.991825709957 M699.9600058110988,667.991825709957 L726.1822963640176,645.9887113783793" />
<path d="M699.9600058110988,667.991825709957 Q686.2183277058003,655.7047391607333 667.7936045611197,656.2842131115013 Q681.5352826664181,668.571299660725 699.9600058110988,667.991825709957 M699.9600058110988,667.991825709957 L667.7936045611197,656.2842131115013" />
<path d="M698.081949675367,640.9845688964323 Q714.6099106191097,635.5509023724185 722.8310778376724,620.2175845834826 Q706.3031168939298,625.6512511074964 698.081949675367,640.9845688964323 M698.081949675367,640.9845688964323 L722.8310778376724,620.2175845834826" />
<path d="M698.081949675367,640.9845688964323 Q685.1122759580068,629.3877681084009 667.7226496192069,629.9346873428337 Q680.6923233365673,641.531488130865 698.081949675367,640.9845688964323 M698.081949675367,640.9845688964323 L667.7226496192069,629.9346873428337" />
<path d="M695.2715311699195,614.1417127244857 Q710.8156849146299,609.0314787316631 718.5474969416115,594.610858430164 Q703.0033431969011,599.7210924229864 695.2715311699195,614.1417127244857 M695.2715311699195,614.1417127244857 L718.5474969416115,594.610858430164" />
<path d="M695.2715311699195,614.1417127244857 Q683.0738618404972,603.2351976976468 666.7193323075785,603.7495622157443 Q678.9170016370007,614.6560772425833 695.2715311699195,614.1417127244857 M695.2715311699195,614.1417127244857 L666.7193323075785,603.7495622157443" />
<path d="M691.5287502947564,587.4632571941174 Q706.0890968404344,582.6764557324863 713.331553675835,569.1685329184236 Q698.7712071301569,573.9553343800548 691.5287502947564,587.4632571941174 M691.5287502947564,587.4632571941174 L713.331553675835,569.1685329184236" />
<path d="M691.5287502947564,587.4632571941174 Q680.1030853532723,577.2470279284707 664.7836526262344,577.728837730233 Q676.2093175677185,587.9450669958796 691.5287502947564,587.4632571941174 M691.5287502947564,587.4632571941174 L664.7836526262344,577.728837730233" />
<path d="M686.8536070498775,560.9492023053272 Q700.4301463965234,556.4858333748873 707.1832480403427,543.8906080482614 Q693.606708693697,548.3539769787012 686.8536070498775,560.9492023053272 M686.8536070498775,560.9492023053272 L707.1832480403427,543.8906080482614" />
<path d="M686.8536070498775,560.9492023053272 Q676.1999464963316,551.4232588008729 661.9156105751746,551.8725138862998 Q672.5692711287205,561.398457390754 686.8536070498775,560.9492023053272 M686.8536070498775,560.9492023053272 L661.9156105751746,551.8725138862998" />
<path d="M681.2461014352828,534.5995480581151 Q693.8388335828963,530.4596116588666 700.1025800351346,518.7770838196773 Q687.5098478875211,522.9170202189259 681.2461014352828,534.5995480581151 M681.2461014352828,534.5995480581151 L700.1025800351346,518.7770838196773" />
<path d="M681.2461014352828,534.5995480581151 Q671.3644452696748,525.7638903148533 658.1152061543988,526.1805906839448 Q667.9968623200067,535.0162484272067 681.2461014352828,534.5995480581151 M681.2461014352828,534.5995480581151 L658.1152061543988,526.1805906839448" />
<path d="M674.7062334509725,508.4142944524812 Q686.3151583995538,504.59779058442393 692.0895496602109,493.8279602326713 Q680.4806247116297,497.64446410072856 674.7062334509725,508.4142944524812 M674.7062334509725,508.4142944524812 L692.0895496602109,493.8279602326713" />
<path d="M674.7062334509725,508.4142944524812 Q665.5965816733028,500.2689224704116 653.3824393639077,500.65306812316794 Q662.4920911415775,508.7984401052376 674.7062334509725,508.4142944524812 M674.7062334509725,508.4142944524812 L653.3824393639077,500.65306812316794" />
<path d="M667.2340030969465,482.3934414884255 Q677.8591208464954,478.90037015155946 683.1441569155714,469.0432372872435 Q672.5190391660226,472.5363086241095 667.2340030969465,482.3934414884255 M667.2340030969465,482.3934414884255 L683.1441569155714,469.0432372872435" />
<path d="M667.2340030969465,482.3934414884255 Q658.8963557072149,474.9383552675482 647.7173102037007,475.2899462039693 Q656.0549575934323,482.7450324248465 667.2340030969465,482.3934414884255 M667.2340030969465,482.3934414884255 L647.7173102037007,475.2899462039693" />
<path d="M658.8294103732048,456.5369891659479 Q668.4707209237214,453.36735036027324 673.2664018012164,444.42291498339387 Q663.6250912506997,447.5925537890686 658.8294103732048,456.5369891659479 M658.8294103732048,456.5369891659479 L673.2664018012164,444.42291498339387" />
<path d="M658.8294103732048,456.5369891659479 Q651.2637673714113,449.77218870626297 641.1198186737781,450.09122492634873 Q648.6854616755717,456.85602538603365 658.8294103732048,456.5369891659479 M658.8294103732048,456.5369891659479 L641.1198186737781,450.09122492634873" />
<path d="M649.4924552797474,430.84493748504843 Q658.1499586312318,427.99873121056504 662.4562843171456,419.9669933211224 Q653.7987809656613,422.8131995956058 649.4924552797474,430.84493748504843 M649.4924552797474,430.84493748504843 L662.4562843171456,419.9669933211224" />
<path d="M649.4924552797474,430.84493748504843 Q642.6988166658921,424.77042278655586 633.5899647741397,425.05690429030636 Q640.3836033879952,431.13141898879894 649.4924552797474,430.84493748504843 M649.4924552797474,430.84493748504843 L633.5899647741397,425.05690429030636" />
<path d="M150,390 L170,350 L168.83555361263683,355.04697137949915 L166.45448267190434,359.5 L163.08147545195112,363.0814754519511 L159,365.5884572681199 L154.5293332892941,366.9037019600587 L150,367 L145.7294857558084,365.9377761337696 L142,363.856406460551 L139.0398448916085,360.96015510839146 L137.00961894323342,357.5 L135.9940755188085,353.75287615398656 L136,350 L136.96000134509757,346.505942891116 L138.7416697508023,343.5 L141.16116523516814,341.16116523516814 L144,339.60769515458674 L147.023580981321,338.8918529976757 L150,339 L152.71759997357648,339.8577788239648 L155,341.33974596215563 L156.7175144212722,343.2824855787278 L157.79422863405995,345.5 L158.21036952345708,347.80003811662857 L158,350 L157.244443697168,351.9411428382689 L156.06217782649108,353.5 L154.59619407771257,354.59619407771254 L153,355.19615242270663 L151.42350474806386,355.31259204458985 L150,355 L148.83531429703865,354.3466662183008 L148,353.46410161513774 L147.5251262658471,352.47487373415294 L147.40192378864668,351.5 L147.58518543427732,350.6470476127563" />
<path d="M150,390 Q155,430 145,470" />
<path d="M500,340 L520,300 L518.8355536126369,305.04697137949915 L516.4544826719043,309.5 L513.0814754519512,313.0814754519511 L509,315.5884572681199 L504.52933328929413,316.9037019600587 L500,317 L495.7294857558084,315.9377761337696 L492,313.856406460551 L489.03984489160854,310.96015510839146 L487.0096189432334,307.5 L485.99407551880853,303.75287615398656 L486,300 L486.96000134509757,296.505942891116 L488.7416697508023,293.5 L491.16116523516814,291.16116523516814 L494,289.60769515458674 L497.023580981321,288.8918529976757 L500,289 L502.71759997357645,289.8577788239648 L505,291.33974596215563 L506.7175144212722,293.2824855787278 L507.79422863405995,295.5 L508.2103695234571,297.80003811662857 L508,300 L507.24444369716804,301.9411428382689 L506.06217782649105,303.5 L504.59619407771254,304.59619407771254 L503,305.19615242270663 L501.42350474806386,305.31259204458985 L500,305 L498.8353142970387,304.3466662183008 L498,303.46410161513774 L497.52512626584706,302.47487373415294 L497.4019237886467,301.5 L497.5851854342773,300.6470476127563" />
<path d="M500,340 Q505,380 495,420" />
<path d="M350,290 L370,250 L368.83555361263683,255.04697137949915 L366.4544826719043,259.5 L363.0814754519511,263.0814754519511 L359,265.5884572681199 L354.52933328929413,266.9037019600587 L350,267 L345.7294857558084,265.9377761337696 L342,263.856406460551 L339.03984489160854,260.96015510839146 L337.0096189432334,257.5 L335.99407551880853,253.75287615398656 L336,250 L336.96000134509757,246.50594289111598 L338.7416697508023,243.5 L341.16116523516814,241.16116523516817 L344,239.60769515458674 L347.023580981321,238.89185299767573 L350,239 L352.71759997357645,239.8577788239648 L355,241.3397459621556 L356.7175144212722,243.2824855787278 L357.79422863405995,245.5 L358.2103695234571,247.80003811662857 L358,250 L357.24444369716804,251.9411428382689 L356.06217782649105,253.5 L354.59619407771254,254.59619407771254 L353,255.19615242270663 L351.42350474806386,255.31259204458988 L350,255 L348.8353142970387,254.3466662183008 L348,253.46410161513776 L347.52512626584706,252.4748737341529 L347.4019237886467,251.5 L347.5851854342773,250.6470476127563" />
<path d="M350,290 Q355,330 345,370" />
</svg>