<svg xmlns="http://www.w3.org/2000/svg" viewBox="0 0 800 800" fill="none" stroke="black" stroke-width="1.5" stroke-linecap="round" stroke-linejoin="round">
<path d="M71.24234237940624,218.46186733698394 Q67.40203892328432,201.484718328032 56.99195357579217,185.13841470411785 Q49.882620546296984,203.16697268813277 49.343069408172056,220.56468528710994 Z" />
<path d="M68.41699734990718,215.64082381575372 Q61.321750777556744,204.93860057441816 49.3519293315355,196.5598488308585 Q48.322884447767905,211.13452456848728 52.16841443767112,223.38572880834016 Z" />
<path d="M69.00543870174434,221.76899948149418 Q71.13202618342697,206.3733210618088 68.0309739803365,189.62420874045515 Q57.19165369069866,202.76416399069328 51.57997308583395,217.2575531425997 Z" />
<path d="M60.29270589378915,227.51327631204694 Q68.21224070453295,258.0156534100097 56.13177551527673,296.5180305079725" />
<path d="M63.29270589378915,242.29170415763903 Q54.26292001860237,255.5858294119542 54.842924875280374,271.6461654481451 Q63.87271075046715,258.35204019382996 63.29270589378915,242.29170415763903 M63.29270589378915,242.29170415763903 L54.842924875280374,271.6461654481451" />
<path d="M684.4651506463672,150.78723046070638 Q681.4651506463672,130.78723046070638 699.4651506463672,120.78723046070638 Q717.4651506463672,130.78723046070638 714.4651506463672,150.78723046070638" />
<line x1="699.4651506463672" y1="150.78723046070638" x2="699.4651506463672" y2="155.78723046070638" />
<path d="M699.4651506463672,158.78723046070638 Q703.2830625127842,192.72324011449072 687.1009743792014,234.65924976827506" />
<path d="M702.4651506463672,199.63908831555312 Q700.516588551084,213.38608151540845 708.3101656312119,224.87681136917092 Q710.2587277264951,211.1298181693156 702.4651506463672,199.63908831555312 M702.4651506463672,199.63908831555312 L708.3101656312119,224.87681136917092" />
<path d="M434.9799332571961,735.3982124937683 Q456.2795795246769,733.7458263383675 477.5792257921577,727.1362817167643 Q456.2795795246769,720.5267370951611 434.9799332571961,718.8743509397603 Z" />
<path d="M429.73185708799747,738.4604378452008 Q449.00408492495865,747.6792525915024 470.754891995021,752.6050421754877 Q455.6136295465618,736.2311854919922 437.9937878650014,724.150353970813 Z" />
<path d="M423.65577712875955,738.4883647070549 Q435.7366086499387,756.1082063886153 452.11046533343426,771.2494688370745 Q447.18467574944896,749.4986617670121 437.9658610031474,730.2264339300509 Z" />
<path d="M418.37977409770696,735.4745100992495 Q420.0321602531077,756.7741563667303 426.64170487471085,778.0738026342111 Q433.251249496314,756.7741563667303 434.90363565171475,735.4745100992495 Z" />
<path d="M415.3175487462743,730.2264339300509 Q406.09873399997275,749.4986617670121 401.17294441598744,771.2494688370745 Q417.546801099483,756.1082063886153 429.62763262066215,738.4883647070549 Z" />
<path d="M415.2896218844203,724.150353970813 Q397.6697802028599,736.2311854919922 382.5285177544007,752.6050421754877 Q404.27932482446306,747.6792525915024 423.55155266142424,738.4604378452008 Z" />
<path d="M418.3034764922256,718.8743509397603 Q397.00383022474483,720.5267370951611 375.70418395726404,727.1362817167643 Q397.00383022474483,733.7458263383675 418.3034764922256,735.3982124937683 Z" />
<path d="M423.55155266142424,715.8121255883278 Q404.27932482446306,706.5933108420262 382.5285177544007,701.6675212580409 Q397.6697802028599,718.0413779415364 415.2896218844203,730.1222094627157 Z" />
<path d="M429.62763262066215,715.7841987264737 Q417.546801099483,698.1643570449133 401.17294441598744,683.0230945964541 Q406.09873399997275,704.7739016665165 415.3175487462743,724.0461295034777 Z" />
<path d="M434.90363565171475,718.7980533342791 Q433.251249496314,697.4984070667983 426.64170487471085,676.1987607993175 Q420.0321602531077,697.4984070667983 418.37977409770696,718.7980533342791 Z" />
<path d="M437.9658610031474,724.0461295034777 Q447.18467574944896,704.7739016665165 452.11046533343426,683.0230945964541 Q435.7366086499387,698.1643570449133 423.65577712875955,715.7841987264737 Z" />
<path d="M437.9937878650014,730.1222094627157 Q455.6136295465618,718.0413779415364 470.754891995021,701.6675212580409 Q449.00408492495865,706.5933108420262 429.73185708799747,715.8121255883278 Z" />
<circle cx="426.64170487471085" cy="727.1362817167643" r="8.3382283824852" />
<circle cx="431.4741709587942" cy="728.4311371014452" r="2" />
<circle cx="430.17931557411333" cy="730.6738924161667" r="2" />
<circle cx="427.9365602593918" cy="731.9687478008477" r="2" />
<circle cx="425.3468494900299" cy="731.9687478008477" r="2" />
<circle cx="423.1040941753084" cy="730.6738924161667" r="2" />
<circle cx="421.8092387906275" cy="728.4311371014452" r="2" />
<circle cx="421.8092387906275" cy="725.8414263320834" r="2" />
<circle cx="423.1040941753084" cy="723.5986710173619" r="2" />
<circle cx="425.3468494900299" cy="722.3038156326809" r="2" />
<circle cx="427.9365602593918" cy="722.3038156326809" r="2" />
<circle cx="430.17931557411333" cy="723.5986710173619" r="2" />
<circle cx="431.4741709587942" cy="725.8414263320834" r="2" />
<path d="M426.64170487471085,735.1362817167643 Q435.6654246437041,788.9719690233209 424.68914441269743,850.8076563298774" />
<path d="M423.64170487471085,761.6713912754054 Q429.7710854980014,746.1066513755457 425.9260966043636,729.8264027477372 Q419.796715981073,745.391142647597 423.64170487471085,761.6713912754054 M423.64170487471085,761.6713912754054 L425.9260966043636,729.8264027477372" />
<path d="M415.65688082486815,121.90859904201659 Q410.19389527637975,101.92737518756084 398.21571252332774,83.00076281874657 Q392.82003606421017,104.73967248260482 393.9395568096562,125.42397066082157 Z" />
<path d="M412.6549247690186,119.27627669793743 Q403.92647786606625,107.34535563792157 390.48400739206005,98.04843946999469 Q391.355748343256,114.36936868349221 396.9415128655058,128.05629300490074 Z" />
<path d="M413.6386476003059,125.35353673893697 Q414.99527886084275,108.64399724919204 411.0476528515534,90.9221066269364 Q400.8505928079728,105.94439422916344 395.9577900342185,121.97903296390119 Z" />
<path d="M404.7982188172622,131.66628485141908 Q418.39686124901925,188.5752273384251 411.9955036807763,253.4841698254311" />
<path d="M401.7982188172622,173.6377300123104 Q404.98990405922547,161.81464539750533 398.30443620705904,151.55420173798183 Q395.1127509650957,163.37728635278694 401.7982188172622,173.6377300123104 M401.7982188172622,173.6377300123104 L398.30443620705904,151.55420173798183" />
<path d="M97.76381929662435,141.51582706860808 Q94.76381929662435,121.51582706860808 112.76381929662435,111.51582706860808 Q130.76381929662435,121.51582706860808 127.76381929662435,141.51582706860808" />
<line x1="112.76381929662435" y1="141.51582706860808" x2="112.76381929662435" y2="146.51582706860808" />
<path d="M112.76381929662435,149.51582706860808 Q126.6406602800271,172.8316679669839 120.51750126342988,204.1475088653597" />
<path d="M49.38300116395857,285.10585006801955 Q46.38300116395857,265.10585006801955 64.38300116395857,255.10585006801955 Q82.38300116395857,265.10585006801955 79.38300116395857,285.10585006801955" />
<line x1="64.38300116395857" y1="285.10585006801955" x2="64.38300116395857" y2="290.10585006801955" />
<path d="M64.38300116395857,293.10585006801955 Q72.8238711648843,340.05621850030144 61.26474116581002,395.00658693258333" />
<path d="M61.38300116395857,313.06533488730463 Q71.05545319680712,300.8167291828993 71.30805507792763,285.21157419105754 Q61.63560304507909,297.46017989546294 61.38300116395857,313.06533488730463 M61.38300116395857,313.06533488730463 L71.30805507792763,285.21157419105754" />
<path d="M157.2902488288314,96.7903535330731 Q152.93282156345123,80.42066832997332 142.0310139339695,64.9060185939517 Q135.48114059251367,82.7007629088484 135.47564761515946,99.64047175666695 Z" />
<path d="M154.37012992576433,94.06753024164553 Q146.41270100164448,82.65027533708103 133.66296305526325,73.72174987445123 Q133.63321027561423,89.28688718224024 138.39576651822654,102.36329504809453 Z" />
<path d="M155.1676917975787,100.17201181466658 Q156.27618979821972,86.91540254585287 152.1138416535108,72.48483377516123 Q142.22060007728652,83.78484387417839 137.59820464641217,96.25881347507348 Z" />
<path d="M146.38294822199543,106.21541264487003 Q160.19141012820546,144.99622752889638 153.99987203441546,191.77704241292275" />
<path d="M143.38294822199543,144.71394524882913 Q151.99986268380428,132.62927535823104 150.99477906550845,117.82116041651435 Q142.3778646036996,129.90583030711247 143.38294822199543,144.71394524882913 M143.38294822199543,144.71394524882913 L150.99477906550845,117.82116041651435" />
<path d="M638.4520275829844,648.2282645331959 Q635.4520275829844,628.2282645331959 653.4520275829844,618.2282645331959 Q671.4520275829844,628.2282645331959 668.4520275829844,648.2282645331959" />
<line x1="653.4520275829844" y1="648.2282645331959" x2="653.4520275829844" y2="653.2282645331959" />
<path d="M653.4520275829844,656.2282645331959 Q663.3372518847112,698.2237838890625 653.222476186438,748.219303244929" />
<path d="M656.4520275829844,697.3337648690992 Q647.7064253972426,711.8501019842915 648.6676513191696,728.770079689956 Q657.4132535049116,714.2537425747637 656.4520275829844,697.3337648690992 M656.4520275829844,697.3337648690992 L648.6676513191696,728.770079689956" />
<path d="M278.96971319346557,216.54775921537913 Q276.9720126630736,196.54320511091095 268.37464996074135,176.47187364306185 Q259.3729135378995,196.36513214189523 256.9708392869979,216.32516800410946 Z" />
<path d="M276.45822130302264,213.44400832836686 Q270.1338223381889,200.91879159348954 258.71665633568057,190.18904802743867 Q256.55311023772344,205.70672004369342 259.4823311774408,219.42891889112173 Z" />
<path d="M276.3959325664923,219.6000557882251 Q280.5326017608817,203.46202342279213 279.61387715951463,185.42583575027072 Q267.0515516388647,198.4002759372229 259.54461991397113,213.2728714312635 Z" />
<path d="M267.9702762402317,224.4364636097443 Q278.74605608055936,275.3046178727454 269.52183592088693,334.17277213574647" />
<path d="M270.9702762402317,260.3368765724235 Q266.5265561802497,273.94083881455117 272.0743585290733,287.133121625161 Q276.51807858905534,273.5291593830333 270.9702762402317,260.3368765724235 M270.9702762402317,260.3368765724235 L272.0743585290733,287.133121625161" />
<path d="M160.96950702686064,615.8894834323035 Q158.21359121619636,596.8754809505199 148.86048499185517,578.0540366305711 Q140.62108344639122,597.3889693820794 138.9788723146042,616.5313439717529 Z" />
<path d="M158.33801564283579,612.8867989366908 Q151.76089532734122,601.2097868710514 140.1654794285846,591.5269436646146 Q138.3787737719758,606.5275704955914 141.61036369862904,619.5340284673656 Z" />
<path d="M158.51763047040654,619.0405407844157 Q161.5291409185,604.2254247100117 159.41458688678895,587.7122323861752 Q147.85963563902138,599.6972213781917 141.43074887105828,613.3802866196406 Z" />
<path d="M149.97418967073241,624.2104137020282 Q157.9748550248098,680.8328727035157 145.9755203788872,745.4553317050033" />
<path d="M604.1302336013225,543.3160475448855 Q616.6749187565174,542.0341690432598 629.2196039117124,536.9066550367573 Q616.6749187565174,531.7791410302549 604.1302336013225,530.4972625286292 Z" />
<path d="M597.0133581813523,547.6789196892414 Q606.7902151035973,555.6429266491732 619.2863469693128,560.8876586656348 Q614.0416149528512,548.3915267999193 606.0776079929194,538.6146698776743 Z" />
<path d="M588.8959508323072,545.7315452976445 Q590.1778293339329,558.2762304528394 595.3053433404353,570.8209156080344 Q600.4328573469378,558.2762304528394 601.7147358485635,545.7315452976445 Z" />
<path d="M584.5330786879513,538.6146698776743 Q576.5690717280195,548.3915267999193 571.3243397115579,560.8876586656348 Q583.8204715772733,555.6429266491732 593.5973284995184,547.6789196892414 Z" />
<path d="M586.4804530795482,530.4972625286292 Q573.9357679243533,531.7791410302549 561.3910827691583,536.9066550367573 Q573.9357679243533,542.0341690432598 586.4804530795482,543.3160475448855 Z" />
<path d="M593.5973284995184,526.1343903842733 Q583.8204715772733,518.1703834243415 571.3243397115579,512.9256514078799 Q576.5690717280195,525.4217832735953 584.5330786879513,535.1986401958404 Z" />
<path d="M601.7147358485635,528.0817647758702 Q600.4328573469378,515.5370796206753 595.3053433404353,502.99239446548034 Q590.1778293339329,515.5370796206753 588.8959508323072,528.0817647758702 Z" />
<path d="M606.0776079929194,535.1986401958404 Q614.0416149528512,525.4217832735953 619.2863469693128,512.9256514078799 Q606.7902151035973,518.1703834243415 597.0133581813523,526.1343903842733 Z" />
<circle cx="595.3053433404353" cy="536.9066550367573" r="8.82489026088723" />
<circle cx="600.1972246336505" cy="538.9329386139262" r="2" />
<circle cx="597.3316269176042" cy="541.7985363299725" r="2" />
<circle cx="593.2790597632664" cy="541.7985363299725" r="2" />
<circle cx="590.4134620472202" cy="538.9329386139262" r="2" />
<circle cx="590.4134620472202" cy="534.8803714595884" r="2" />
<circle cx="593.2790597632664" cy="532.0147737435422" r="2" />
<circle cx="597.3316269176042" cy="532.0147737435422" r="2" />
<circle cx="600.1972246336505" cy="534.8803714595884" r="2" />
<path d="M595.3053433404353,544.9066550367573 Q604.9782832525468,593.3518342937825 594.6512231646582,649.7970135508077" />
<path d="M442.35899695880613,192.66409845339516 Q439.35899695880613,172.66409845339516 457.35899695880613,162.66409845339516 Q475.35899695880613,172.66409845339516 472.35899695880613,192.66409845339516" />
<line x1="457.35899695880613" y1="192.66409845339516" x2="457.35899695880613" y2="197.66409845339516" />
<path d="M457.35899695880613,200.66409845339516 Q471.62629322765974,236.25107883592236 465.8935894965134,279.8380592184496" />
<path d="M454.35899695880613,220.71694673571452 Q457.90122012467435,208.54559807920108 451.51807237736574,197.59368053425703 Q447.9758492114975,209.76502919077043 454.35899695880613,220.71694673571452 M454.35899695880613,220.71694673571452 L451.51807237736574,197.59368053425703" />
<path d="M401.25480295415485,145.924265313823 Q418.31453846983106,144.28627695020873 435.3742739855072,137.73432349575154 Q418.31453846983106,131.18237004129435 401.25480295415485,129.54438167768006 Z" />
<path d="M394.3514859278862,150.7906068413287 Q409.1158872831693,159.49290736270092 426.7686448491298,164.21972661581603 Q416.81817051164256,148.89162398068194 403.97933996347786,137.53900261380497 Z" />
<path d="M385.90622135359064,150.6698918975731 Q392.7357890543075,166.38849828508359 404.2388152755173,180.5886059497584 Q405.19834510895555,162.3391683575218 401.4844164219008,145.60822948812086 Z" />
<path d="M379.1448132546637,145.60822948812086 Q375.4308845676089,162.3391683575218 376.39041440104717,180.5886059497584 Q387.893440622257,166.38849828508359 394.72300832297384,150.6698918975731 Z" />
<path d="M376.6498897130866,137.53900261380497 Q363.8110591649219,148.89162398068194 353.86058482743465,164.21972661581603 Q371.5133423933952,159.49290736270092 386.2777437486783,150.7906068413287 Z" />
<path d="M379.3744267224096,129.54438167768006 Q362.3146912067334,131.18237004129435 345.25495569105726,137.73432349575154 Q362.3146912067334,144.28627695020873 379.3744267224096,145.924265313823 Z" />
<path d="M386.2777437486783,124.67804015017437 Q371.5133423933952,115.97573962880216 353.86058482743465,111.24892037568705 Q363.8110591649219,126.57702301082115 376.6498897130866,137.92964437769814 Z" />
<path d="M394.72300832297384,124.79875509392996 Q387.893440622257,109.08014870641948 376.39041440104717,94.88004104174468 Q375.4308845676089,113.1294786339813 379.1448132546637,129.86041750338222 Z" />
<path d="M401.4844164219008,129.86041750338222 Q405.19834510895555,113.1294786339813 404.2388152755173,94.88004104174468 Q392.7357890543075,109.08014870641946 385.90622135359064,124.79875509392994 Z" />
<path d="M403.97933996347786,137.9296443776981 Q416.81817051164256,126.57702301082114 426.7686448491298,111.24892037568704 Q409.1158872831693,115.97573962880215 394.3514859278862,124.67804015017437 Z" />
<circle cx="390.31461483828224" cy="137.73432349575154" r="10.940188115872617" />
<circle cx="396.5574571565395" cy="139.7627459254296" r="2" />
<circle cx="394.1729035773714" cy="143.0448023601914" r="2" />
<circle cx="390.31461483828224" cy="144.2984363652751" r="2" />
<circle cx="386.45632609919306" cy="143.0448023601914" r="2" />
<circle cx="384.071772520025" cy="139.7627459254296" r="2" />
<circle cx="384.071772520025" cy="135.70590106607347" r="2" />
<circle cx="386.45632609919306" cy="132.42384463131168" r="2" />
<circle cx="390.31461483828224" cy="131.17021062622797" r="2" />
<circle cx="394.1729035773714" cy="132.42384463131168" r="2" />
<circle cx="396.5574571565395" cy="135.70590106607347" r="2" />
<path d="M390.31461483828224,145.73432349575154 Q394.0413199263079,168.66776021539025 377.7680250143335,199.60119693502895" />
<path d="M387.31461483828224,181.73694637765823 Q396.3467104198116,167.0487891456828 395.70754761177443,149.81764918426597 Q386.675452030245,164.5058064162414 387.31461483828224,181.73694637765823 M387.31461483828224,181.73694637765823 L395.70754761177443,149.81764918426597" />
<path d="M399.7417716260457,644.9582644970699 Q396.7417716260457,624.9582644970699 414.7417716260457,614.9582644970699 Q432.7417716260457,624.9582644970699 429.7417716260457,644.9582644970699" />
<line x1="414.7417716260457" y1="644.9582644970699" x2="414.7417716260457" y2="649.9582644970699" />
<path d="M414.7417716260457,652.9582644970699 Q425.62275258649396,709.4241030927972 416.5037335469422,773.8899416885245" />
<path d="M417.7417716260457,694.03332659419 Q415.49100150252644,706.2988320839263 422.9744474660817,716.2741329605028 Q425.22521758960096,704.0086274707664 417.7417716260457,694.03332659419 M417.7417716260457,694.03332659419 L422.9744474660817,716.2741329605028" />
<path d="M500.2126793923984,197.3185768597177 Q495.87755664378216,178.4805937809191 484.98388251506844,160.38112528872114 Q478.3880862968556,180.44996601185414 478.3508414587402,199.7802921483865 Z" />
<path d="M497.34144515761324,194.54425260805064 Q488.8494013123423,181.50035161176015 475.52154662784494,170.85955975307056 Q475.953905741072,187.9086426453625 481.22207569352537,202.55461640005356 Z" />
<path d="M498.03031842513303,200.66195265267706 Q499.75142451938876,185.86577373731782 496.22339581390617,169.80208393278366 Q485.7537317200867,182.48574469951794 480.5332024260056,196.43691635542714 Z" />
<path d="M489.2817604255693,206.5494345040521 Q493.45835399670375,255.99570515658309 477.63494756783825,313.44197580911407" />
<path d="M492.2817604255693,225.01051141415772 Q484.448537755787,233.6328753299408 486.18665096151324,245.15170770890478 Q494.0198736312956,236.52934379312174 492.2817604255693,225.01051141415772 M492.2817604255693,225.01051141415772 L486.18665096151324,245.15170770890478" />
<path d="M662.777335585819,123.6796775494513 Q659.777335585819,103.6796775494513 677.777335585819,93.6796775494513 Q695.777335585819,103.6796775494513 692.777335585819,123.6796775494513" />
<line x1="677.777335585819" y1="123.6796775494513" x2="677.777335585819" y2="128.6796775494513" />
<path d="M677.777335585819,131.6796775494513 Q681.3786998031462,165.92028781857368 664.9800640204736,208.16089808769607" />
<path d="M223.1584654654595,655.0373715072864 Q219.0520322484045,634.0174398763382 208.37232693476741,613.5908832906152 Q201.52330665751904,635.5997733302721 201.24755847685273,657.0152883247039 Z" />
<path d="M220.34925160601372,652.2002640760657 Q211.6233718495472,637.8557363503899 198.00974831216615,625.8068481286718 Q198.58938843377507,643.9774416942771 204.0567723362985,659.8523957559246 Z" />
<path d="M220.90274129150592,658.3316953431337 Q222.84828095240877,643.9627506014856 219.57398302110172,628.2105866035542 Q208.92871403984907,640.2741659180638 203.5032826508063,653.7209644888566 Z" />
<path d="M212.20301197115612,664.0263299159951 Q226.05662709200442,720.6544774916531 219.9102422128527,785.2826250673111" />
<path d="M694.8371364561256,630.4436262105066 Q713.0510791410236,628.9048471205913 731.2650218259217,622.7497307609299 Q713.0510791410236,616.5946144012685 694.8371364561256,615.0558353113531 Z" />
<path d="M689.7005427227567,634.2258641021253 Q706.2436693359099,642.0002136618955 725.0949645839361,645.7766978736284 Q712.3987856955713,631.3392394004634 697.3944381723335,620.8996462753353 Z" />
<path d="M683.36100311493,634.9330813327388 Q693.800596240058,649.9374288559766 708.2380547132232,662.6336077443414 Q704.4615705014901,643.7823124963152 696.68722094172,627.239185883162 Z" />
<path d="M677.5171921509478,632.3757796165308 Q679.0559712408632,650.589722301429 685.2110876005246,668.803664986327 Q691.366203960186,650.589722301429 692.9049830501014,632.3757796165308 Z" />
<path d="M673.7349542593291,627.239185883162 Q665.9606046995591,643.7823124963152 662.184120487826,662.6336077443414 Q676.6215789609912,649.9374288559766 687.0611720861192,634.9330813327388 Z" />
<path d="M673.0277370287157,620.8996462753353 Q658.0233895054779,631.3392394004634 645.3272106171131,645.7766978736284 Q664.1785058651393,642.0002136618955 680.7216324782925,634.2258641021253 Z" />
<path d="M675.5850387449236,615.0558353113531 Q657.3710960600256,616.5946144012685 639.1571533751275,622.7497307609299 Q657.3710960600256,628.9048471205913 675.5850387449236,630.4436262105066 Z" />
<path d="M680.7216324782925,611.2735974197344 Q664.1785058651393,603.4992478599643 645.3272106171131,599.7227636482313 Q658.0233895054779,614.1602221213964 673.0277370287157,624.5998152465245 Z" />
<path d="M687.0611720861192,610.566380189121 Q676.6215789609912,595.5620326658832 662.184120487826,582.8658537775184 Q665.9606046995591,601.7171490255446 673.7349542593291,618.2602756386977 Z" />
<path d="M692.9049830501014,613.1236819053289 Q691.366203960186,594.9097392204308 685.2110876005246,576.6957965355327 Q679.0559712408632,594.9097392204308 677.5171921509478,613.1236819053289 Z" />
<path d="M696.68722094172,618.2602756386977 Q704.4615705014901,601.7171490255446 708.2380547132232,582.8658537775184 Q693.800596240058,595.5620326658832 683.36100311493,610.566380189121 Z" />
<path d="M697.3944381723335,624.5998152465245 Q712.3987856955713,614.1602221213964 725.0949645839361,599.7227636482313 Q706.2436693359099,603.4992478599643 689.7005427227567,611.2735974197344 Z" />
<circle cx="685.2110876005246" cy="622.7497307609299" r="9.626048855600924" />
<circle cx="690.7899171173717" cy="624.24457362468" r="2" />
<circle cx="689.2950742536217" cy="626.833717414027" r="2" />
<circle cx="686.7059304642747" cy="628.328560277777" r="2" />
<circle cx="683.7162447367745" cy="628.328560277777" r="2" />
<circle cx="681.1271009474275" cy="626.833717414027" r="2" />
<circle cx="679.6322580836775" cy="624.24457362468" r="2" />
<circle cx="679.6322580836775" cy="621.2548878971797" r="2" />
<circle cx="681.1271009474275" cy="618.6657441078328" r="2" />
<circle cx="683.7162447367745" cy="617.1709012440828" r="2" />
<circle cx="686.7059304642747" cy="617.1709012440828" r="2" />
<circle cx="689.2950742536217" cy="618.6657441078328" r="2" />
<circle cx="690.7899171173717" cy="621.2548878971797" r="2" />
<path d="M685.2110876005246,630.7497307609299 Q690.1586020436683,679.7748706813668 675.1061164868121,736.8000106018037" />
<ellipse cx="624.3701326179971" cy="266.4097042813987" rx="12" ry="8" transform="rotate(-20 624.3701326179971 266.4097042813987)" />
<ellipse cx="648.3701326179971" cy="266.4097042813987" rx="12" ry="8" transform="rotate(20 648.3701326179971 266.4097042813987)" />
<ellipse cx="628.3701326179971" cy="271.4097042813987" rx="8" ry="5" transform="rotate(-15 628.3701326179971 271.4097042813987)" />
<ellipse cx="644.3701326179971" cy="271.4097042813987" rx="8" ry="5" transform="rotate(15 644.3701326179971 271.4097042813987)" />
<line x1="636.3701326179971" y1="258.4097042813987" x2="636.3701326179971" y2="278.4097042813987" />
<path d="M636.3701326179971,258.4097042813987 Q628.3701326179971,248.40970428139872 624.3701326179971,246.40970428139872" />
<path d="M636.3701326179971,258.4097042813987 Q644.3701326179971,248.40970428139872 648.3701326179971,246.40970428139872" />
<ellipse cx="263.80149273928396" cy="227.84589446880472" rx="12" ry="8" transform="rotate(-20 263.80149273928396 227.84589446880472)" />
<ellipse cx="287.80149273928396" cy="227.84589446880472" rx="12" ry="8" transform="rotate(20 287.80149273928396 227.84589446880472)" />
<ellipse cx="267.80149273928396" cy="232.84589446880472" rx="8" ry="5" transform="rotate(-15 267.80149273928396 232.84589446880472)" />
<ellipse cx="283.80149273928396" cy="232.84589446880472" rx="8" ry="5" transform="rotate(15 283.80149273928396 232.84589446880472)" />
<line x1="275.80149273928396" y1="219.84589446880472" x2="275.80149273928396" y2="239.84589446880472" />
<path d="M275.80149273928396,219.84589446880472 Q267.80149273928396,209.84589446880472 263.80149273928396,207.84589446880472" />
<path d="M275.80149273928396,219.84589446880472 Q283.80149273928396,209.84589446880472 287.80149273928396,207.84589446880472" />
<ellipse cx="579.8990559800519" cy="353.7173513730218" rx="12" ry="8" transform="rotate(-20 579.8990559800519 353.7173513730218)" />
<ellipse cx="603.8990559800519" cy="353.7173513730218" rx="12" ry="8" transform="rotate(20 603.8990559800519 353.7173513730218)" />
<ellipse cx="583.8990559800519" cy="358.7173513730218" rx="8" ry="5" transform="rotate(-15 583.8990559800519 358.7173513730218)" />
<ellipse cx="599.8990559800519" cy="358.7173513730218" rx="8" ry="5" transform="rotate(15 599.8990559800519 358.7173513730218)" />
<line x1="591.8990559800519" y1="345.7173513730218" x2="591.8990559800519" y2="365.7173513730218" />
<path d="M591.8990559800519,345.7173513730218 Q583.8990559800519,335.7173513730218 579.8990559800519,333.7173513730218" />
<path d="M591.8990559800519,345.7173513730218 Q599.8990559800519,335.7173513730218 603.8990559800519,333.7173513730218" />
</svg>